<svg xmlns="http://www.w3.org/2000/svg" xmlns:xlink="http://www.w3.org/1999/xlink" width="120" zoomAndPan="magnify" viewBox="0 0 90 30.000001" height="40" preserveAspectRatio="xMidYMid meet" version="1.0"><defs><clipPath id="c670cc44e1"><path d="M 79 3.667969 L 88.546875 3.667969 L 88.546875 21 L 79 21 Z M 79 3.667969 " clip-rule="nonzero"/></clipPath><clipPath id="eebbe25bbc"><path d="M 76 3.667969 L 86 3.667969 L 86 21 L 76 21 Z M 76 3.667969 " clip-rule="nonzero"/></clipPath><clipPath id="c5aef6eaef"><path d="M 2 3.667969 L 27 3.667969 L 27 21 L 2 21 Z M 2 3.667969 " clip-rule="nonzero"/></clipPath><clipPath id="294fe61aa9"><path d="M 24 3.667969 L 50 3.667969 L 50 21 L 24 21 Z M 24 3.667969 " clip-rule="nonzero"/></clipPath><clipPath id="d9b0efc9bc"><path d="M 47 3.667969 L 56 3.667969 L 56 21 L 47 21 Z M 47 3.667969 " clip-rule="nonzero"/></clipPath><clipPath id="fa88a27d4b"><path d="M 52 3.667969 L 79 3.667969 L 79 21 L 52 21 Z M 52 3.667969 " clip-rule="nonzero"/></clipPath><clipPath id="cfa7188bed"><path d="M 1.453125 22 L 4 22 L 4 25.441406 L 1.453125 25.441406 Z M 1.453125 22 " clip-rule="nonzero"/></clipPath><clipPath id="00112e646c"><path d="M 4 22 L 8 22 L 8 25.441406 L 4 25.441406 Z M 4 22 " clip-rule="nonzero"/></clipPath><clipPath id="dbdf3f138b"><path d="M 8 22 L 11 22 L 11 25.441406 L 8 25.441406 Z M 8 22 " clip-rule="nonzero"/></clipPath><clipPath id="2cedb25e68"><path d="M 12 22 L 15 22 L 15 25.441406 L 12 25.441406 Z M 12 22 " clip-rule="nonzero"/></clipPath><clipPath id="a115765499"><path d="M 14 22 L 18 22 L 18 25.441406 L 14 25.441406 Z M 14 22 " clip-rule="nonzero"/></clipPath><clipPath id="2e7ea81f59"><path d="M 18 22 L 21 22 L 21 25.441406 L 18 25.441406 Z M 18 22 " clip-rule="nonzero"/></clipPath><clipPath id="7d046da90e"><path d="M 23 22 L 25 22 L 25 25.441406 L 23 25.441406 Z M 23 22 " clip-rule="nonzero"/></clipPath><clipPath id="f455192266"><path d="M 25 22 L 29 22 L 29 25.441406 L 25 25.441406 Z M 25 22 " clip-rule="nonzero"/></clipPath><clipPath id="de5424774d"><path d="M 30 22 L 33 22 L 33 25.441406 L 30 25.441406 Z M 30 22 " clip-rule="nonzero"/></clipPath><clipPath id="17afbfe4a2"><path d="M 33 22 L 36 22 L 36 25.441406 L 33 25.441406 Z M 33 22 " clip-rule="nonzero"/></clipPath><clipPath id="e6272e096e"><path d="M 36 22 L 39 22 L 39 25.441406 L 36 25.441406 Z M 36 22 " clip-rule="nonzero"/></clipPath><clipPath id="fa17de0c51"><path d="M 39 22 L 42 22 L 42 25.441406 L 39 25.441406 Z M 39 22 " clip-rule="nonzero"/></clipPath><clipPath id="505718fb8f"><path d="M 41 22 L 45 22 L 45 25.441406 L 41 25.441406 Z M 41 22 " clip-rule="nonzero"/></clipPath><clipPath id="8495203f34"><path d="M 45 22 L 49 22 L 49 25.441406 L 45 25.441406 Z M 45 22 " clip-rule="nonzero"/></clipPath><clipPath id="6721a36df8"><path d="M 49 22 L 52 22 L 52 25.441406 L 49 25.441406 Z M 49 22 " clip-rule="nonzero"/></clipPath><clipPath id="2f9b81a22e"><path d="M 54 22 L 57 22 L 57 25.441406 L 54 25.441406 Z M 54 22 " clip-rule="nonzero"/></clipPath><clipPath id="4b92170f2d"><path d="M 57 22 L 61 22 L 61 25.441406 L 57 25.441406 Z M 57 22 " clip-rule="nonzero"/></clipPath><clipPath id="be71bfb341"><path d="M 62 22 L 65 22 L 65 25.441406 L 62 25.441406 Z M 62 22 " clip-rule="nonzero"/></clipPath><clipPath id="d429ea998a"><path d="M 67 22 L 71 22 L 71 25.441406 L 67 25.441406 Z M 67 22 " clip-rule="nonzero"/></clipPath><clipPath id="a57575f3e9"><path d="M 71 22 L 75 22 L 75 25.441406 L 71 25.441406 Z M 71 22 " clip-rule="nonzero"/></clipPath><clipPath id="64e25fa96a"><path d="M 76 22 L 79 22 L 79 25.441406 L 76 25.441406 Z M 76 22 " clip-rule="nonzero"/></clipPath><clipPath id="d4dbcc5c48"><path d="M 80 22 L 83 22 L 83 25.441406 L 80 25.441406 Z M 80 22 " clip-rule="nonzero"/></clipPath><clipPath id="0f9cd71ee0"><path d="M 83 22 L 86 22 L 86 25.441406 L 83 25.441406 Z M 83 22 " clip-rule="nonzero"/></clipPath></defs><g clip-path="url(#c670cc44e1)"><path fill="#008c44" d="M 84.265625 3.773438 L 88.53125 12.253906 L 79.5625 20.734375 Z M 84.265625 3.773438 " fill-opacity="1" fill-rule="nonzero"/></g><g clip-path="url(#eebbe25bbc)"><path fill="#f47920" d="M 81.273438 3.773438 L 85.535156 12.253906 L 76.566406 20.734375 Z M 81.273438 3.773438 " fill-opacity="1" fill-rule="nonzero"/></g><g clip-path="url(#c5aef6eaef)"><path fill="#ffffff" d="M 20.585938 16.078125 C 20.261719 16.769531 19.597656 17.269531 18.808594 17.367188 L 6.761719 17.367188 L 7.730469 13.898438 L 19.894531 13.898438 C 20.335938 14.007812 20.683594 14.359375 20.785156 14.804688 C 20.796875 14.902344 20.808594 15.003906 20.808594 15.109375 C 20.808594 15.160156 20.804688 15.214844 20.800781 15.265625 C 20.796875 15.285156 20.796875 15.308594 20.796875 15.328125 Z M 9.625 7.113281 L 21.808594 7.113281 C 22.144531 7.195312 22.421875 7.414062 22.585938 7.703125 C 22.644531 7.910156 22.679688 8.125 22.679688 8.34375 C 22.679688 8.464844 22.667969 8.582031 22.648438 8.695312 L 22.617188 8.808594 L 22.5 9.230469 C 22.1875 9.96875 21.496094 10.507812 20.667969 10.609375 L 8.648438 10.609375 Z M 22.316406 20.175781 C 22.734375 19.855469 23.011719 19.457031 23.144531 18.980469 L 24.5625 13.898438 C 24.691406 13.4375 24.632812 13.050781 24.394531 12.734375 C 24.152344 12.421875 23.792969 12.265625 23.320312 12.265625 C 23.792969 12.265625 24.238281 12.105469 24.660156 11.785156 C 25.078125 11.460938 25.351562 11.070312 25.480469 10.609375 L 26.898438 5.53125 C 27.035156 5.039062 26.988281 4.632812 26.757812 4.308594 C 26.53125 3.984375 26.167969 3.820312 25.679688 3.820312 L 7.179688 3.820312 L 2.476562 20.660156 L 20.980469 20.660156 C 21.449219 20.660156 21.898438 20.5 22.316406 20.175781 " fill-opacity="1" fill-rule="nonzero"/></g><g clip-path="url(#294fe61aa9)"><path fill="#ffffff" d="M 46.28125 3.835938 L 44.417969 10.601562 L 31.074219 10.601562 L 32.933594 3.835938 L 29.617188 3.835938 L 24.996094 20.617188 L 28.316406 20.617188 L 30.171875 13.882812 L 43.515625 13.882812 L 41.664062 20.617188 L 44.984375 20.617188 L 49.597656 3.835938 Z M 46.28125 3.835938 " fill-opacity="1" fill-rule="nonzero"/></g><g clip-path="url(#d9b0efc9bc)"><path fill="#ffffff" d="M 50.566406 20.671875 L 47.222656 20.671875 L 51.871094 3.894531 L 55.210938 3.894531 Z M 50.566406 20.671875 " fill-opacity="1" fill-rule="nonzero"/></g><g clip-path="url(#fa88a27d4b)"><path fill="#ffffff" d="M 78.441406 3.878906 L 64.578125 15.625 L 59.746094 7.589844 L 57.507812 3.878906 L 57.449219 3.878906 L 56.398438 7.691406 L 52.832031 20.609375 L 56.152344 20.609375 L 58.648438 11.554688 L 63.945312 20.628906 L 72.707031 12.597656 L 70.511719 20.609375 L 73.832031 20.609375 L 77.070312 8.867188 L 78.445312 3.878906 Z M 78.441406 3.878906 " fill-opacity="1" fill-rule="nonzero"/></g><g clip-path="url(#cfa7188bed)"><path fill="#bdbdbd" d="M 2.230469 23.742188 L 2.394531 23.742188 C 2.597656 23.742188 2.75 23.714844 2.847656 23.660156 C 2.941406 23.609375 3.007812 23.519531 3.035156 23.394531 C 3.070312 23.261719 3.050781 23.164062 2.988281 23.109375 C 2.921875 23.054688 2.78125 23.027344 2.566406 23.027344 L 2.402344 23.027344 Z M 1.96875 24.835938 L 2.117188 24.835938 C 2.265625 24.835938 2.378906 24.832031 2.457031 24.820312 C 2.53125 24.808594 2.59375 24.789062 2.644531 24.761719 C 2.707031 24.726562 2.757812 24.683594 2.800781 24.628906 C 2.84375 24.574219 2.871094 24.511719 2.886719 24.445312 C 2.90625 24.367188 2.902344 24.296875 2.882812 24.238281 C 2.863281 24.179688 2.824219 24.132812 2.765625 24.101562 C 2.730469 24.082031 2.6875 24.066406 2.636719 24.058594 C 2.589844 24.050781 2.519531 24.046875 2.433594 24.046875 L 2.160156 24.046875 Z M 1.46875 25.175781 L 2.0625 22.691406 L 2.726562 22.691406 C 2.914062 22.691406 3.050781 22.699219 3.136719 22.722656 C 3.222656 22.738281 3.292969 22.773438 3.347656 22.816406 C 3.414062 22.871094 3.460938 22.945312 3.484375 23.039062 C 3.507812 23.128906 3.503906 23.230469 3.476562 23.339844 C 3.445312 23.472656 3.386719 23.585938 3.300781 23.671875 C 3.214844 23.761719 3.105469 23.824219 2.976562 23.859375 C 3.121094 23.878906 3.226562 23.949219 3.289062 24.054688 C 3.351562 24.164062 3.363281 24.304688 3.324219 24.46875 C 3.296875 24.570312 3.257812 24.664062 3.199219 24.753906 C 3.140625 24.847656 3.070312 24.921875 2.984375 24.988281 C 2.898438 25.054688 2.796875 25.105469 2.683594 25.132812 C 2.570312 25.160156 2.386719 25.175781 2.136719 25.175781 Z M 1.46875 25.175781 " fill-opacity="1" fill-rule="nonzero"/></g><g clip-path="url(#00112e646c)"><path fill="#bdbdbd" d="M 4.699219 25.175781 L 5.292969 22.691406 L 5.71875 22.691406 L 5.5 23.609375 L 6.792969 23.609375 L 7.015625 22.691406 L 7.441406 22.691406 L 6.847656 25.175781 L 6.417969 25.175781 L 6.710938 23.96875 L 5.414062 23.96875 L 5.125 25.175781 Z M 4.699219 25.175781 " fill-opacity="1" fill-rule="nonzero"/></g><g clip-path="url(#dbdf3f138b)"><path fill="#bdbdbd" d="M 9.347656 24.199219 L 10.082031 24.199219 L 9.949219 23.632812 C 9.941406 23.597656 9.9375 23.554688 9.929688 23.507812 C 9.925781 23.460938 9.921875 23.410156 9.917969 23.351562 C 9.890625 23.40625 9.863281 23.457031 9.835938 23.503906 C 9.808594 23.550781 9.78125 23.59375 9.753906 23.632812 Z M 10.296875 25.175781 L 10.152344 24.535156 L 9.113281 24.535156 L 8.652344 25.175781 L 8.203125 25.175781 L 10.09375 22.59375 L 10.75 25.175781 Z M 10.296875 25.175781 " fill-opacity="1" fill-rule="nonzero"/></g><g clip-path="url(#2cedb25e68)"><path fill="#bdbdbd" d="M 12.875 23.75 L 12.953125 23.75 C 13.179688 23.75 13.335938 23.726562 13.421875 23.675781 C 13.507812 23.625 13.566406 23.535156 13.597656 23.410156 C 13.628906 23.273438 13.613281 23.175781 13.546875 23.121094 C 13.480469 23.066406 13.339844 23.039062 13.125 23.039062 L 13.046875 23.039062 Z M 12.773438 24.0625 L 12.507812 25.175781 L 12.109375 25.175781 L 12.703125 22.691406 L 13.296875 22.691406 C 13.472656 22.691406 13.605469 22.703125 13.699219 22.722656 C 13.789062 22.746094 13.863281 22.78125 13.917969 22.832031 C 13.984375 22.890625 14.03125 22.96875 14.050781 23.0625 C 14.074219 23.160156 14.070312 23.261719 14.042969 23.375 C 13.996094 23.574219 13.90625 23.730469 13.777344 23.84375 C 13.652344 23.953125 13.484375 24.023438 13.28125 24.046875 L 13.914062 25.175781 L 13.433594 25.175781 L 12.824219 24.0625 Z M 12.773438 24.0625 " fill-opacity="1" fill-rule="nonzero"/></g><g clip-path="url(#a115765499)"><path fill="#bdbdbd" d="M 16.066406 24.199219 L 16.800781 24.199219 L 16.667969 23.632812 C 16.660156 23.597656 16.652344 23.554688 16.648438 23.507812 C 16.644531 23.460938 16.636719 23.410156 16.636719 23.351562 C 16.605469 23.40625 16.578125 23.457031 16.554688 23.503906 C 16.523438 23.550781 16.496094 23.59375 16.472656 23.632812 Z M 17.015625 25.175781 L 16.871094 24.535156 L 15.828125 24.535156 L 15.371094 25.175781 L 14.921875 25.175781 L 16.8125 22.59375 L 17.464844 25.175781 Z M 17.015625 25.175781 " fill-opacity="1" fill-rule="nonzero"/></g><g clip-path="url(#2e7ea81f59)"><path fill="#bdbdbd" d="M 19.984375 23.035156 L 19.472656 25.175781 L 19.046875 25.175781 L 19.558594 23.035156 L 18.859375 23.035156 L 18.941406 22.691406 L 20.761719 22.691406 L 20.679688 23.035156 Z M 19.984375 23.035156 " fill-opacity="1" fill-rule="nonzero"/></g><g clip-path="url(#7d046da90e)"><path fill="#bdbdbd" d="M 23.835938 25.175781 L 24.429688 22.691406 L 24.855469 22.691406 L 24.261719 25.175781 Z M 23.835938 25.175781 " fill-opacity="1" fill-rule="nonzero"/></g><g clip-path="url(#f455192266)"><path fill="#bdbdbd" d="M 25.988281 25.175781 L 26.605469 22.59375 L 27.910156 24.113281 C 27.945312 24.15625 27.980469 24.199219 28.015625 24.25 C 28.050781 24.296875 28.085938 24.351562 28.125 24.414062 L 28.535156 22.691406 L 28.933594 22.691406 L 28.316406 25.269531 L 26.980469 23.726562 C 26.945312 23.683594 26.910156 23.640625 26.878906 23.59375 C 26.847656 23.546875 26.820312 23.5 26.792969 23.449219 L 26.378906 25.175781 Z M 25.988281 25.175781 " fill-opacity="1" fill-rule="nonzero"/></g><g clip-path="url(#de5424774d)"><path fill="#bdbdbd" d="M 31.414062 23.035156 L 30.902344 25.175781 L 30.476562 25.175781 L 30.988281 23.035156 L 30.289062 23.035156 L 30.371094 22.691406 L 32.191406 22.691406 L 32.109375 23.035156 Z M 31.414062 23.035156 " fill-opacity="1" fill-rule="nonzero"/></g><g clip-path="url(#17afbfe4a2)"><path fill="#bdbdbd" d="M 33.035156 25.175781 L 33.628906 22.691406 L 35.097656 22.691406 L 35.015625 23.035156 L 33.972656 23.035156 L 33.824219 23.65625 L 34.863281 23.65625 L 34.78125 24.011719 L 33.738281 24.011719 L 33.546875 24.8125 L 34.585938 24.8125 L 34.5 25.175781 Z M 33.035156 25.175781 " fill-opacity="1" fill-rule="nonzero"/></g><g clip-path="url(#e6272e096e)"><path fill="#bdbdbd" d="M 36.871094 23.75 L 36.949219 23.75 C 37.175781 23.75 37.332031 23.726562 37.417969 23.675781 C 37.503906 23.625 37.5625 23.535156 37.59375 23.410156 C 37.625 23.273438 37.609375 23.175781 37.542969 23.121094 C 37.476562 23.066406 37.335938 23.039062 37.121094 23.039062 L 37.042969 23.039062 Z M 36.769531 24.0625 L 36.503906 25.175781 L 36.101562 25.175781 L 36.699219 22.691406 L 37.292969 22.691406 C 37.46875 22.691406 37.601562 22.703125 37.691406 22.722656 C 37.785156 22.746094 37.859375 22.78125 37.914062 22.832031 C 37.980469 22.890625 38.027344 22.96875 38.046875 23.0625 C 38.070312 23.160156 38.066406 23.261719 38.039062 23.375 C 37.992188 23.574219 37.902344 23.730469 37.773438 23.84375 C 37.644531 23.953125 37.480469 24.023438 37.273438 24.046875 L 37.910156 25.175781 L 37.425781 25.175781 L 36.816406 24.0625 Z M 36.769531 24.0625 " fill-opacity="1" fill-rule="nonzero"/></g><g clip-path="url(#fa17de0c51)"><path fill="#bdbdbd" d="M 39.273438 25.175781 L 39.867188 22.691406 L 41.335938 22.691406 L 41.253906 23.035156 L 40.210938 23.035156 L 40.066406 23.652344 L 41.105469 23.652344 L 41.019531 24.007812 L 39.980469 24.007812 L 39.699219 25.175781 Z M 39.273438 25.175781 " fill-opacity="1" fill-rule="nonzero"/></g><g clip-path="url(#505718fb8f)"><path fill="#bdbdbd" d="M 42.972656 24.199219 L 43.707031 24.199219 L 43.570312 23.632812 C 43.5625 23.597656 43.558594 23.554688 43.554688 23.507812 C 43.546875 23.460938 43.542969 23.410156 43.539062 23.351562 C 43.511719 23.40625 43.484375 23.457031 43.457031 23.503906 C 43.429688 23.550781 43.402344 23.59375 43.378906 23.632812 Z M 43.921875 25.175781 L 43.777344 24.535156 L 42.734375 24.535156 L 42.277344 25.175781 L 41.828125 25.175781 L 43.71875 22.59375 L 44.371094 25.175781 Z M 43.921875 25.175781 " fill-opacity="1" fill-rule="nonzero"/></g><g clip-path="url(#8495203f34)"><path fill="#bdbdbd" d="M 48.226562 23.296875 C 48.128906 23.199219 48.019531 23.125 47.894531 23.078125 C 47.769531 23.027344 47.636719 23.003906 47.488281 23.003906 C 47.203125 23.003906 46.945312 23.089844 46.722656 23.265625 C 46.503906 23.4375 46.359375 23.664062 46.292969 23.941406 C 46.226562 24.210938 46.261719 24.429688 46.394531 24.605469 C 46.53125 24.78125 46.730469 24.867188 46.996094 24.867188 C 47.152344 24.867188 47.308594 24.839844 47.460938 24.789062 C 47.613281 24.734375 47.769531 24.65625 47.921875 24.550781 L 47.8125 25.007812 C 47.679688 25.085938 47.539062 25.144531 47.394531 25.183594 C 47.25 25.222656 47.097656 25.242188 46.941406 25.242188 C 46.738281 25.242188 46.5625 25.210938 46.40625 25.148438 C 46.25 25.085938 46.121094 24.992188 46.023438 24.871094 C 45.921875 24.753906 45.859375 24.613281 45.828125 24.453125 C 45.796875 24.292969 45.804688 24.121094 45.847656 23.9375 C 45.890625 23.753906 45.964844 23.585938 46.074219 23.425781 C 46.179688 23.265625 46.3125 23.125 46.472656 23.003906 C 46.632812 22.882812 46.804688 22.789062 46.988281 22.726562 C 47.171875 22.664062 47.363281 22.632812 47.558594 22.632812 C 47.714844 22.632812 47.855469 22.652344 47.984375 22.695312 C 48.117188 22.738281 48.234375 22.800781 48.347656 22.886719 Z M 48.226562 23.296875 " fill-opacity="1" fill-rule="nonzero"/></g><g clip-path="url(#6721a36df8)"><path fill="#bdbdbd" d="M 49.417969 25.175781 L 50.011719 22.691406 L 51.476562 22.691406 L 51.394531 23.035156 L 50.355469 23.035156 L 50.207031 23.65625 L 51.25 23.65625 L 51.164062 24.011719 L 50.121094 24.011719 L 49.929688 24.8125 L 50.972656 24.8125 L 50.882812 25.175781 Z M 49.417969 25.175781 " fill-opacity="1" fill-rule="nonzero"/></g><g clip-path="url(#2f9b81a22e)"><path fill="#bdbdbd" d="M 54.707031 25.175781 L 55.300781 22.691406 L 56.769531 22.691406 L 56.6875 23.035156 L 55.644531 23.035156 L 55.496094 23.652344 L 56.539062 23.652344 L 56.453125 24.007812 L 55.414062 24.007812 L 55.132812 25.175781 Z M 54.707031 25.175781 " fill-opacity="1" fill-rule="nonzero"/></g><g clip-path="url(#4b92170f2d)"><path fill="#bdbdbd" d="M 60.292969 23.9375 C 60.324219 23.8125 60.328125 23.695312 60.308594 23.582031 C 60.285156 23.46875 60.238281 23.367188 60.171875 23.277344 C 60.101562 23.191406 60.015625 23.125 59.910156 23.078125 C 59.804688 23.03125 59.6875 23.007812 59.558594 23.007812 C 59.429688 23.007812 59.300781 23.03125 59.171875 23.078125 C 59.042969 23.125 58.925781 23.191406 58.8125 23.277344 C 58.699219 23.363281 58.605469 23.464844 58.53125 23.578125 C 58.457031 23.691406 58.40625 23.8125 58.375 23.9375 C 58.34375 24.0625 58.339844 24.183594 58.363281 24.292969 C 58.382812 24.40625 58.425781 24.507812 58.496094 24.59375 C 58.566406 24.683594 58.65625 24.75 58.761719 24.796875 C 58.863281 24.84375 58.980469 24.867188 59.113281 24.867188 C 59.242188 24.867188 59.367188 24.84375 59.496094 24.796875 C 59.621094 24.75 59.742188 24.683594 59.855469 24.59375 C 59.96875 24.507812 60.0625 24.40625 60.136719 24.292969 C 60.210938 24.183594 60.265625 24.0625 60.292969 23.9375 M 60.738281 23.9375 C 60.699219 24.113281 60.625 24.28125 60.515625 24.4375 C 60.40625 24.59375 60.273438 24.734375 60.109375 24.859375 C 59.941406 24.984375 59.765625 25.078125 59.582031 25.140625 C 59.398438 25.207031 59.210938 25.242188 59.023438 25.242188 C 58.835938 25.242188 58.660156 25.207031 58.503906 25.140625 C 58.351562 25.074219 58.21875 24.980469 58.117188 24.859375 C 58.011719 24.734375 57.945312 24.597656 57.914062 24.441406 C 57.882812 24.285156 57.886719 24.117188 57.929688 23.9375 C 57.972656 23.761719 58.046875 23.59375 58.152344 23.4375 C 58.261719 23.277344 58.394531 23.140625 58.558594 23.011719 C 58.722656 22.890625 58.898438 22.796875 59.082031 22.734375 C 59.269531 22.667969 59.457031 22.636719 59.644531 22.636719 C 59.835938 22.636719 60.007812 22.667969 60.160156 22.734375 C 60.316406 22.796875 60.445312 22.890625 60.550781 23.011719 C 60.652344 23.140625 60.722656 23.28125 60.753906 23.441406 C 60.785156 23.597656 60.78125 23.761719 60.738281 23.9375 " fill-opacity="1" fill-rule="nonzero"/></g><g clip-path="url(#be71bfb341)"><path fill="#bdbdbd" d="M 62.8125 23.75 L 62.890625 23.75 C 63.117188 23.75 63.273438 23.726562 63.359375 23.675781 C 63.445312 23.625 63.503906 23.535156 63.535156 23.410156 C 63.566406 23.273438 63.550781 23.175781 63.484375 23.121094 C 63.417969 23.066406 63.277344 23.039062 63.0625 23.039062 L 62.984375 23.039062 Z M 62.710938 24.0625 L 62.445312 25.175781 L 62.046875 25.175781 L 62.640625 22.691406 L 63.234375 22.691406 C 63.410156 22.691406 63.542969 22.703125 63.632812 22.722656 C 63.726562 22.746094 63.800781 22.78125 63.855469 22.832031 C 63.921875 22.890625 63.96875 22.96875 63.988281 23.0625 C 64.011719 23.160156 64.007812 23.261719 63.980469 23.375 C 63.933594 23.574219 63.84375 23.730469 63.714844 23.84375 C 63.589844 23.953125 63.421875 24.023438 63.21875 24.046875 L 63.851562 25.175781 L 63.367188 25.175781 L 62.757812 24.0625 Z M 62.710938 24.0625 " fill-opacity="1" fill-rule="nonzero"/></g><g clip-path="url(#d429ea998a)"><path fill="#bdbdbd" d="M 69.875 23.949219 C 69.875 23.929688 69.878906 23.875 69.890625 23.789062 C 69.898438 23.71875 69.902344 23.65625 69.90625 23.609375 C 69.882812 23.664062 69.855469 23.722656 69.820312 23.777344 C 69.789062 23.835938 69.75 23.894531 69.703125 23.953125 L 68.699219 25.273438 L 68.335938 23.925781 C 68.320312 23.867188 68.308594 23.816406 68.300781 23.765625 C 68.292969 23.710938 68.285156 23.660156 68.28125 23.609375 C 68.269531 23.660156 68.25 23.714844 68.230469 23.773438 C 68.207031 23.828125 68.183594 23.890625 68.152344 23.953125 L 67.578125 25.175781 L 67.183594 25.175781 L 68.421875 22.585938 L 68.824219 24.152344 C 68.832031 24.179688 68.839844 24.21875 68.851562 24.277344 C 68.859375 24.335938 68.875 24.40625 68.886719 24.492188 C 68.929688 24.421875 68.992188 24.328125 69.070312 24.21875 C 69.09375 24.191406 69.109375 24.167969 69.121094 24.152344 L 70.253906 22.585938 L 70.269531 25.175781 L 69.871094 25.175781 Z M 69.875 23.949219 " fill-opacity="1" fill-rule="nonzero"/></g><g clip-path="url(#a57575f3e9)"><path fill="#bdbdbd" d="M 74.269531 23.9375 C 74.296875 23.8125 74.300781 23.695312 74.28125 23.582031 C 74.257812 23.46875 74.214844 23.367188 74.144531 23.277344 C 74.074219 23.191406 73.988281 23.125 73.882812 23.078125 C 73.777344 23.03125 73.660156 23.007812 73.53125 23.007812 C 73.402344 23.007812 73.273438 23.03125 73.144531 23.078125 C 73.015625 23.125 72.898438 23.191406 72.785156 23.277344 C 72.671875 23.363281 72.578125 23.464844 72.503906 23.578125 C 72.429688 23.691406 72.378906 23.8125 72.347656 23.9375 C 72.316406 24.0625 72.3125 24.183594 72.335938 24.292969 C 72.355469 24.40625 72.402344 24.507812 72.472656 24.59375 C 72.539062 24.683594 72.628906 24.75 72.734375 24.796875 C 72.835938 24.84375 72.957031 24.867188 73.085938 24.867188 C 73.214844 24.867188 73.339844 24.84375 73.46875 24.796875 C 73.59375 24.75 73.714844 24.683594 73.828125 24.59375 C 73.941406 24.507812 74.035156 24.40625 74.109375 24.292969 C 74.183594 24.183594 74.238281 24.0625 74.269531 23.9375 M 74.710938 23.9375 C 74.671875 24.113281 74.597656 24.28125 74.488281 24.4375 C 74.378906 24.59375 74.246094 24.734375 74.082031 24.859375 C 73.917969 24.984375 73.742188 25.078125 73.554688 25.140625 C 73.371094 25.207031 73.183594 25.242188 72.996094 25.242188 C 72.808594 25.242188 72.632812 25.207031 72.480469 25.140625 C 72.324219 25.074219 72.191406 24.980469 72.09375 24.859375 C 71.984375 24.734375 71.917969 24.597656 71.886719 24.441406 C 71.855469 24.285156 71.859375 24.117188 71.902344 23.9375 C 71.945312 23.761719 72.019531 23.59375 72.125 23.4375 C 72.234375 23.277344 72.367188 23.140625 72.53125 23.011719 C 72.695312 22.890625 72.871094 22.796875 73.054688 22.734375 C 73.242188 22.667969 73.429688 22.636719 73.621094 22.636719 C 73.808594 22.636719 73.980469 22.667969 74.136719 22.734375 C 74.289062 22.796875 74.417969 22.890625 74.523438 23.011719 C 74.625 23.140625 74.695312 23.28125 74.726562 23.441406 C 74.761719 23.597656 74.753906 23.761719 74.710938 23.9375 " fill-opacity="1" fill-rule="nonzero"/></g><g clip-path="url(#64e25fa96a)"><path fill="#bdbdbd" d="M 76.019531 25.175781 L 76.636719 22.59375 L 77.945312 24.113281 C 77.976562 24.15625 78.011719 24.199219 78.050781 24.25 C 78.082031 24.296875 78.121094 24.351562 78.15625 24.414062 L 78.570312 22.691406 L 78.964844 22.691406 L 78.347656 25.269531 L 77.011719 23.726562 C 76.976562 23.683594 76.941406 23.640625 76.910156 23.59375 C 76.878906 23.546875 76.851562 23.5 76.824219 23.449219 L 76.410156 25.175781 Z M 76.019531 25.175781 " fill-opacity="1" fill-rule="nonzero"/></g><g clip-path="url(#d4dbcc5c48)"><path fill="#bdbdbd" d="M 80.085938 25.175781 L 80.679688 22.691406 L 82.144531 22.691406 L 82.0625 23.035156 L 81.023438 23.035156 L 80.875 23.65625 L 81.914062 23.65625 L 81.828125 24.011719 L 80.789062 24.011719 L 80.597656 24.8125 L 81.636719 24.8125 L 81.550781 25.175781 Z M 80.085938 25.175781 " fill-opacity="1" fill-rule="nonzero"/></g><g clip-path="url(#0f9cd71ee0)"><path fill="#bdbdbd" d="M 83.71875 25.175781 L 83.992188 24.039062 L 83.425781 22.691406 L 83.875 22.691406 L 84.226562 23.535156 C 84.234375 23.558594 84.242188 23.585938 84.253906 23.617188 C 84.265625 23.65625 84.277344 23.691406 84.289062 23.734375 C 84.3125 23.695312 84.339844 23.65625 84.367188 23.621094 C 84.394531 23.585938 84.421875 23.554688 84.449219 23.523438 L 85.214844 22.691406 L 85.640625 22.691406 L 84.414062 24.039062 L 84.140625 25.175781 Z M 83.71875 25.175781 " fill-opacity="1" fill-rule="nonzero"/></g></svg>