<svg xmlns="http://www.w3.org/2000/svg" xmlns:xlink="http://www.w3.org/1999/xlink" width="100" zoomAndPan="magnify" viewBox="0 0 75 37.5" height="50" preserveAspectRatio="xMidYMid meet" version="1.0"><defs><clipPath id="9cb277c7e6"><path d="M 59 13 L 74.503906 13 L 74.503906 35 L 59 35 Z M 59 13 " clip-rule="nonzero"/></clipPath><clipPath id="4e4576e0a5"><path d="M 0.492188 11 L 6 11 L 6 23 L 0.492188 23 Z M 0.492188 11 " clip-rule="nonzero"/></clipPath></defs><path fill="#ffffff" d="M 35.46875 19.101562 L 35.46875 27.683594 L 32.703125 27.683594 L 32.703125 6.460938 L 39.898438 6.460938 C 41.652344 6.460938 43.3125 7.109375 44.605469 8.308594 C 45.898438 9.414062 46.542969 11.074219 46.542969 12.828125 C 46.542969 14.582031 45.898438 16.148438 44.605469 17.351562 C 43.3125 18.550781 41.746094 19.195312 39.898438 19.195312 Z M 35.46875 9.046875 L 35.46875 16.425781 L 40.082031 16.425781 C 41.097656 16.425781 42.113281 16.058594 42.757812 15.320312 C 44.234375 13.9375 44.234375 11.628906 42.851562 10.246094 C 42.851562 10.246094 42.757812 10.152344 42.757812 10.152344 C 42.019531 9.414062 41.097656 8.953125 40.082031 9.046875 Z M 35.46875 9.046875 " fill-opacity="1" fill-rule="nonzero"/><path fill="#ffffff" d="M 52.910156 12.734375 C 54.941406 12.734375 56.507812 13.289062 57.707031 14.398438 C 58.90625 15.503906 59.460938 16.980469 59.460938 18.828125 L 59.460938 27.683594 L 56.878906 27.683594 L 56.878906 25.65625 L 56.785156 25.65625 C 55.679688 27.316406 54.109375 28.144531 52.265625 28.144531 C 50.695312 28.144531 49.3125 27.683594 48.203125 26.761719 C 47.1875 25.839844 46.542969 24.546875 46.542969 23.164062 C 46.542969 21.6875 47.097656 20.488281 48.203125 19.5625 C 49.3125 18.640625 50.878906 18.273438 52.726562 18.273438 C 54.386719 18.273438 55.679688 18.550781 56.691406 19.195312 L 56.691406 18.550781 C 56.691406 17.625 56.324219 16.703125 55.585938 16.148438 C 54.847656 15.503906 53.925781 15.136719 52.910156 15.136719 C 51.339844 15.136719 50.140625 15.78125 49.3125 17.074219 L 46.910156 15.597656 C 48.386719 13.660156 50.324219 12.734375 52.910156 12.734375 Z M 49.402344 23.253906 C 49.402344 23.992188 49.773438 24.640625 50.324219 25.007812 C 50.972656 25.46875 51.710938 25.746094 52.449219 25.746094 C 53.554688 25.746094 54.664062 25.285156 55.492188 24.453125 C 56.417969 23.625 56.878906 22.609375 56.878906 21.503906 C 56.046875 20.855469 54.847656 20.488281 53.277344 20.488281 C 52.171875 20.488281 51.25 20.765625 50.511719 21.316406 C 49.773438 21.777344 49.402344 22.425781 49.402344 23.253906 Z M 49.402344 23.253906 " fill-opacity="1" fill-rule="nonzero"/><g clip-path="url(#9cb277c7e6)"><path fill="#ffffff" d="M 74.410156 13.199219 L 65.273438 34.144531 L 62.507812 34.144531 L 65.921875 26.855469 L 59.921875 13.289062 L 62.875 13.289062 L 67.210938 23.714844 L 67.304688 23.714844 L 71.550781 13.289062 L 74.410156 13.289062 Z M 74.410156 13.199219 " fill-opacity="1" fill-rule="nonzero"/></g><path fill="#4285f4" d="M 24.488281 17.257812 C 24.488281 16.425781 24.398438 15.597656 24.304688 14.765625 L 12.769531 14.765625 L 12.769531 19.472656 L 19.320312 19.472656 C 19.046875 20.949219 18.214844 22.332031 16.921875 23.164062 L 16.921875 26.207031 L 20.890625 26.207031 C 23.199219 24.085938 24.488281 20.949219 24.488281 17.257812 Z M 24.488281 17.257812 " fill-opacity="1" fill-rule="nonzero"/><path fill="#34a853" d="M 12.769531 29.160156 C 16.09375 29.160156 18.859375 28.054688 20.890625 26.207031 L 16.921875 23.164062 C 15.816406 23.902344 14.429688 24.363281 12.769531 24.363281 C 9.632812 24.363281 6.863281 22.242188 5.941406 19.289062 L 1.882812 19.289062 L 1.882812 22.425781 C 4.003906 26.578125 8.15625 29.160156 12.769531 29.160156 Z M 12.769531 29.160156 " fill-opacity="1" fill-rule="nonzero"/><g clip-path="url(#4e4576e0a5)"><path fill="#fbbc04" d="M 5.941406 19.289062 C 5.390625 17.8125 5.390625 16.148438 5.941406 14.582031 L 5.941406 11.445312 L 1.882812 11.445312 C 0.128906 14.859375 0.128906 18.917969 1.882812 22.425781 Z M 5.941406 19.289062 " fill-opacity="1" fill-rule="nonzero"/></g><path fill="#ea4335" d="M 12.769531 9.597656 C 14.523438 9.597656 16.183594 10.246094 17.476562 11.445312 L 20.984375 7.9375 C 18.769531 5.90625 15.816406 4.707031 12.863281 4.800781 C 8.25 4.800781 4.003906 7.382812 1.976562 11.535156 L 6.035156 14.675781 C 6.863281 11.722656 9.632812 9.597656 12.769531 9.597656 Z M 12.769531 9.597656 " fill-opacity="1" fill-rule="nonzero"/></svg>