<svg xmlns="http://www.w3.org/2000/svg" xmlns:xlink="http://www.w3.org/1999/xlink" width="230" zoomAndPan="magnify" viewBox="0 0 172.5 52.499999" height="70" preserveAspectRatio="xMidYMid meet" version="1.0"><defs><clipPath id="39a71e67c7"><path d="M 0.566406 3.324219 L 33 3.324219 L 33 41 L 0.566406 41 Z M 0.566406 3.324219 " clip-rule="nonzero"/></clipPath><clipPath id="36acffcf93"><path d="M 65 15 L 96 15 L 96 48.640625 L 65 48.640625 Z M 65 15 " clip-rule="nonzero"/></clipPath><clipPath id="e74574111d"><path d="M 95 3.324219 L 128 3.324219 L 128 41 L 95 41 Z M 95 3.324219 " clip-rule="nonzero"/></clipPath><clipPath id="edafe302e9"><path d="M 157 3.324219 L 171.4375 3.324219 L 171.4375 41 L 157 41 Z M 157 3.324219 " clip-rule="nonzero"/></clipPath></defs><g clip-path="url(#39a71e67c7)"><path fill="#002c8b" d="M 21.328125 3.324219 L 8.089844 3.324219 C 7.183594 3.324219 6.414062 3.984375 6.273438 4.878906 L 0.917969 38.824219 C 0.8125 39.492188 1.332031 40.097656 2.011719 40.097656 L 8.332031 40.097656 C 9.238281 40.097656 10.007812 39.4375 10.148438 38.542969 L 11.59375 29.386719 C 11.730469 28.492188 12.503906 27.832031 13.40625 27.832031 L 17.597656 27.832031 C 26.320312 27.832031 31.351562 23.613281 32.664062 15.25 C 33.257812 11.59375 32.691406 8.71875 30.976562 6.707031 C 29.097656 4.496094 25.757812 3.324219 21.328125 3.324219 Z M 22.855469 15.722656 C 22.132812 20.472656 18.503906 20.472656 14.992188 20.472656 L 12.996094 20.472656 L 14.398438 11.601562 C 14.480469 11.066406 14.945312 10.671875 15.488281 10.671875 L 16.402344 10.671875 C 18.792969 10.671875 21.046875 10.671875 22.214844 12.035156 C 22.90625 12.847656 23.121094 14.054688 22.855469 15.722656 " fill-opacity="1" fill-rule="nonzero"/></g><path fill="#002c8b" d="M 60.898438 15.570312 L 54.558594 15.570312 C 54.019531 15.570312 53.554688 15.964844 53.46875 16.5 L 53.1875 18.273438 L 52.746094 17.632812 C 51.375 15.640625 48.3125 14.976562 45.257812 14.976562 C 38.253906 14.976562 32.269531 20.28125 31.105469 27.722656 C 30.5 31.433594 31.359375 34.984375 33.46875 37.460938 C 35.398438 39.738281 38.164062 40.683594 41.453125 40.683594 C 47.097656 40.683594 50.226562 37.054688 50.226562 37.054688 L 49.941406 38.816406 C 49.835938 39.492188 50.355469 40.09375 51.03125 40.09375 L 56.742188 40.09375 C 57.648438 40.09375 58.414062 39.4375 58.558594 38.542969 L 61.984375 16.84375 C 62.09375 16.175781 61.578125 15.570312 60.898438 15.570312 Z M 52.0625 27.910156 C 51.449219 31.53125 48.578125 33.960938 44.910156 33.960938 C 43.070312 33.960938 41.597656 33.371094 40.652344 32.253906 C 39.71875 31.140625 39.359375 29.558594 39.660156 27.796875 C 40.230469 24.207031 43.152344 21.695312 46.761719 21.695312 C 48.5625 21.695312 50.027344 22.296875 50.992188 23.421875 C 51.957031 24.5625 52.339844 26.15625 52.0625 27.910156 " fill-opacity="1" fill-rule="nonzero"/><g clip-path="url(#36acffcf93)"><path fill="#002c8b" d="M 94.660156 15.570312 L 88.289062 15.570312 C 87.683594 15.570312 87.109375 15.871094 86.765625 16.378906 L 77.980469 29.320312 L 74.257812 16.882812 C 74.023438 16.105469 73.304688 15.570312 72.492188 15.570312 L 66.230469 15.570312 C 65.46875 15.570312 64.941406 16.3125 65.183594 17.03125 L 72.199219 37.621094 L 65.605469 46.933594 C 65.085938 47.667969 65.609375 48.675781 66.503906 48.675781 L 72.867188 48.675781 C 73.46875 48.675781 74.035156 48.382812 74.378906 47.886719 L 95.566406 17.304688 C 96.074219 16.570312 95.550781 15.570312 94.660156 15.570312 " fill-opacity="1" fill-rule="nonzero"/></g><g clip-path="url(#e74574111d)"><path fill="#469bdb" d="M 115.75 3.324219 L 102.511719 3.324219 C 101.605469 3.324219 100.835938 3.984375 100.695312 4.878906 L 95.339844 38.824219 C 95.234375 39.492188 95.753906 40.097656 96.429688 40.097656 L 103.222656 40.097656 C 103.855469 40.097656 104.394531 39.636719 104.492188 39.007812 L 106.011719 29.386719 C 106.152344 28.492188 106.925781 27.832031 107.828125 27.832031 L 112.015625 27.832031 C 120.738281 27.832031 125.769531 23.613281 127.085938 15.25 C 127.679688 11.59375 127.109375 8.71875 125.394531 6.707031 C 123.515625 4.496094 120.179688 3.324219 115.75 3.324219 Z M 117.277344 15.722656 C 116.554688 20.472656 112.925781 20.472656 109.414062 20.472656 L 107.417969 20.472656 L 108.824219 11.601562 C 108.90625 11.066406 109.367188 10.671875 109.910156 10.671875 L 110.828125 10.671875 C 113.214844 10.671875 115.472656 10.671875 116.636719 12.035156 C 117.332031 12.847656 117.542969 14.054688 117.277344 15.722656 " fill-opacity="1" fill-rule="nonzero"/></g><path fill="#469bdb" d="M 155.320312 15.570312 L 148.984375 15.570312 C 148.441406 15.570312 147.976562 15.964844 147.894531 16.5 L 147.613281 18.273438 L 147.167969 17.632812 C 145.796875 15.640625 142.738281 14.976562 139.683594 14.976562 C 132.679688 14.976562 126.699219 20.28125 125.53125 27.722656 C 124.929688 31.433594 125.785156 34.984375 127.894531 37.460938 C 129.828125 39.738281 132.589844 40.683594 135.878906 40.683594 C 141.519531 40.683594 144.652344 37.054688 144.652344 37.054688 L 144.367188 38.816406 C 144.261719 39.492188 144.78125 40.09375 145.460938 40.09375 L 151.167969 40.09375 C 152.074219 40.09375 152.84375 39.4375 152.984375 38.542969 L 156.414062 16.84375 C 156.515625 16.175781 156 15.570312 155.320312 15.570312 Z M 146.484375 27.910156 C 145.875 31.53125 142.996094 33.960938 139.332031 33.960938 C 137.492188 33.960938 136.019531 33.371094 135.074219 32.253906 C 134.136719 31.140625 133.785156 29.558594 134.078125 27.796875 C 134.652344 24.207031 137.574219 21.695312 141.183594 21.695312 C 142.984375 21.695312 144.445312 22.296875 145.410156 23.421875 C 146.378906 24.5625 146.761719 26.15625 146.484375 27.910156 " fill-opacity="1" fill-rule="nonzero"/><g clip-path="url(#edafe302e9)"><path fill="#469bdb" d="M 162.792969 4.257812 L 157.359375 38.824219 C 157.253906 39.492188 157.769531 40.097656 158.445312 40.097656 L 163.910156 40.097656 C 164.816406 40.097656 165.585938 39.4375 165.726562 38.542969 L 171.085938 4.601562 C 171.191406 3.929688 170.671875 3.324219 169.996094 3.324219 L 163.878906 3.324219 C 163.339844 3.324219 162.875 3.722656 162.792969 4.257812 " fill-opacity="1" fill-rule="nonzero"/></g></svg>