<svg xmlns="http://www.w3.org/2000/svg" xmlns:xlink="http://www.w3.org/1999/xlink" width="230" zoomAndPan="magnify" viewBox="0 0 172.5 52.499999" height="70" preserveAspectRatio="xMidYMid meet" version="1.0"><defs><clipPath id="8895431fca"><path d="M 97 0 L 168.179688 0 L 168.179688 52 L 97 52 Z M 97 0 " clip-rule="nonzero"/></clipPath><clipPath id="dca300475d"><path d="M 3.996094 8 L 94 8 L 94 52 L 3.996094 52 Z M 3.996094 8 " clip-rule="nonzero"/></clipPath></defs><g clip-path="url(#8895431fca)"><path fill="#00baf2" d="M 167.460938 15.457031 C 165.964844 11.199219 161.90625 8.144531 157.15625 8.144531 L 157.050781 8.144531 C 153.953125 8.144531 151.164062 9.4375 149.175781 11.507812 C 147.183594 9.4375 144.394531 8.144531 141.300781 8.144531 L 141.207031 8.144531 C 138.484375 8.144531 135.988281 9.144531 134.078125 10.785156 L 134.078125 9.957031 C 134.011719 9.117188 133.332031 8.464844 132.476562 8.464844 L 125.164062 8.464844 C 124.269531 8.464844 123.546875 9.183594 123.546875 10.078125 L 123.546875 49.773438 C 123.546875 50.667969 124.269531 51.390625 125.164062 51.390625 L 132.476562 51.390625 C 133.289062 51.390625 133.972656 50.773438 134.066406 50 L 134.066406 21.503906 C 134.066406 21.398438 134.066406 21.316406 134.078125 21.222656 C 134.199219 19.957031 135.132812 18.902344 136.601562 18.78125 L 137.949219 18.78125 C 138.5625 18.835938 139.082031 19.046875 139.484375 19.382812 C 140.125 19.890625 140.472656 20.664062 140.472656 21.519531 L 140.5 49.867188 C 140.5 50.761719 141.21875 51.496094 142.113281 51.496094 L 149.425781 51.496094 C 150.296875 51.496094 150.988281 50.816406 151.027344 49.960938 L 151.027344 21.492188 C 151.027344 20.554688 151.457031 19.703125 152.21875 19.207031 C 152.589844 18.96875 153.042969 18.808594 153.566406 18.753906 L 154.914062 18.753906 C 156.5 18.886719 157.449219 20.089844 157.449219 21.492188 L 157.476562 49.8125 C 157.476562 50.707031 158.195312 51.429688 159.089844 51.429688 L 166.40625 51.429688 C 167.257812 51.429688 167.96875 50.761719 168.019531 49.921875 L 168.019531 18.863281 C 167.980469 17.113281 167.753906 16.300781 167.460938 15.457031 Z M 117.96875 8.570312 L 113.789062 8.570312 L 113.789062 1.789062 C 113.789062 1.777344 113.789062 1.777344 113.789062 1.761719 C 113.789062 0.960938 113.136719 0.296875 112.308594 0.296875 C 112.214844 0.296875 112.121094 0.308594 112.027344 0.320312 C 107.398438 1.589844 108.316406 8.011719 99.855469 8.558594 L 99.042969 8.558594 C 98.921875 8.558594 98.800781 8.570312 98.679688 8.597656 L 98.667969 8.597656 L 98.679688 8.597656 C 97.972656 8.769531 97.425781 9.410156 97.425781 10.1875 L 97.425781 17.5 C 97.425781 18.394531 98.148438 19.113281 99.042969 19.113281 L 103.445312 19.113281 L 103.433594 50.109375 C 103.433594 50.988281 104.152344 51.710938 105.035156 51.710938 L 112.269531 51.710938 C 113.148438 51.710938 113.871094 50.988281 113.871094 50.109375 L 113.871094 19.113281 L 117.96875 19.113281 C 118.847656 19.113281 119.582031 18.382812 119.582031 17.5 L 119.582031 10.1875 C 119.582031 9.292969 118.863281 8.570312 117.96875 8.570312 Z M 117.96875 8.570312 " fill-opacity="1" fill-rule="nonzero"/></g><g clip-path="url(#dca300475d)"><path fill="#ffffff" d="M 91.671875 8.570312 L 84.359375 8.570312 C 83.476562 8.570312 82.746094 9.292969 82.746094 10.1875 L 82.746094 25.308594 C 82.730469 26.242188 81.96875 26.988281 81.035156 26.988281 L 77.980469 26.988281 C 77.03125 26.988281 76.257812 26.230469 76.257812 25.28125 L 76.230469 10.1875 C 76.230469 9.292969 75.511719 8.570312 74.617188 8.570312 L 67.300781 8.570312 C 66.40625 8.570312 65.6875 9.292969 65.6875 10.1875 L 65.6875 26.75 C 65.6875 33.035156 70.171875 37.535156 76.472656 37.535156 C 76.472656 37.535156 81.195312 37.535156 81.34375 37.5625 C 82.195312 37.65625 82.851562 38.375 82.851562 39.257812 C 82.851562 40.125 82.210938 40.84375 81.355469 40.953125 C 81.316406 40.953125 81.277344 40.964844 81.234375 40.976562 L 70.542969 41.019531 C 69.652344 41.019531 68.929688 41.738281 68.929688 42.632812 L 68.929688 49.933594 C 68.929688 50.828125 69.652344 51.550781 70.542969 51.550781 L 82.492188 51.550781 C 88.789062 51.550781 93.273438 47.066406 93.273438 40.777344 L 93.273438 10.1875 C 93.289062 9.292969 92.566406 8.570312 91.671875 8.570312 Z M 50.082031 8.609375 L 39.9375 8.609375 C 39.046875 8.609375 38.3125 9.292969 38.3125 10.117188 L 38.3125 12.960938 C 38.3125 12.976562 38.3125 13.003906 38.3125 13.015625 C 38.3125 13.042969 38.3125 13.054688 38.3125 13.082031 L 38.3125 16.980469 C 38.3125 17.859375 39.085938 18.59375 40.03125 18.59375 L 49.695312 18.59375 C 50.457031 18.714844 51.058594 19.273438 51.152344 20.144531 L 51.152344 21.089844 C 51.070312 21.917969 50.46875 22.519531 49.734375 22.585938 L 44.957031 22.585938 C 38.589844 22.585938 34.066406 26.816406 34.066406 32.742188 L 34.066406 41.246094 C 34.066406 47.144531 37.964844 51.335938 44.277344 51.335938 L 57.53125 51.335938 C 59.90625 51.335938 61.84375 49.535156 61.84375 47.316406 L 61.84375 19.582031 C 61.84375 12.855469 58.371094 8.609375 50.082031 8.609375 Z M 51.246094 39.121094 L 51.246094 40.269531 C 51.246094 40.363281 51.230469 40.457031 51.21875 40.539062 C 51.203125 40.617188 51.179688 40.699219 51.152344 40.777344 C 50.925781 41.417969 50.285156 41.886719 49.523438 41.886719 L 46.480469 41.886719 C 45.53125 41.886719 44.757812 41.164062 44.757812 40.269531 L 44.757812 38.894531 C 44.757812 38.882812 44.757812 38.855469 44.757812 38.84375 L 44.757812 34.011719 C 44.757812 33.128906 45.53125 32.410156 46.480469 32.410156 L 49.523438 32.410156 C 50.46875 32.410156 51.246094 33.128906 51.246094 34.023438 Z M 21.558594 8.558594 L 5.582031 8.558594 C 4.703125 8.558594 3.996094 9.277344 3.996094 10.144531 L 3.996094 17.3125 C 3.996094 17.328125 3.996094 17.339844 3.996094 17.351562 C 3.996094 17.394531 3.996094 17.421875 3.996094 17.445312 L 3.996094 49.867188 C 3.996094 50.75 4.648438 51.46875 5.476562 51.484375 L 12.925781 51.484375 C 13.820312 51.484375 14.539062 50.761719 14.539062 49.867188 L 14.566406 38.761719 L 21.558594 38.761719 C 27.40625 38.761719 31.492188 34.703125 31.492188 28.820312 L 31.492188 18.515625 C 31.492188 12.640625 27.40625 8.558594 21.558594 8.558594 Z M 20.917969 21.957031 L 20.917969 26.46875 C 20.917969 27.417969 20.160156 28.191406 19.210938 28.191406 L 14.578125 28.191406 L 14.578125 19.15625 L 19.210938 19.15625 C 20.160156 19.15625 20.917969 19.914062 20.917969 20.863281 Z M 20.917969 21.957031 " fill-opacity="1" fill-rule="nonzero"/></g></svg>