<svg xmlns="http://www.w3.org/2000/svg" xmlns:xlink="http://www.w3.org/1999/xlink" width="230" zoomAndPan="magnify" viewBox="0 0 172.5 52.499999" height="70" preserveAspectRatio="xMidYMid meet" version="1.0"><defs><clipPath id="4a9a560ec5"><path d="M 57 17 L 171.4375 17 L 171.4375 42 L 57 42 Z M 57 17 " clip-rule="nonzero"/></clipPath><clipPath id="479e193a18"><path d="M 0.566406 2.796875 L 47 2.796875 L 47 48.859375 L 0.566406 48.859375 Z M 0.566406 2.796875 " clip-rule="nonzero"/></clipPath></defs><g clip-path="url(#4a9a560ec5)"><path fill="#5f259f" d="M 117.898438 38.988281 L 117.898438 30.625 C 117.898438 28.566406 117.121094 27.539062 115.179688 27.539062 C 114.398438 27.539062 113.492188 27.667969 112.976562 27.796875 L 112.976562 40.019531 C 112.976562 40.40625 112.585938 40.789062 112.195312 40.789062 L 109.214844 40.789062 C 108.828125 40.789062 108.4375 40.40625 108.4375 40.019531 L 108.4375 25.738281 C 108.4375 25.222656 108.828125 24.835938 109.214844 24.707031 C 111.160156 24.066406 113.105469 23.679688 115.175781 23.679688 C 119.84375 23.679688 122.433594 26.121094 122.433594 30.625 L 122.433594 40.148438 C 122.433594 40.535156 122.046875 40.917969 121.65625 40.917969 L 119.84375 40.917969 C 118.675781 40.917969 117.898438 40.019531 117.898438 38.988281 Z M 129.5625 33.972656 L 129.433594 35.128906 C 129.433594 36.671875 130.472656 37.574219 132.15625 37.574219 C 133.449219 37.574219 134.617188 37.1875 135.914062 36.542969 C 136.042969 36.542969 136.171875 36.414062 136.304688 36.414062 C 136.5625 36.414062 136.691406 36.542969 136.820312 36.671875 C 136.953125 36.800781 137.210938 37.1875 137.210938 37.1875 C 137.46875 37.574219 137.730469 38.089844 137.730469 38.472656 C 137.730469 39.117188 137.339844 39.761719 136.824219 40.019531 C 135.398438 40.789062 133.710938 41.175781 131.898438 41.175781 C 129.824219 41.175781 128.140625 40.660156 126.84375 39.632812 C 125.546875 38.472656 124.769531 36.929688 124.769531 35 L 124.769531 29.984375 C 124.769531 25.992188 127.363281 23.550781 131.769531 23.550781 C 136.046875 23.550781 138.507812 25.867188 138.507812 29.984375 L 138.507812 33.070312 C 138.507812 33.457031 138.117188 33.84375 137.730469 33.84375 L 129.566406 33.84375 Z M 129.433594 31.140625 L 134.359375 31.140625 L 134.359375 29.855469 C 134.359375 28.308594 133.453125 27.28125 131.894531 27.28125 C 130.339844 27.28125 129.433594 28.179688 129.433594 29.855469 Z M 162.484375 33.972656 L 162.351562 35.128906 C 162.351562 36.671875 163.390625 37.574219 165.074219 37.574219 C 166.371094 37.574219 167.535156 37.1875 168.832031 36.542969 C 168.964844 36.542969 169.09375 36.414062 169.222656 36.414062 C 169.480469 36.414062 169.609375 36.542969 169.742188 36.671875 C 169.871094 36.800781 170.128906 37.1875 170.128906 37.1875 C 170.386719 37.574219 170.648438 38.089844 170.648438 38.472656 C 170.648438 39.117188 170.257812 39.761719 169.742188 40.019531 C 168.316406 40.789062 166.632812 41.175781 164.816406 41.175781 C 162.742188 41.175781 161.058594 40.660156 159.761719 39.632812 C 158.464844 38.472656 157.6875 36.929688 157.6875 35 L 157.6875 29.984375 C 157.6875 25.992188 160.28125 23.550781 164.6875 23.550781 C 168.964844 23.550781 171.425781 25.867188 171.425781 29.984375 L 171.425781 33.070312 C 171.425781 33.457031 171.039062 33.84375 170.648438 33.84375 L 162.484375 33.84375 Z M 162.351562 31.140625 L 167.277344 31.140625 L 167.277344 29.855469 C 167.277344 28.308594 166.371094 27.28125 164.816406 27.28125 C 163.261719 27.28125 162.351562 28.179688 162.351562 29.855469 Z M 86.148438 40.917969 L 87.960938 40.917969 C 88.351562 40.917969 88.738281 40.53125 88.738281 40.148438 L 88.738281 30.625 C 88.738281 26.25 86.40625 23.679688 82.519531 23.679688 C 81.351562 23.679688 80.054688 23.933594 79.277344 24.191406 L 79.277344 19.433594 C 79.277344 18.402344 78.371094 17.5 77.332031 17.5 L 75.519531 17.5 C 75.128906 17.5 74.742188 17.886719 74.742188 18.273438 L 74.742188 40.148438 C 74.742188 40.53125 75.128906 40.917969 75.519531 40.917969 L 78.5 40.917969 C 78.890625 40.917969 79.277344 40.53125 79.277344 40.148438 L 79.277344 28.050781 C 79.925781 27.796875 80.832031 27.667969 81.480469 27.667969 C 83.425781 27.667969 84.203125 28.566406 84.203125 30.753906 L 84.203125 39.117188 C 84.332031 40.019531 85.109375 40.917969 86.148438 40.917969 Z M 105.71875 30.109375 L 105.71875 34.871094 C 105.71875 38.859375 102.996094 41.304688 98.460938 41.304688 C 94.050781 41.304688 91.203125 38.859375 91.203125 34.871094 L 91.203125 30.109375 C 91.203125 26.121094 93.921875 23.679688 98.460938 23.679688 C 102.996094 23.679688 105.71875 26.121094 105.71875 30.109375 Z M 101.179688 30.109375 C 101.179688 28.566406 100.273438 27.539062 98.589844 27.539062 C 96.902344 27.539062 95.996094 28.4375 95.996094 30.109375 L 95.996094 34.871094 C 95.996094 36.414062 96.902344 37.316406 98.589844 37.316406 C 100.273438 37.316406 101.179688 36.414062 101.179688 34.871094 Z M 72.28125 27.925781 C 72.28125 32.042969 69.167969 34.871094 65.023438 34.871094 C 63.984375 34.871094 63.078125 34.742188 62.171875 34.355469 L 62.171875 40.148438 C 62.171875 40.535156 61.78125 40.917969 61.394531 40.917969 L 58.414062 40.917969 C 58.023438 40.917969 57.632812 40.535156 57.632812 40.148438 L 57.632812 19.691406 C 57.632812 19.175781 58.023438 18.789062 58.414062 18.660156 C 60.355469 18.015625 62.300781 17.632812 64.375 17.632812 C 69.039062 17.632812 72.277344 20.460938 72.277344 24.835938 C 72.28125 24.835938 72.28125 27.925781 72.28125 27.925781 Z M 67.613281 24.578125 C 67.613281 22.519531 66.1875 21.492188 64.246094 21.492188 C 63.078125 21.492188 62.300781 21.878906 62.300781 21.878906 L 62.300781 30.367188 C 63.078125 30.753906 63.464844 30.882812 64.375 30.882812 C 66.316406 30.882812 67.742188 29.726562 67.742188 27.796875 L 67.742188 24.578125 Z M 156.003906 27.925781 C 156.003906 32.042969 152.894531 34.871094 148.746094 34.871094 C 147.707031 34.871094 146.800781 34.742188 145.894531 34.355469 L 145.894531 40.148438 C 145.894531 40.535156 145.503906 40.917969 145.117188 40.917969 L 142.136719 40.917969 C 141.746094 40.917969 141.359375 40.535156 141.359375 40.148438 L 141.359375 19.691406 C 141.359375 19.175781 141.746094 18.789062 142.136719 18.660156 C 144.078125 18.015625 146.023438 17.632812 148.097656 17.632812 C 152.761719 17.632812 156.003906 20.460938 156.003906 24.835938 C 156.003906 24.835938 156.003906 27.925781 156.003906 27.925781 Z M 151.335938 24.578125 C 151.335938 22.519531 149.910156 21.492188 147.96875 21.492188 C 146.800781 21.492188 146.023438 21.878906 146.023438 21.878906 L 146.023438 30.367188 C 146.800781 30.753906 147.191406 30.882812 148.097656 30.882812 C 150.039062 30.882812 151.464844 29.726562 151.464844 27.796875 L 151.464844 24.578125 Z M 151.335938 24.578125 " fill-opacity="1" fill-rule="nonzero"/></g><g clip-path="url(#479e193a18)"><path fill="#5f259f" d="M 46.976562 25.828125 C 46.976562 26.582031 46.9375 27.335938 46.863281 28.085938 C 46.789062 28.835938 46.679688 29.582031 46.53125 30.320312 C 46.382812 31.0625 46.199219 31.792969 45.976562 32.515625 C 45.757812 33.234375 45.5 33.945312 45.210938 34.640625 C 44.917969 35.339844 44.59375 36.019531 44.238281 36.683594 C 43.878906 37.351562 43.488281 37.996094 43.066406 38.625 C 42.644531 39.25 42.191406 39.855469 41.710938 40.4375 C 41.226562 41.023438 40.71875 41.582031 40.179688 42.113281 C 39.644531 42.648438 39.082031 43.152344 38.496094 43.632812 C 37.90625 44.109375 37.296875 44.558594 36.664062 44.976562 C 36.035156 45.398438 35.382812 45.785156 34.714844 46.140625 C 34.042969 46.496094 33.355469 46.816406 32.65625 47.105469 C 31.953125 47.394531 31.238281 47.648438 30.511719 47.867188 C 29.785156 48.085938 29.046875 48.269531 28.304688 48.417969 C 27.558594 48.5625 26.808594 48.675781 26.050781 48.75 C 25.292969 48.820312 24.535156 48.859375 23.777344 48.859375 C 23.015625 48.859375 22.257812 48.820312 21.503906 48.75 C 20.746094 48.675781 19.996094 48.5625 19.25 48.417969 C 18.507812 48.269531 17.769531 48.085938 17.042969 47.867188 C 16.316406 47.648438 15.601562 47.394531 14.898438 47.105469 C 14.195312 46.816406 13.511719 46.496094 12.839844 46.140625 C 12.171875 45.785156 11.519531 45.398438 10.886719 44.976562 C 10.257812 44.558594 9.648438 44.109375 9.058594 43.632812 C 8.472656 43.152344 7.910156 42.648438 7.371094 42.113281 C 6.835938 41.582031 6.324219 41.023438 5.84375 40.4375 C 5.363281 39.855469 4.910156 39.25 4.488281 38.625 C 4.066406 37.996094 3.675781 37.351562 3.316406 36.683594 C 2.960938 36.019531 2.632812 35.339844 2.34375 34.640625 C 2.054688 33.945312 1.796875 33.234375 1.578125 32.515625 C 1.355469 31.792969 1.171875 31.0625 1.023438 30.320312 C 0.875 29.582031 0.765625 28.835938 0.691406 28.085938 C 0.617188 27.335938 0.578125 26.582031 0.578125 25.828125 C 0.578125 25.074219 0.617188 24.320312 0.691406 23.570312 C 0.765625 22.820312 0.875 22.074219 1.023438 21.335938 C 1.171875 20.59375 1.355469 19.863281 1.578125 19.144531 C 1.796875 18.421875 2.054688 17.710938 2.34375 17.015625 C 2.632812 16.316406 2.960938 15.636719 3.316406 14.972656 C 3.675781 14.308594 4.066406 13.660156 4.488281 13.035156 C 4.910156 12.40625 5.363281 11.800781 5.84375 11.21875 C 6.324219 10.636719 6.835938 10.078125 7.371094 9.542969 C 7.910156 9.011719 8.472656 8.503906 9.058594 8.027344 C 9.648438 7.546875 10.257812 7.097656 10.886719 6.679688 C 11.519531 6.261719 12.171875 5.871094 12.839844 5.515625 C 13.511719 5.160156 14.195312 4.839844 14.898438 4.550781 C 15.601562 4.261719 16.316406 4.007812 17.042969 3.789062 C 17.769531 3.570312 18.507812 3.386719 19.25 3.242188 C 19.996094 3.09375 20.746094 2.984375 21.503906 2.910156 C 22.257812 2.835938 23.015625 2.796875 23.777344 2.796875 C 24.535156 2.796875 25.292969 2.835938 26.050781 2.910156 C 26.808594 2.984375 27.558594 3.09375 28.304688 3.242188 C 29.046875 3.386719 29.785156 3.570312 30.511719 3.789062 C 31.238281 4.007812 31.953125 4.261719 32.65625 4.550781 C 33.355469 4.839844 34.042969 5.160156 34.714844 5.515625 C 35.382812 5.871094 36.035156 6.261719 36.664062 6.679688 C 37.296875 7.097656 37.90625 7.546875 38.496094 8.027344 C 39.082031 8.503906 39.644531 9.011719 40.179688 9.542969 C 40.71875 10.078125 41.226562 10.636719 41.710938 11.21875 C 42.191406 11.800781 42.644531 12.40625 43.066406 13.035156 C 43.488281 13.660156 43.878906 14.308594 44.238281 14.972656 C 44.59375 15.636719 44.917969 16.316406 45.210938 17.015625 C 45.5 17.710938 45.757812 18.421875 45.976562 19.144531 C 46.199219 19.863281 46.382812 20.59375 46.53125 21.335938 C 46.679688 22.074219 46.789062 22.820312 46.863281 23.570312 C 46.9375 24.320312 46.976562 25.074219 46.976562 25.828125 Z M 46.976562 25.828125 " fill-opacity="1" fill-rule="nonzero"/></g><path fill="#ffffff" d="M 34.304688 19.816406 C 34.304688 18.917969 33.527344 18.144531 32.621094 18.144531 L 29.511719 18.144531 L 22.382812 10.039062 C 21.734375 9.269531 20.699219 9.011719 19.664062 9.269531 L 17.199219 10.039062 C 16.8125 10.167969 16.679688 10.683594 16.941406 10.941406 L 24.714844 18.273438 L 12.921875 18.273438 C 12.53125 18.273438 12.273438 18.53125 12.273438 18.917969 L 12.273438 20.203125 C 12.273438 21.105469 13.050781 21.875 13.957031 21.875 L 15.773438 21.875 L 15.773438 28.050781 C 15.773438 32.683594 18.234375 35.386719 22.382812 35.386719 C 23.679688 35.386719 24.714844 35.257812 26.011719 34.742188 L 26.011719 38.859375 C 26.011719 40.019531 26.917969 40.917969 28.085938 40.917969 L 29.898438 40.917969 C 30.289062 40.917969 30.675781 40.535156 30.675781 40.148438 L 30.675781 21.75 L 33.660156 21.75 C 34.046875 21.75 34.304688 21.492188 34.304688 21.105469 Z M 26.011719 30.882812 C 25.234375 31.269531 24.199219 31.398438 23.417969 31.398438 C 21.347656 31.398438 20.308594 30.367188 20.308594 28.050781 L 20.308594 21.875 L 26.011719 21.875 Z M 26.011719 30.882812 " fill-opacity="1" fill-rule="nonzero"/></svg>