<svg xmlns="http://www.w3.org/2000/svg" xmlns:xlink="http://www.w3.org/1999/xlink" width="230" zoomAndPan="magnify" viewBox="0 0 172.5 52.499999" height="70" preserveAspectRatio="xMidYMid meet" version="1.0"><defs><clipPath id="e25d88d9f4"><path d="M 57 14 L 171.4375 14 L 171.4375 39 L 57 39 Z M 57 14 " clip-rule="nonzero"/></clipPath><clipPath id="b14122d5fc"><path d="M 0.566406 0 L 47 0 L 47 46.0625 L 0.566406 46.0625 Z M 0.566406 0 " clip-rule="nonzero"/></clipPath></defs><g clip-path="url(#e25d88d9f4)"><path fill="#8c52ff" d="M 117.898438 36.457031 L 117.898438 28.03125 C 117.898438 25.957031 117.121094 24.921875 115.179688 24.921875 C 114.398438 24.921875 113.492188 25.050781 112.976562 25.179688 L 112.976562 37.492188 C 112.976562 37.882812 112.585938 38.269531 112.195312 38.269531 L 109.214844 38.269531 C 108.828125 38.269531 108.4375 37.882812 108.4375 37.492188 L 108.4375 23.105469 C 108.4375 22.589844 108.828125 22.199219 109.214844 22.070312 C 111.160156 21.421875 113.105469 21.035156 115.175781 21.035156 C 119.84375 21.035156 122.433594 23.496094 122.433594 28.03125 L 122.433594 37.621094 C 122.433594 38.011719 122.046875 38.398438 121.65625 38.398438 L 119.84375 38.398438 C 118.675781 38.398438 117.898438 37.492188 117.898438 36.457031 Z M 129.5625 31.402344 L 129.433594 32.566406 C 129.433594 34.125 130.472656 35.03125 132.15625 35.03125 C 133.449219 35.03125 134.617188 34.640625 135.914062 33.992188 C 136.042969 33.992188 136.171875 33.863281 136.304688 33.863281 C 136.5625 33.863281 136.691406 33.992188 136.820312 34.121094 C 136.953125 34.253906 137.210938 34.640625 137.210938 34.640625 C 137.46875 35.03125 137.730469 35.546875 137.730469 35.9375 C 137.730469 36.585938 137.339844 37.234375 136.824219 37.492188 C 135.398438 38.269531 133.710938 38.660156 131.898438 38.660156 C 129.824219 38.660156 128.140625 38.140625 126.84375 37.105469 C 125.546875 35.9375 124.769531 34.382812 124.769531 32.4375 L 124.769531 27.382812 C 124.769531 23.367188 127.363281 20.902344 131.769531 20.902344 C 136.046875 20.902344 138.507812 23.238281 138.507812 27.382812 L 138.507812 30.492188 C 138.507812 30.882812 138.117188 31.269531 137.730469 31.269531 L 129.566406 31.269531 Z M 129.433594 28.550781 L 134.359375 28.550781 L 134.359375 27.253906 C 134.359375 25.699219 133.453125 24.664062 131.894531 24.664062 C 130.339844 24.664062 129.433594 25.570312 129.433594 27.253906 Z M 162.484375 31.402344 L 162.351562 32.566406 C 162.351562 34.125 163.390625 35.03125 165.074219 35.03125 C 166.371094 35.03125 167.535156 34.640625 168.832031 33.992188 C 168.964844 33.992188 169.09375 33.863281 169.222656 33.863281 C 169.480469 33.863281 169.609375 33.992188 169.742188 34.121094 C 169.871094 34.253906 170.128906 34.640625 170.128906 34.640625 C 170.386719 35.03125 170.648438 35.546875 170.648438 35.9375 C 170.648438 36.585938 170.257812 37.234375 169.742188 37.492188 C 168.316406 38.269531 166.632812 38.660156 164.816406 38.660156 C 162.742188 38.660156 161.058594 38.140625 159.761719 37.105469 C 158.464844 35.9375 157.6875 34.382812 157.6875 32.4375 L 157.6875 27.382812 C 157.6875 23.367188 160.28125 20.902344 164.6875 20.902344 C 168.964844 20.902344 171.425781 23.238281 171.425781 27.382812 L 171.425781 30.492188 C 171.425781 30.882812 171.039062 31.269531 170.648438 31.269531 L 162.484375 31.269531 Z M 162.351562 28.550781 L 167.277344 28.550781 L 167.277344 27.253906 C 167.277344 25.699219 166.371094 24.664062 164.816406 24.664062 C 163.261719 24.664062 162.351562 25.570312 162.351562 27.253906 Z M 86.148438 38.398438 L 87.960938 38.398438 C 88.351562 38.398438 88.738281 38.011719 88.738281 37.621094 L 88.738281 28.03125 C 88.738281 23.625 86.40625 21.03125 82.519531 21.03125 C 81.351562 21.03125 80.054688 21.292969 79.277344 21.550781 L 79.277344 16.753906 C 79.277344 15.71875 78.371094 14.8125 77.332031 14.8125 L 75.519531 14.8125 C 75.128906 14.8125 74.742188 15.199219 74.742188 15.589844 L 74.742188 37.621094 C 74.742188 38.011719 75.128906 38.398438 75.519531 38.398438 L 78.5 38.398438 C 78.890625 38.398438 79.277344 38.011719 79.277344 37.621094 L 79.277344 25.4375 C 79.925781 25.179688 80.832031 25.050781 81.480469 25.050781 C 83.425781 25.050781 84.203125 25.957031 84.203125 28.160156 L 84.203125 36.585938 C 84.332031 37.492188 85.109375 38.398438 86.148438 38.398438 Z M 105.71875 27.511719 L 105.71875 32.308594 C 105.71875 36.324219 102.996094 38.789062 98.460938 38.789062 C 94.050781 38.789062 91.203125 36.324219 91.203125 32.308594 L 91.203125 27.511719 C 91.203125 23.496094 93.921875 21.03125 98.460938 21.03125 C 102.996094 21.03125 105.71875 23.496094 105.71875 27.511719 Z M 101.179688 27.511719 C 101.179688 25.957031 100.273438 24.921875 98.589844 24.921875 C 96.902344 24.921875 95.996094 25.828125 95.996094 27.511719 L 95.996094 32.308594 C 95.996094 33.863281 96.902344 34.769531 98.589844 34.769531 C 100.273438 34.769531 101.179688 33.863281 101.179688 32.308594 Z M 72.28125 25.308594 C 72.28125 29.457031 69.167969 32.308594 65.023438 32.308594 C 63.984375 32.308594 63.078125 32.179688 62.171875 31.789062 L 62.171875 37.621094 C 62.171875 38.011719 61.78125 38.398438 61.394531 38.398438 L 58.414062 38.398438 C 58.023438 38.398438 57.632812 38.011719 57.632812 37.621094 L 57.632812 17.015625 C 57.632812 16.496094 58.023438 16.109375 58.414062 15.980469 C 60.355469 15.332031 62.300781 14.941406 64.375 14.941406 C 69.039062 14.941406 72.277344 17.792969 72.277344 22.199219 C 72.28125 22.199219 72.28125 25.308594 72.28125 25.308594 Z M 67.613281 21.941406 C 67.613281 19.867188 66.1875 18.828125 64.246094 18.828125 C 63.078125 18.828125 62.300781 19.21875 62.300781 19.21875 L 62.300781 27.773438 C 63.078125 28.160156 63.464844 28.292969 64.375 28.292969 C 66.316406 28.292969 67.742188 27.125 67.742188 25.179688 L 67.742188 21.941406 Z M 156.003906 25.308594 C 156.003906 29.457031 152.894531 32.308594 148.746094 32.308594 C 147.707031 32.308594 146.800781 32.179688 145.894531 31.789062 L 145.894531 37.621094 C 145.894531 38.011719 145.503906 38.398438 145.117188 38.398438 L 142.136719 38.398438 C 141.746094 38.398438 141.359375 38.011719 141.359375 37.621094 L 141.359375 17.015625 C 141.359375 16.496094 141.746094 16.109375 142.136719 15.980469 C 144.078125 15.332031 146.023438 14.941406 148.097656 14.941406 C 152.761719 14.941406 156.003906 17.792969 156.003906 22.199219 C 156.003906 22.199219 156.003906 25.308594 156.003906 25.308594 Z M 151.335938 21.941406 C 151.335938 19.867188 149.910156 18.828125 147.96875 18.828125 C 146.800781 18.828125 146.023438 19.21875 146.023438 19.21875 L 146.023438 27.773438 C 146.800781 28.160156 147.191406 28.292969 148.097656 28.292969 C 150.039062 28.292969 151.464844 27.125 151.464844 25.179688 L 151.464844 21.941406 Z M 151.335938 21.941406 " fill-opacity="1" fill-rule="nonzero"/></g><g clip-path="url(#b14122d5fc)"><path fill="#8c52ff" d="M 46.976562 23.199219 C 46.976562 23.957031 46.9375 24.714844 46.863281 25.472656 C 46.789062 26.230469 46.679688 26.980469 46.53125 27.726562 C 46.382812 28.46875 46.199219 29.207031 45.976562 29.933594 C 45.757812 30.660156 45.5 31.375 45.210938 32.078125 C 44.917969 32.777344 44.59375 33.464844 44.238281 34.136719 C 43.878906 34.804688 43.488281 35.457031 43.066406 36.085938 C 42.644531 36.71875 42.191406 37.328125 41.710938 37.917969 C 41.226562 38.503906 40.71875 39.066406 40.179688 39.601562 C 39.644531 40.140625 39.082031 40.648438 38.496094 41.132812 C 37.90625 41.613281 37.296875 42.066406 36.664062 42.488281 C 36.035156 42.910156 35.382812 43.300781 34.714844 43.660156 C 34.042969 44.015625 33.355469 44.339844 32.65625 44.632812 C 31.953125 44.921875 31.238281 45.179688 30.511719 45.398438 C 29.785156 45.621094 29.046875 45.804688 28.304688 45.953125 C 27.558594 46.101562 26.808594 46.210938 26.050781 46.285156 C 25.292969 46.359375 24.535156 46.398438 23.777344 46.398438 C 23.015625 46.398438 22.257812 46.359375 21.503906 46.285156 C 20.746094 46.210938 19.996094 46.101562 19.25 45.953125 C 18.507812 45.804688 17.769531 45.621094 17.042969 45.398438 C 16.316406 45.179688 15.601562 44.921875 14.898438 44.632812 C 14.195312 44.339844 13.511719 44.015625 12.839844 43.660156 C 12.171875 43.300781 11.519531 42.910156 10.886719 42.488281 C 10.257812 42.066406 9.648438 41.613281 9.058594 41.132812 C 8.472656 40.648438 7.910156 40.140625 7.371094 39.601562 C 6.835938 39.066406 6.324219 38.503906 5.84375 37.917969 C 5.363281 37.328125 4.910156 36.71875 4.488281 36.085938 C 4.066406 35.457031 3.675781 34.804688 3.316406 34.136719 C 2.960938 33.464844 2.632812 32.777344 2.34375 32.078125 C 2.054688 31.375 1.796875 30.660156 1.578125 29.933594 C 1.355469 29.207031 1.171875 28.46875 1.023438 27.726562 C 0.875 26.980469 0.765625 26.230469 0.691406 25.472656 C 0.617188 24.714844 0.578125 23.957031 0.578125 23.199219 C 0.578125 22.4375 0.617188 21.679688 0.691406 20.925781 C 0.765625 20.167969 0.875 19.417969 1.023438 18.671875 C 1.171875 17.929688 1.355469 17.191406 1.578125 16.464844 C 1.796875 15.738281 2.054688 15.023438 2.34375 14.320312 C 2.632812 13.621094 2.960938 12.933594 3.316406 12.261719 C 3.675781 11.59375 4.066406 10.941406 4.488281 10.308594 C 4.910156 9.679688 5.363281 9.070312 5.84375 8.480469 C 6.324219 7.894531 6.835938 7.332031 7.371094 6.792969 C 7.910156 6.257812 8.472656 5.746094 9.058594 5.265625 C 9.648438 4.785156 10.257812 4.332031 10.886719 3.910156 C 11.519531 3.488281 12.171875 3.097656 12.839844 2.738281 C 13.511719 2.382812 14.195312 2.058594 14.898438 1.765625 C 15.601562 1.476562 16.316406 1.21875 17.042969 1 C 17.769531 0.777344 18.507812 0.59375 19.25 0.445312 C 19.996094 0.296875 20.746094 0.1875 21.503906 0.113281 C 22.257812 0.0390625 23.015625 0 23.777344 0 C 24.535156 0 25.292969 0.0390625 26.050781 0.113281 C 26.808594 0.1875 27.558594 0.296875 28.304688 0.445312 C 29.046875 0.59375 29.785156 0.777344 30.511719 1 C 31.238281 1.21875 31.953125 1.476562 32.65625 1.765625 C 33.355469 2.058594 34.042969 2.382812 34.714844 2.738281 C 35.382812 3.097656 36.035156 3.488281 36.664062 3.910156 C 37.296875 4.332031 37.90625 4.785156 38.496094 5.265625 C 39.082031 5.746094 39.644531 6.257812 40.179688 6.792969 C 40.71875 7.332031 41.226562 7.894531 41.710938 8.480469 C 42.191406 9.070312 42.644531 9.679688 43.066406 10.308594 C 43.488281 10.941406 43.878906 11.59375 44.238281 12.261719 C 44.59375 12.933594 44.917969 13.621094 45.210938 14.320312 C 45.5 15.023438 45.757812 15.738281 45.976562 16.464844 C 46.199219 17.191406 46.382812 17.929688 46.53125 18.671875 C 46.679688 19.417969 46.789062 20.167969 46.863281 20.925781 C 46.9375 21.679688 46.976562 22.4375 46.976562 23.199219 Z M 46.976562 23.199219 " fill-opacity="1" fill-rule="nonzero"/></g><path fill="#ffffff" d="M 34.304688 17.144531 C 34.304688 16.238281 33.527344 15.460938 32.621094 15.460938 L 29.511719 15.460938 L 22.382812 7.296875 C 21.734375 6.519531 20.699219 6.257812 19.664062 6.519531 L 17.199219 7.296875 C 16.8125 7.425781 16.679688 7.941406 16.941406 8.203125 L 24.714844 15.589844 L 12.921875 15.589844 C 12.53125 15.589844 12.273438 15.847656 12.273438 16.238281 L 12.273438 17.535156 C 12.273438 18.441406 13.050781 19.21875 13.957031 19.21875 L 15.773438 19.21875 L 15.773438 25.4375 C 15.773438 30.105469 18.234375 32.828125 22.382812 32.828125 C 23.679688 32.828125 24.714844 32.695312 26.011719 32.179688 L 26.011719 36.328125 C 26.011719 37.492188 26.917969 38.398438 28.085938 38.398438 L 29.898438 38.398438 C 30.289062 38.398438 30.675781 38.011719 30.675781 37.621094 L 30.675781 19.089844 L 33.660156 19.089844 C 34.046875 19.089844 34.304688 18.828125 34.304688 18.441406 Z M 26.011719 28.289062 C 25.234375 28.679688 24.199219 28.808594 23.417969 28.808594 C 21.347656 28.808594 20.308594 27.773438 20.308594 25.4375 L 20.308594 19.21875 L 26.011719 19.21875 Z M 26.011719 28.289062 " fill-opacity="1" fill-rule="nonzero"/></svg>