<svg xmlns="http://www.w3.org/2000/svg" xmlns:xlink="http://www.w3.org/1999/xlink" width="230" zoomAndPan="magnify" viewBox="0 0 172.5 52.499999" height="70" preserveAspectRatio="xMidYMid meet" version="1.0"><defs><clipPath id="205ccdf1f7"><path d="M 151 6 L 171.4375 6 L 171.4375 46 L 151 46 Z M 151 6 " clip-rule="nonzero"/></clipPath><clipPath id="538bc406da"><path d="M 0.566406 3.476562 L 37 3.476562 L 37 39 L 0.566406 39 Z M 0.566406 3.476562 " clip-rule="nonzero"/></clipPath><clipPath id="cbf96dd9d6"><path d="M 61 3.476562 L 97 3.476562 L 97 39 L 61 39 Z M 61 3.476562 " clip-rule="nonzero"/></clipPath><clipPath id="8fe3cb4079"><path d="M 116 12 L 151 12 L 151 48.796875 L 116 48.796875 Z M 116 12 " clip-rule="nonzero"/></clipPath></defs><g clip-path="url(#205ccdf1f7)"><path fill="#008c44" d="M 161.765625 6.878906 L 171.398438 26.132812 L 151.144531 45.394531 Z M 161.765625 6.878906 " fill-opacity="1" fill-rule="nonzero"/></g><path fill="#f47920" d="M 155.089844 6.878906 L 164.710938 26.132812 L 144.46875 45.394531 Z M 155.089844 6.878906 " fill-opacity="1" fill-rule="nonzero"/><g clip-path="url(#538bc406da)"><path fill="#1b3281" d="M 0.605469 38.386719 L 10.210938 3.5625 L 25.570312 3.5625 C 30.371094 3.5625 33.578125 4.324219 35.210938 5.902344 C 36.828125 7.464844 37.140625 10.015625 36.164062 13.601562 C 35.574219 15.714844 34.675781 17.488281 33.445312 18.890625 C 32.222656 20.292969 30.609375 21.402344 28.621094 22.21875 C 30.308594 22.625 31.378906 23.433594 31.859375 24.648438 C 32.335938 25.863281 32.28125 27.632812 31.703125 29.953125 L 30.535156 34.816406 L 30.53125 34.949219 C 30.191406 36.3125 30.292969 37.039062 30.84375 37.097656 L 30.488281 38.386719 L 20.097656 38.386719 C 20.132812 37.570312 20.195312 36.835938 20.265625 36.222656 C 20.339844 35.589844 20.433594 35.105469 20.527344 34.769531 L 21.496094 31.289062 C 21.984375 29.480469 22.015625 28.21875 21.5625 27.492188 C 21.105469 26.746094 20.082031 26.378906 18.464844 26.378906 L 14.097656 26.378906 L 10.769531 38.386719 Z M 16.257812 18.53125 L 20.9375 18.53125 C 22.574219 18.53125 23.785156 18.296875 24.53125 17.808594 C 25.28125 17.320312 25.835938 16.488281 26.160156 15.289062 C 26.5 14.070312 26.417969 13.21875 25.933594 12.734375 C 25.449219 12.242188 24.289062 12.003906 22.46875 12.003906 L 18.058594 12.003906 Z M 16.257812 18.53125 " fill-opacity="1" fill-rule="nonzero"/></g><path fill="#1b3281" d="M 64.683594 12.6875 L 57.597656 38.386719 L 48.992188 38.386719 L 50.050781 34.625 C 48.535156 36.121094 46.984375 37.257812 45.421875 37.984375 C 43.871094 38.722656 42.238281 39.085938 40.515625 39.085938 C 39.09375 39.085938 37.871094 38.828125 36.886719 38.3125 C 35.890625 37.796875 35.148438 37.015625 34.648438 35.984375 C 34.207031 35.082031 34.015625 33.96875 34.089844 32.636719 C 34.167969 31.328125 34.628906 29.117188 35.480469 26.023438 L 39.152344 12.6875 L 48.566406 12.6875 L 44.902344 25.960938 C 44.367188 27.90625 44.238281 29.269531 44.5 30.015625 C 44.773438 30.765625 45.5 31.152344 46.675781 31.152344 C 47.863281 31.152344 48.859375 30.71875 49.683594 29.839844 C 50.519531 28.964844 51.164062 27.660156 51.648438 25.925781 L 55.28125 12.6875 Z M 64.683594 12.6875 " fill-opacity="1" fill-rule="nonzero"/><g clip-path="url(#cbf96dd9d6)"><path fill="#1b3281" d="M 61.265625 38.386719 L 70.863281 3.5625 L 84.066406 3.5625 C 86.980469 3.5625 89.234375 3.734375 90.839844 4.113281 C 92.445312 4.476562 93.703125 5.070312 94.640625 5.902344 C 95.8125 6.992188 96.527344 8.339844 96.824219 9.957031 C 97.101562 11.574219 96.9375 13.460938 96.328125 15.671875 C 95.253906 19.566406 93.371094 22.550781 90.683594 24.632812 C 87.988281 26.691406 84.65625 27.726562 80.679688 27.726562 L 74.5 27.726562 L 71.566406 38.386719 Z M 76.839844 19.21875 L 80.160156 19.21875 C 82.304688 19.21875 83.8125 18.953125 84.699219 18.4375 C 85.554688 17.917969 86.160156 16.992188 86.53125 15.671875 C 86.902344 14.339844 86.808594 13.40625 86.246094 12.882812 C 85.707031 12.363281 84.328125 12.101562 82.125 12.101562 L 78.8125 12.101562 Z M 76.839844 19.21875 " fill-opacity="1" fill-rule="nonzero"/></g><path fill="#1b3281" d="M 107.40625 38.386719 L 107.5 35.949219 C 105.980469 37.089844 104.445312 37.957031 102.898438 38.496094 C 101.359375 39.046875 99.71875 39.324219 97.964844 39.324219 C 95.296875 39.324219 93.4375 38.597656 92.363281 37.183594 C 91.300781 35.769531 91.128906 33.742188 91.851562 31.152344 C 92.546875 28.597656 93.78125 26.714844 95.558594 25.511719 C 97.328125 24.296875 100.285156 23.425781 104.433594 22.867188 C 104.957031 22.78125 105.664062 22.710938 106.542969 22.605469 C 109.609375 22.25 111.332031 21.425781 111.703125 20.085938 C 111.894531 19.351562 111.777344 18.808594 111.324219 18.476562 C 110.886719 18.132812 110.070312 17.960938 108.890625 17.960938 C 107.914062 17.960938 107.125 18.167969 106.480469 18.589844 C 105.835938 19.019531 105.351562 19.644531 105.027344 20.527344 L 95.847656 20.527344 C 96.675781 17.632812 98.371094 15.449219 100.914062 13.984375 C 103.445312 12.5 106.785156 11.785156 110.921875 11.785156 C 112.867188 11.785156 114.609375 11.964844 116.148438 12.363281 C 117.691406 12.746094 118.820312 13.289062 119.550781 13.945312 C 120.449219 14.761719 120.984375 15.699219 121.136719 16.730469 C 121.308594 17.761719 121.117188 19.238281 120.582031 21.171875 L 116.632812 35.5 C 116.507812 35.96875 116.484375 36.386719 116.550781 36.765625 C 116.632812 37.128906 116.792969 37.441406 117.070312 37.664062 L 116.859375 38.386719 Z M 109.691406 26.914062 C 108.691406 27.316406 107.394531 27.703125 105.777344 28.128906 C 103.242188 28.816406 101.816406 29.726562 101.507812 30.859375 C 101.292969 31.585938 101.378906 32.144531 101.734375 32.570312 C 102.082031 32.972656 102.6875 33.179688 103.539062 33.179688 C 105.101562 33.179688 106.355469 32.78125 107.292969 31.996094 C 108.230469 31.199219 108.929688 29.953125 109.421875 28.230469 C 109.507812 27.863281 109.582031 27.601562 109.628906 27.402344 Z M 109.691406 26.914062 " fill-opacity="1" fill-rule="nonzero"/><g clip-path="url(#8fe3cb4079)"><path fill="#1b3281" d="M 116.929688 48.515625 L 119.019531 40.910156 L 121.710938 40.910156 C 122.613281 40.910156 123.320312 40.730469 123.820312 40.402344 C 124.332031 40.066406 124.679688 39.496094 124.878906 38.726562 C 124.976562 38.386719 125.039062 38.03125 125.082031 37.628906 C 125.105469 37.199219 125.105469 36.746094 125.082031 36.222656 L 123.644531 12.6875 L 133.171875 12.6875 L 133.023438 28.28125 L 141.34375 12.6875 L 150.203125 12.6875 L 135.496094 38.265625 C 133.828125 41.121094 132.617188 43.085938 131.847656 44.160156 C 131.085938 45.21875 130.363281 46.039062 129.664062 46.597656 C 128.757812 47.367188 127.742188 47.914062 126.648438 48.230469 C 125.554688 48.554688 123.882812 48.71875 121.640625 48.71875 C 120.996094 48.71875 120.25 48.707031 119.449219 48.664062 C 118.648438 48.632812 117.800781 48.585938 116.929688 48.515625 " fill-opacity="1" fill-rule="nonzero"/></g></svg>