<svg xmlns="http://www.w3.org/2000/svg" xmlns:xlink="http://www.w3.org/1999/xlink" width="230" zoomAndPan="magnify" viewBox="0 0 172.5 52.499999" height="70" preserveAspectRatio="xMidYMid meet" version="1.0"><defs><clipPath id="786561d0c7"><path d="M 151 6 L 171.4375 6 L 171.4375 46 L 151 46 Z M 151 6 " clip-rule="nonzero"/></clipPath><clipPath id="204950052b"><path d="M 0.566406 3.476562 L 37 3.476562 L 37 39 L 0.566406 39 Z M 0.566406 3.476562 " clip-rule="nonzero"/></clipPath><clipPath id="eda19babd0"><path d="M 61 3.476562 L 97 3.476562 L 97 39 L 61 39 Z M 61 3.476562 " clip-rule="nonzero"/></clipPath><clipPath id="f24442e362"><path d="M 116 12 L 151 12 L 151 48.796875 L 116 48.796875 Z M 116 12 " clip-rule="nonzero"/></clipPath></defs><g clip-path="url(#786561d0c7)"><path fill="#008c44" d="M 161.765625 6.859375 L 171.398438 25.992188 L 151.144531 45.136719 Z M 161.765625 6.859375 " fill-opacity="1" fill-rule="nonzero"/></g><path fill="#f47920" d="M 155.089844 6.859375 L 164.710938 25.992188 L 144.46875 45.136719 Z M 155.089844 6.859375 " fill-opacity="1" fill-rule="nonzero"/><g clip-path="url(#204950052b)"><path fill="#ffffff" d="M 0.605469 38.171875 L 10.210938 3.5625 L 25.570312 3.5625 C 30.371094 3.5625 33.578125 4.320312 35.210938 5.886719 C 36.828125 7.441406 37.140625 9.976562 36.164062 13.539062 C 35.574219 15.640625 34.675781 17.402344 33.445312 18.792969 C 32.222656 20.1875 30.609375 21.292969 28.621094 22.101562 C 30.308594 22.507812 31.378906 23.3125 31.859375 24.519531 C 32.335938 25.726562 32.28125 27.484375 31.703125 29.789062 L 30.535156 34.625 L 30.53125 34.753906 C 30.191406 36.109375 30.292969 36.832031 30.84375 36.890625 L 30.488281 38.171875 L 20.097656 38.171875 C 20.132812 37.359375 20.195312 36.632812 20.265625 36.019531 C 20.339844 35.394531 20.433594 34.910156 20.527344 34.578125 L 21.496094 31.121094 C 21.984375 29.320312 22.015625 28.066406 21.5625 27.347656 C 21.105469 26.605469 20.082031 26.238281 18.464844 26.238281 L 14.097656 26.238281 L 10.769531 38.171875 Z M 16.257812 18.441406 L 20.9375 18.441406 C 22.574219 18.441406 23.785156 18.207031 24.53125 17.722656 C 25.28125 17.234375 25.835938 16.410156 26.160156 15.214844 C 26.5 14.003906 26.417969 13.160156 25.933594 12.675781 C 25.449219 12.191406 24.289062 11.953125 22.46875 11.953125 L 18.058594 11.953125 Z M 16.257812 18.441406 " fill-opacity="1" fill-rule="nonzero"/></g><path fill="#ffffff" d="M 64.683594 12.632812 L 57.597656 38.171875 L 48.992188 38.171875 L 50.050781 34.433594 C 48.535156 35.917969 46.984375 37.050781 45.421875 37.773438 C 43.871094 38.507812 42.238281 38.867188 40.515625 38.867188 C 39.09375 38.867188 37.871094 38.609375 36.886719 38.097656 C 35.890625 37.585938 35.148438 36.808594 34.648438 35.785156 C 34.207031 34.890625 34.015625 33.78125 34.089844 32.460938 C 34.167969 31.15625 34.628906 28.960938 35.480469 25.886719 L 39.152344 12.632812 L 48.566406 12.632812 L 44.902344 25.824219 C 44.367188 27.753906 44.238281 29.113281 44.5 29.851562 C 44.773438 30.597656 45.5 30.980469 46.675781 30.980469 C 47.863281 30.980469 48.859375 30.550781 49.683594 29.675781 C 50.519531 28.808594 51.164062 27.511719 51.648438 25.785156 L 55.28125 12.632812 Z M 64.683594 12.632812 " fill-opacity="1" fill-rule="nonzero"/><g clip-path="url(#eda19babd0)"><path fill="#ffffff" d="M 61.265625 38.171875 L 70.863281 3.5625 L 84.066406 3.5625 C 86.980469 3.5625 89.234375 3.734375 90.839844 4.109375 C 92.445312 4.472656 93.703125 5.058594 94.640625 5.886719 C 95.8125 6.96875 96.527344 8.308594 96.824219 9.917969 C 97.101562 11.527344 96.9375 13.398438 96.328125 15.597656 C 95.253906 19.46875 93.371094 22.433594 90.683594 24.503906 C 87.988281 26.550781 84.65625 27.578125 80.679688 27.578125 L 74.5 27.578125 L 71.566406 38.171875 Z M 76.839844 19.125 L 80.160156 19.125 C 82.304688 19.125 83.8125 18.859375 84.699219 18.347656 C 85.554688 17.828125 86.160156 16.90625 86.53125 15.597656 C 86.902344 14.269531 86.808594 13.34375 86.246094 12.824219 C 85.707031 12.308594 84.328125 12.046875 82.125 12.046875 L 78.8125 12.046875 Z M 76.839844 19.125 " fill-opacity="1" fill-rule="nonzero"/></g><path fill="#ffffff" d="M 107.40625 38.171875 L 107.5 35.75 C 105.980469 36.882812 104.445312 37.742188 102.898438 38.28125 C 101.359375 38.828125 99.71875 39.105469 97.964844 39.105469 C 95.296875 39.105469 93.4375 38.378906 92.363281 36.976562 C 91.300781 35.574219 91.128906 33.554688 91.851562 30.980469 C 92.546875 28.441406 93.78125 26.574219 95.558594 25.378906 C 97.328125 24.167969 100.285156 23.300781 104.433594 22.75 C 104.957031 22.664062 105.664062 22.59375 106.542969 22.488281 C 109.609375 22.132812 111.332031 21.316406 111.703125 19.984375 C 111.894531 19.253906 111.777344 18.714844 111.324219 18.382812 C 110.886719 18.042969 110.070312 17.871094 108.890625 17.871094 C 107.914062 17.871094 107.125 18.074219 106.480469 18.496094 C 105.835938 18.925781 105.351562 19.546875 105.027344 20.421875 L 95.847656 20.421875 C 96.675781 17.546875 98.371094 15.375 100.914062 13.921875 C 103.445312 12.445312 106.785156 11.730469 110.921875 11.730469 C 112.867188 11.730469 114.609375 11.914062 116.148438 12.308594 C 117.691406 12.6875 118.820312 13.226562 119.550781 13.878906 C 120.449219 14.695312 120.984375 15.621094 121.136719 16.648438 C 121.308594 17.671875 121.117188 19.140625 120.582031 21.0625 L 116.632812 35.300781 C 116.507812 35.769531 116.484375 36.183594 116.550781 36.5625 C 116.632812 36.921875 116.792969 37.230469 117.070312 37.453125 L 116.859375 38.171875 Z M 109.691406 26.769531 C 108.691406 27.171875 107.394531 27.554688 105.777344 27.980469 C 103.242188 28.660156 101.816406 29.566406 101.507812 30.6875 C 101.292969 31.410156 101.378906 31.96875 101.734375 32.390625 C 102.082031 32.792969 102.6875 32.996094 103.539062 32.996094 C 105.101562 32.996094 106.355469 32.601562 107.292969 31.820312 C 108.230469 31.03125 108.929688 29.789062 109.421875 28.078125 C 109.507812 27.714844 109.582031 27.453125 109.628906 27.257812 Z M 109.691406 26.769531 " fill-opacity="1" fill-rule="nonzero"/><g clip-path="url(#f24442e362)"><path fill="#ffffff" d="M 116.929688 48.238281 L 119.019531 40.679688 L 121.710938 40.679688 C 122.613281 40.679688 123.320312 40.5 123.820312 40.175781 C 124.332031 39.839844 124.679688 39.273438 124.878906 38.511719 C 124.976562 38.171875 125.039062 37.820312 125.082031 37.417969 C 125.105469 36.992188 125.105469 36.542969 125.082031 36.019531 L 123.644531 12.632812 L 133.171875 12.632812 L 133.023438 28.128906 L 141.34375 12.632812 L 150.203125 12.632812 L 135.496094 38.050781 C 133.828125 40.890625 132.617188 42.84375 131.847656 43.910156 C 131.085938 44.960938 130.363281 45.777344 129.664062 46.332031 C 128.757812 47.097656 127.742188 47.640625 126.648438 47.957031 C 125.554688 48.28125 123.882812 48.441406 121.640625 48.441406 C 120.996094 48.441406 120.25 48.429688 119.449219 48.386719 C 118.648438 48.355469 117.800781 48.308594 116.929688 48.238281 " fill-opacity="1" fill-rule="nonzero"/></g></svg>