<svg xmlns="http://www.w3.org/2000/svg" xmlns:xlink="http://www.w3.org/1999/xlink" width="100" zoomAndPan="magnify" viewBox="0 0 75 37.5" height="50" preserveAspectRatio="xMidYMid meet" version="1.0"><defs><clipPath id="b8ebd0ff3a"><path d="M 59 9 L 74.207031 9 L 74.207031 29 L 59 29 Z M 59 9 " clip-rule="nonzero"/></clipPath><clipPath id="7d5b7ae230"><path d="M 42 9 L 59 9 L 59 33.625 L 42 33.625 Z M 42 9 " clip-rule="nonzero"/></clipPath><clipPath id="860ff2358a"><path d="M 35 3.277344 L 41 3.277344 L 41 9 L 35 9 Z M 35 3.277344 " clip-rule="nonzero"/></clipPath><clipPath id="6b36bc1a21"><path d="M 0.933594 9 L 14 9 L 14 29 L 0.933594 29 Z M 0.933594 9 " clip-rule="nonzero"/></clipPath></defs><g clip-path="url(#b8ebd0ff3a)"><path fill="#635bff" d="M 74.203125 18.953125 C 74.203125 13.769531 71.679688 9.683594 66.855469 9.683594 C 62.011719 9.683594 59.082031 13.769531 59.082031 18.914062 C 59.082031 25.003906 62.539062 28.082031 67.507812 28.082031 C 69.929688 28.082031 71.757812 27.535156 73.144531 26.765625 L 73.144531 22.71875 C 71.757812 23.40625 70.171875 23.832031 68.15625 23.832031 C 66.183594 23.832031 64.433594 23.144531 64.207031 20.753906 L 74.160156 20.753906 C 74.160156 20.492188 74.203125 19.4375 74.203125 18.953125 Z M 64.148438 17.03125 C 64.148438 14.742188 65.550781 13.792969 66.835938 13.792969 C 68.074219 13.792969 69.398438 14.742188 69.398438 17.03125 Z M 64.148438 17.03125 " fill-opacity="1" fill-rule="evenodd"/></g><g clip-path="url(#7d5b7ae230)"><path fill="#635bff" d="M 51.222656 9.683594 C 49.230469 9.683594 47.949219 10.613281 47.234375 11.261719 L 46.96875 10.007812 L 42.492188 10.007812 L 42.492188 33.609375 L 47.582031 32.535156 L 47.601562 26.804688 C 48.335938 27.332031 49.414062 28.082031 51.203125 28.082031 C 54.847656 28.082031 58.164062 25.167969 58.164062 18.75 C 58.144531 12.878906 54.785156 9.683594 51.222656 9.683594 Z M 50.003906 23.628906 C 48.800781 23.628906 48.089844 23.203125 47.601562 22.675781 L 47.582031 15.167969 C 48.109375 14.582031 48.84375 14.175781 50.003906 14.175781 C 51.855469 14.175781 53.136719 16.242188 53.136719 18.890625 C 53.136719 21.605469 51.875 23.628906 50.003906 23.628906 Z M 50.003906 23.628906 " fill-opacity="1" fill-rule="evenodd"/></g><g clip-path="url(#860ff2358a)"><path fill="#635bff" d="M 35.492188 8.488281 L 40.601562 7.394531 L 40.601562 3.285156 L 35.492188 4.359375 Z M 35.492188 8.488281 " fill-opacity="1" fill-rule="evenodd"/></g><path fill="#635bff" d="M 35.492188 10.027344 L 40.601562 10.027344 L 40.601562 27.738281 L 35.492188 27.738281 Z M 35.492188 10.027344 " fill-opacity="1" fill-rule="evenodd"/><path fill="#635bff" d="M 30.015625 11.523438 L 29.691406 10.027344 L 25.296875 10.027344 L 25.296875 27.738281 L 30.382812 27.738281 L 30.382812 15.734375 C 31.582031 14.175781 33.621094 14.460938 34.25 14.683594 L 34.25 10.027344 C 33.597656 9.785156 31.21875 9.339844 30.015625 11.523438 Z M 30.015625 11.523438 " fill-opacity="1" fill-rule="evenodd"/><path fill="#635bff" d="M 19.839844 5.632812 L 14.875 6.6875 L 14.855469 22.898438 C 14.855469 25.894531 17.113281 28.101562 20.125 28.101562 C 21.792969 28.101562 23.015625 27.796875 23.6875 27.433594 L 23.6875 23.324219 C 23.035156 23.589844 19.820312 24.519531 19.820312 21.523438 L 19.820312 14.335938 L 23.6875 14.335938 L 23.6875 10.027344 L 19.820312 10.027344 Z M 19.839844 5.632812 " fill-opacity="1" fill-rule="evenodd"/><g clip-path="url(#6b36bc1a21)"><path fill="#635bff" d="M 6.082031 15.167969 C 6.082031 14.378906 6.734375 14.074219 7.8125 14.074219 C 9.359375 14.074219 11.3125 14.539062 12.859375 15.371094 L 12.859375 10.613281 C 11.171875 9.945312 9.5 9.683594 7.8125 9.683594 C 3.679688 9.683594 0.933594 11.828125 0.933594 15.410156 C 0.933594 20.996094 8.667969 20.105469 8.667969 22.515625 C 8.667969 23.445312 7.851562 23.75 6.714844 23.75 C 5.023438 23.75 2.867188 23.0625 1.15625 22.128906 L 1.15625 26.949219 C 3.050781 27.757812 4.960938 28.101562 6.714844 28.101562 C 10.945312 28.101562 13.855469 26.015625 13.855469 22.394531 C 13.835938 16.363281 6.082031 17.433594 6.082031 15.167969 Z M 6.082031 15.167969 " fill-opacity="1" fill-rule="evenodd"/></g></svg>