<svg xmlns="http://www.w3.org/2000/svg" xmlns:xlink="http://www.w3.org/1999/xlink" width="100" zoomAndPan="magnify" viewBox="0 0 75 37.5" height="50" preserveAspectRatio="xMidYMid meet" version="1.0"><defs><clipPath id="4dceec5336"><path d="M 58 9 L 74.207031 9 L 74.207031 29 L 58 29 Z M 58 9 " clip-rule="nonzero"/></clipPath><clipPath id="7eee929049"><path d="M 42 9 L 59 9 L 59 33.625 L 42 33.625 Z M 42 9 " clip-rule="nonzero"/></clipPath><clipPath id="427a378c36"><path d="M 35 3.277344 L 41 3.277344 L 41 9 L 35 9 Z M 35 3.277344 " clip-rule="nonzero"/></clipPath><clipPath id="893739bd5d"><path d="M 0.933594 9 L 14 9 L 14 29 L 0.933594 29 Z M 0.933594 9 " clip-rule="nonzero"/></clipPath></defs><g clip-path="url(#4dceec5336)"><path fill="#ffffff" d="M 74.050781 19.007812 C 74.050781 13.808594 71.53125 9.703125 66.71875 9.703125 C 61.886719 9.703125 58.960938 13.808594 58.960938 18.964844 C 58.960938 25.078125 62.414062 28.167969 67.371094 28.167969 C 69.785156 28.167969 71.613281 27.617188 72.996094 26.847656 L 72.996094 22.785156 C 71.613281 23.476562 70.03125 23.902344 68.019531 23.902344 C 66.050781 23.902344 64.300781 23.210938 64.078125 20.8125 L 74.011719 20.8125 C 74.011719 20.550781 74.050781 19.492188 74.050781 19.007812 Z M 64.019531 17.078125 C 64.019531 14.78125 65.417969 13.828125 66.699219 13.828125 C 67.9375 13.828125 69.257812 14.78125 69.257812 17.078125 Z M 64.019531 17.078125 " fill-opacity="1" fill-rule="evenodd"/></g><g clip-path="url(#7eee929049)"><path fill="#ffffff" d="M 51.121094 9.703125 C 49.128906 9.703125 47.851562 10.636719 47.140625 11.289062 L 46.875 10.027344 L 42.40625 10.027344 L 42.40625 33.710938 L 47.484375 32.636719 L 47.503906 26.886719 C 48.238281 27.414062 49.3125 28.167969 51.101562 28.167969 C 54.734375 28.167969 58.046875 25.242188 58.046875 18.804688 C 58.027344 12.914062 54.675781 9.703125 51.121094 9.703125 Z M 49.902344 23.699219 C 48.703125 23.699219 47.992188 23.273438 47.503906 22.742188 L 47.484375 15.207031 C 48.011719 14.621094 48.746094 14.214844 49.902344 14.214844 C 51.75 14.214844 53.03125 16.285156 53.03125 18.945312 C 53.03125 21.667969 51.769531 23.699219 49.902344 23.699219 Z M 49.902344 23.699219 " fill-opacity="1" fill-rule="evenodd"/></g><g clip-path="url(#427a378c36)"><path fill="#ffffff" d="M 35.421875 8.507812 L 40.519531 7.410156 L 40.519531 3.285156 L 35.421875 4.363281 Z M 35.421875 8.507812 " fill-opacity="1" fill-rule="evenodd"/></g><path fill="#ffffff" d="M 35.421875 10.050781 L 40.519531 10.050781 L 40.519531 27.820312 L 35.421875 27.820312 Z M 35.421875 10.050781 " fill-opacity="1" fill-rule="evenodd"/><path fill="#ffffff" d="M 29.957031 11.550781 L 29.632812 10.050781 L 25.246094 10.050781 L 25.246094 27.820312 L 30.324219 27.820312 L 30.324219 15.777344 C 31.519531 14.214844 33.550781 14.496094 34.183594 14.722656 L 34.183594 10.050781 C 33.53125 9.804688 31.15625 9.359375 29.957031 11.550781 Z M 29.957031 11.550781 " fill-opacity="1" fill-rule="evenodd"/><path fill="#ffffff" d="M 19.800781 5.640625 L 14.847656 6.699219 L 14.824219 22.96875 C 14.824219 25.972656 17.082031 28.1875 20.085938 28.1875 C 21.75 28.1875 22.96875 27.882812 23.640625 27.515625 L 23.640625 23.394531 C 22.992188 23.65625 19.78125 24.59375 19.78125 21.585938 L 19.78125 14.375 L 23.640625 14.375 L 23.640625 10.050781 L 19.78125 10.050781 Z M 19.800781 5.640625 " fill-opacity="1" fill-rule="evenodd"/><g clip-path="url(#893739bd5d)"><path fill="#ffffff" d="M 6.070312 15.207031 C 6.070312 14.417969 6.722656 14.113281 7.796875 14.113281 C 9.339844 14.113281 11.292969 14.578125 12.835938 15.410156 L 12.835938 10.636719 C 11.148438 9.96875 9.484375 9.703125 7.796875 9.703125 C 3.675781 9.703125 0.933594 11.855469 0.933594 15.453125 C 0.933594 21.058594 8.652344 20.164062 8.652344 22.582031 C 8.652344 23.515625 7.839844 23.820312 6.703125 23.820312 C 5.015625 23.820312 2.863281 23.128906 1.15625 22.195312 L 1.15625 27.03125 C 3.046875 27.839844 4.953125 28.1875 6.703125 28.1875 C 10.925781 28.1875 13.832031 26.09375 13.832031 22.460938 C 13.808594 16.40625 6.070312 17.484375 6.070312 15.207031 Z M 6.070312 15.207031 " fill-opacity="1" fill-rule="evenodd"/></g></svg>