<svg xmlns="http://www.w3.org/2000/svg" xmlns:xlink="http://www.w3.org/1999/xlink" width="120" zoomAndPan="magnify" viewBox="0 0 90 30.000001" height="40" preserveAspectRatio="xMidYMid meet" version="1.0"><path fill="#097939" d="M 75.246094 25.757812 L 87.355469 14.710938 L 81.617188 3.285156 Z M 75.246094 25.757812 " fill-opacity="1" fill-rule="evenodd"/><path fill="#ed752e" d="M 71.167969 25.757812 L 83.277344 14.710938 L 77.539062 3.285156 Z M 71.167969 25.757812 " fill-opacity="1" fill-rule="evenodd"/><path fill="#000000" d="M 13.300781 3.410156 L 8.203125 21.566406 L 26.300781 21.695312 L 31.273438 3.410156 L 35.859375 3.410156 L 29.902344 24.664062 C 29.671875 25.476562 28.804688 26.136719 27.960938 26.136719 L 4.761719 26.136719 C 3.355469 26.136719 2.519531 25.039062 2.902344 23.683594 L 8.585938 3.410156 Z M 69.253906 3.285156 L 73.84375 3.285156 L 67.46875 26.136719 L 62.753906 26.136719 Z M 36.371094 12.804688 L 59.3125 12.679688 L 60.84375 7.855469 L 37.519531 7.855469 L 38.917969 3.410156 L 63.777344 3.183594 C 65.324219 3.167969 66.246094 4.367188 65.835938 5.859375 L 63.496094 14.417969 C 63.085938 15.910156 61.5 17.121094 59.953125 17.121094 L 39.429688 17.121094 L 37.011719 26.515625 L 32.546875 26.515625 Z M 36.371094 12.804688 " fill-opacity="1" fill-rule="evenodd"/></svg>