<svg xmlns="http://www.w3.org/2000/svg" xmlns:xlink="http://www.w3.org/1999/xlink" width="120" zoomAndPan="magnify" viewBox="0 0 90 30.000001" height="40" preserveAspectRatio="xMidYMid meet" version="1.0"><path fill="#097939" d="M 75.246094 25.363281 L 87.355469 14.316406 L 81.617188 2.890625 Z M 75.246094 25.363281 " fill-opacity="1" fill-rule="evenodd"/><path fill="#ed752e" d="M 71.167969 25.363281 L 83.277344 14.316406 L 77.539062 2.890625 Z M 71.167969 25.363281 " fill-opacity="1" fill-rule="evenodd"/><path fill="#ffffff" d="M 13.300781 3.015625 L 8.203125 21.171875 L 26.300781 21.300781 L 31.273438 3.015625 L 35.859375 3.015625 L 29.902344 24.269531 C 29.671875 25.082031 28.804688 25.742188 27.960938 25.742188 L 4.761719 25.742188 C 3.355469 25.742188 2.519531 24.644531 2.902344 23.289062 L 8.585938 3.015625 Z M 69.253906 2.890625 L 73.84375 2.890625 L 67.46875 25.742188 L 62.753906 25.742188 Z M 36.371094 12.410156 L 59.3125 12.285156 L 60.84375 7.460938 L 37.519531 7.460938 L 38.917969 3.015625 L 63.777344 2.789062 C 65.324219 2.773438 66.246094 3.972656 65.835938 5.464844 L 63.496094 14.023438 C 63.085938 15.515625 61.5 16.726562 59.953125 16.726562 L 39.429688 16.726562 L 37.011719 26.121094 L 32.546875 26.121094 Z M 36.371094 12.410156 " fill-opacity="1" fill-rule="evenodd"/></svg>