<svg xmlns="http://www.w3.org/2000/svg" xmlns:xlink="http://www.w3.org/1999/xlink" width="230" zoomAndPan="magnify" viewBox="0 0 172.5 44.999999" height="60" preserveAspectRatio="xMidYMid meet" version="1.0"><defs><clipPath id="18ccdb2c52"><path d="M 42 3.113281 L 172 3.113281 L 172 42 L 42 42 Z M 42 3.113281 " clip-rule="nonzero"/></clipPath><clipPath id="d72a699e4d"><path d="M 0 3.113281 L 36 3.113281 L 36 41 L 0 41 Z M 0 3.113281 " clip-rule="nonzero"/></clipPath></defs><g clip-path="url(#18ccdb2c52)"><path fill="#2e4369" d="M 171.859375 19.671875 C 171.859375 9.777344 164.910156 2.820312 155.171875 2.820312 C 142.773438 2.820312 134.460938 11.757812 134.460938 24.523438 C 134.460938 34.484375 141.476562 41.375 151.382812 41.375 C 160.390625 41.375 167.105469 37.054688 169.867188 30.160156 L 159.859375 30.160156 C 158.53125 32.304688 155.703125 33.65625 152.246094 33.65625 C 146.929688 33.65625 143.605469 30.160156 143.304688 25.214844 L 171.292969 25.214844 C 171.660156 23.335938 171.859375 21.71875 171.859375 19.671875 Z M 144.070312 18.519531 C 144.964844 13.96875 149.421875 10.339844 154.808594 10.339844 C 159.460938 10.339844 162.984375 13.703125 162.984375 18.519531 Z M 107.570312 40.484375 L 109.363281 30.988281 C 114.847656 32.074219 115.679688 29.007812 117.109375 21.621094 L 117.808594 17.957031 C 119.800781 7.636719 123.824219 2.488281 135.328125 3.875 L 133.53125 13.375 C 128.046875 12.285156 127.082031 16.40625 125.855469 22.804688 L 125.15625 26.46875 C 123.160156 36.921875 119.003906 41.871094 107.570312 40.484375 Z M 94.140625 40.519531 L 100.921875 3.710938 L 109.863281 3.710938 L 103.113281 40.519531 Z M 42.910156 3.710938 L 51.589844 3.710938 L 54.414062 30.328125 L 65.785156 3.710938 L 74.394531 3.710938 L 77.421875 30.589844 L 88.390625 3.710938 L 97.035156 3.710938 L 81.308594 40.519531 L 71.46875 40.519531 L 68.273438 15.1875 L 57.410156 40.519531 L 47.898438 40.519531 L 42.914062 3.710938 Z M 42.910156 3.710938 " fill-opacity="1" fill-rule="nonzero"/></g><g clip-path="url(#d72a699e4d)"><path fill="#00b9ff" d="M 10.5 13.472656 L 0.195312 23.234375 L 17.714844 23.234375 L 19.542969 18.980469 L 10.667969 18.980469 L 16.21875 13.472656 L 12.996094 7.964844 L 28.054688 7.964844 L 14.15625 40.519531 L 19.375 40.519531 L 35.101562 3.710938 L 4.71875 3.710938 Z M 10.5 13.472656 " fill-opacity="1" fill-rule="nonzero"/></g></svg>