<svg xmlns="http://www.w3.org/2000/svg" xmlns:xlink="http://www.w3.org/1999/xlink" width="230" zoomAndPan="magnify" viewBox="0 0 172.5 44.999999" height="60" preserveAspectRatio="xMidYMid meet" version="1.0"><defs><clipPath id="9ddac65a15"><path d="M 42 3.113281 L 172 3.113281 L 172 42 L 42 42 Z M 42 3.113281 " clip-rule="nonzero"/></clipPath><clipPath id="1d2962dbd7"><path d="M 0 3.113281 L 36 3.113281 L 36 41 L 0 41 Z M 0 3.113281 " clip-rule="nonzero"/></clipPath></defs><g clip-path="url(#9ddac65a15)"><path fill="#ffffff" d="M 171.546875 19.8125 C 171.546875 9.855469 164.609375 2.855469 154.886719 2.855469 C 142.511719 2.855469 134.214844 11.847656 134.214844 24.691406 C 134.214844 34.710938 141.21875 41.644531 151.105469 41.644531 C 160.097656 41.644531 166.800781 37.300781 169.554688 30.363281 L 159.566406 30.363281 C 158.238281 32.519531 155.417969 33.878906 151.96875 33.878906 C 146.660156 33.878906 143.339844 30.363281 143.042969 25.386719 L 170.980469 25.386719 C 171.347656 23.496094 171.546875 21.871094 171.546875 19.8125 Z M 143.804688 18.648438 C 144.699219 14.070312 149.148438 10.421875 154.523438 10.421875 C 159.167969 10.421875 162.6875 13.804688 162.6875 18.652344 L 143.804688 18.652344 Z M 107.371094 40.75 L 109.160156 31.191406 C 114.636719 32.289062 115.46875 29.203125 116.894531 21.769531 L 117.589844 18.085938 C 119.582031 7.699219 123.597656 2.523438 135.078125 3.917969 L 133.285156 13.472656 C 127.808594 12.378906 126.847656 16.527344 125.621094 22.960938 L 124.925781 26.648438 C 122.933594 37.164062 118.785156 42.144531 107.371094 40.75 Z M 93.964844 40.785156 L 100.734375 3.75 L 109.660156 3.75 L 102.921875 40.785156 Z M 42.828125 3.75 L 51.488281 3.75 L 54.308594 30.527344 L 65.660156 3.75 L 74.253906 3.75 L 77.273438 30.796875 L 88.222656 3.75 L 96.851562 3.75 L 81.15625 40.785156 L 71.335938 40.785156 L 68.144531 15.296875 L 57.296875 40.785156 L 47.804688 40.785156 L 42.832031 3.753906 Z M 42.828125 3.75 " fill-opacity="1" fill-rule="nonzero"/></g><g clip-path="url(#1d2962dbd7)"><path fill="#00b9ff" d="M 10.472656 13.570312 L 0.1875 23.394531 L 17.675781 23.394531 L 19.5 19.113281 L 10.640625 19.113281 L 16.179688 13.570312 L 12.964844 8.03125 L 27.996094 8.03125 L 14.121094 40.785156 L 19.332031 40.785156 L 35.027344 3.75 L 4.699219 3.75 Z M 10.472656 13.570312 " fill-opacity="1" fill-rule="nonzero"/></g></svg>