<svg xmlns="http://www.w3.org/2000/svg" xmlns:xlink="http://www.w3.org/1999/xlink" width="341" zoomAndPan="magnify" viewBox="0 0 255.75 62.999997" height="84" preserveAspectRatio="xMidYMid meet" version="1.0"><defs><g/><clipPath id="eeeee0ba3f"><path d="M 0 0.03125 L 255.191406 0.03125 L 255.191406 62.367188 L 0 62.367188 Z M 0 0.03125 " clip-rule="nonzero"/></clipPath><clipPath id="1f6066f04b"><path d="M 31.167969 0.03125 L 223.90625 0.03125 C 241.121094 0.03125 255.074219 13.984375 255.074219 31.199219 C 255.074219 48.414062 241.121094 62.367188 223.90625 62.367188 L 31.167969 62.367188 C 13.953125 62.367188 0 48.414062 0 31.199219 C 0 13.984375 13.953125 0.03125 31.167969 0.03125 Z M 31.167969 0.03125 " clip-rule="nonzero"/></clipPath></defs><g clip-path="url(#eeeee0ba3f)"><g clip-path="url(#1f6066f04b)"><path fill="#aae984" d="M 0 0.03125 L 255.191406 0.03125 L 255.191406 62.367188 L 0 62.367188 Z M 0 0.03125 " fill-opacity="1" fill-rule="nonzero"/></g></g><g fill="#0b4350" fill-opacity="1"><g transform="translate(23.41991, 38.891536)"><g><path d="M 18.328125 -13.625 C 18.328125 -12.34375 18.035156 -11.195312 17.453125 -10.1875 C 16.867188 -9.175781 16.03125 -8.394531 14.9375 -7.84375 C 13.851562 -7.289062 12.5625 -7.015625 11.0625 -7.015625 L 6.109375 -7.015625 L 6.109375 0 L 1.9375 0 L 1.9375 -19.9375 L 10.890625 -19.9375 C 13.273438 -19.9375 15.109375 -19.382812 16.390625 -18.28125 C 17.679688 -17.1875 18.328125 -15.632812 18.328125 -13.625 Z M 14.125 -13.546875 C 14.125 -15.640625 12.890625 -16.6875 10.421875 -16.6875 L 6.109375 -16.6875 L 6.109375 -10.234375 L 10.53125 -10.234375 C 11.6875 -10.234375 12.570312 -10.515625 13.1875 -11.078125 C 13.8125 -11.648438 14.125 -12.472656 14.125 -13.546875 Z M 14.125 -13.546875 "/></g></g></g><g fill="#0b4350" fill-opacity="1"><g transform="translate(42.738588, 38.891536)"><g><path d="M 5.5625 0.28125 C 4.082031 0.28125 2.925781 -0.117188 2.09375 -0.921875 C 1.257812 -1.734375 0.84375 -2.867188 0.84375 -4.328125 C 0.84375 -5.910156 1.359375 -7.113281 2.390625 -7.9375 C 3.429688 -8.769531 4.929688 -9.195312 6.890625 -9.21875 L 10.1875 -9.28125 L 10.1875 -10.0625 C 10.1875 -11.0625 10.007812 -11.800781 9.65625 -12.28125 C 9.3125 -12.769531 8.742188 -13.015625 7.953125 -13.015625 C 7.210938 -13.015625 6.671875 -12.847656 6.328125 -12.515625 C 5.984375 -12.179688 5.769531 -11.625 5.6875 -10.84375 L 1.546875 -11.046875 C 1.796875 -12.535156 2.472656 -13.664062 3.578125 -14.4375 C 4.691406 -15.207031 6.207031 -15.59375 8.125 -15.59375 C 10.050781 -15.59375 11.535156 -15.113281 12.578125 -14.15625 C 13.628906 -13.207031 14.15625 -11.851562 14.15625 -10.09375 L 14.15625 -4.53125 C 14.15625 -3.664062 14.25 -3.070312 14.4375 -2.75 C 14.632812 -2.425781 14.960938 -2.265625 15.421875 -2.265625 C 15.722656 -2.265625 16.015625 -2.289062 16.296875 -2.34375 L 16.296875 -0.203125 C 16.054688 -0.140625 15.84375 -0.0820312 15.65625 -0.03125 C 15.46875 0.0078125 15.28125 0.0390625 15.09375 0.0625 C 14.90625 0.09375 14.703125 0.117188 14.484375 0.140625 C 14.273438 0.160156 14.03125 0.171875 13.75 0.171875 C 12.75 0.171875 12.007812 -0.0703125 11.53125 -0.5625 C 11.0625 -1.050781 10.773438 -1.773438 10.671875 -2.734375 L 10.59375 -2.734375 C 9.476562 -0.722656 7.800781 0.28125 5.5625 0.28125 Z M 10.1875 -7.09375 L 8.140625 -7.0625 C 7.222656 -7.019531 6.566406 -6.914062 6.171875 -6.75 C 5.785156 -6.582031 5.492188 -6.328125 5.296875 -5.984375 C 5.097656 -5.648438 5 -5.203125 5 -4.640625 C 5 -3.910156 5.164062 -3.367188 5.5 -3.015625 C 5.832031 -2.660156 6.273438 -2.484375 6.828125 -2.484375 C 7.453125 -2.484375 8.019531 -2.65625 8.53125 -3 C 9.050781 -3.34375 9.457031 -3.8125 9.75 -4.40625 C 10.039062 -5 10.1875 -5.632812 10.1875 -6.3125 Z M 10.1875 -7.09375 "/></g></g></g><g fill="#0b4350" fill-opacity="1"><g transform="translate(58.846914, 38.891536)"><g><path d="M 4 6.015625 C 3.050781 6.015625 2.21875 5.953125 1.5 5.828125 L 1.5 3 C 2 3.070312 2.457031 3.109375 2.875 3.109375 C 3.4375 3.109375 3.90625 3.019531 4.28125 2.84375 C 4.65625 2.664062 4.988281 2.367188 5.28125 1.953125 C 5.582031 1.535156 5.914062 0.832031 6.28125 -0.15625 L 0.21875 -15.3125 L 4.421875 -15.3125 L 6.828125 -8.140625 C 7.203125 -7.109375 7.679688 -5.53125 8.265625 -3.40625 L 8.609375 -4.75 L 9.53125 -8.078125 L 11.796875 -15.3125 L 15.953125 -15.3125 L 9.90625 0.8125 C 9.09375 2.769531 8.25 4.125 7.375 4.875 C 6.5 5.632812 5.375 6.015625 4 6.015625 Z M 4 6.015625 "/></g></g></g><g fill="#0b4350" fill-opacity="1"><g transform="translate(74.95524, 38.891536)"><g/></g></g><g fill="#0b4350" fill-opacity="1"><g transform="translate(83.002332, 38.891536)"><g><path d="M 18.578125 0 L 14.375 0 L 11.9375 -9.328125 C 11.820312 -9.753906 11.601562 -10.800781 11.28125 -12.46875 L 10.53125 -9.3125 L 8.078125 0 L 3.875 0 L -0.078125 -15.3125 L 3.65625 -15.3125 L 6.171875 -3.609375 L 6.359375 -4.65625 L 6.71875 -6.3125 L 9.125 -15.3125 L 13.375 -15.3125 L 15.734375 -6.3125 C 15.859375 -5.820312 16.050781 -4.921875 16.3125 -3.609375 L 16.703125 -5.46875 L 18.90625 -15.3125 L 22.59375 -15.3125 Z M 18.578125 0 "/></g></g></g><g fill="#0b4350" fill-opacity="1"><g transform="translate(105.53136, 38.891536)"><g><path d="M 2.015625 -18.0625 L 2.015625 -20.984375 L 6 -20.984375 L 6 -18.0625 Z M 2.015625 0 L 2.015625 -15.3125 L 6 -15.3125 L 6 0 Z M 2.015625 0 "/></g></g></g><g fill="#0b4350" fill-opacity="1"><g transform="translate(113.578452, 38.891536)"><g><path d="M 5.9375 0.25 C 4.769531 0.25 3.867188 -0.0664062 3.234375 -0.703125 C 2.609375 -1.335938 2.296875 -2.300781 2.296875 -3.59375 L 2.296875 -12.625 L 0.359375 -12.625 L 0.359375 -15.3125 L 2.484375 -15.3125 L 3.734375 -18.890625 L 6.21875 -18.890625 L 6.21875 -15.3125 L 9.125 -15.3125 L 9.125 -12.625 L 6.21875 -12.625 L 6.21875 -4.671875 C 6.21875 -3.921875 6.359375 -3.367188 6.640625 -3.015625 C 6.929688 -2.660156 7.375 -2.484375 7.96875 -2.484375 C 8.28125 -2.484375 8.722656 -2.550781 9.296875 -2.6875 L 9.296875 -0.21875 C 8.316406 0.09375 7.195312 0.25 5.9375 0.25 Z M 5.9375 0.25 "/></g></g></g><g fill="#0b4350" fill-opacity="1"><g transform="translate(123.223648, 38.891536)"><g><path d="M 5.9375 -12.25 C 6.476562 -13.414062 7.15625 -14.265625 7.96875 -14.796875 C 8.78125 -15.328125 9.742188 -15.59375 10.859375 -15.59375 C 12.484375 -15.59375 13.726562 -15.09375 14.59375 -14.09375 C 15.46875 -13.09375 15.90625 -11.628906 15.90625 -9.703125 L 15.90625 0 L 11.9375 0 L 11.9375 -8.578125 C 11.9375 -11.265625 11.023438 -12.609375 9.203125 -12.609375 C 8.242188 -12.609375 7.46875 -12.191406 6.875 -11.359375 C 6.289062 -10.535156 6 -9.476562 6 -8.1875 L 6 0 L 2.015625 0 L 2.015625 -20.984375 L 6 -20.984375 L 6 -15.265625 C 6 -14.234375 5.960938 -13.226562 5.890625 -12.25 Z M 5.9375 -12.25 "/></g></g></g><path fill="#097939" d="M 219 40.320312 L 230.570312 29.765625 L 225.089844 18.847656 Z M 219 40.320312 " fill-opacity="1" fill-rule="evenodd"/><path fill="#ed752e" d="M 215.101562 40.320312 L 226.671875 29.765625 L 221.191406 18.847656 Z M 215.101562 40.320312 " fill-opacity="1" fill-rule="evenodd"/><path fill="#0b4350" d="M 159.8125 18.96875 L 154.941406 36.316406 L 172.234375 36.4375 L 176.984375 18.96875 L 181.367188 18.96875 L 175.675781 39.277344 C 175.457031 40.054688 174.625 40.683594 173.820312 40.683594 L 151.65625 40.683594 C 150.3125 40.683594 149.515625 39.632812 149.878906 38.339844 L 155.308594 18.96875 Z M 213.277344 18.847656 L 217.660156 18.847656 L 211.570312 40.683594 L 207.0625 40.683594 Z M 181.855469 27.945312 L 203.777344 27.824219 L 205.238281 23.214844 L 182.953125 23.214844 L 184.292969 18.96875 L 208.042969 18.75 C 209.519531 18.738281 210.398438 19.882812 210.011719 21.308594 L 207.773438 29.488281 C 207.382812 30.914062 205.867188 32.070312 204.386719 32.070312 L 184.78125 32.070312 L 182.46875 41.046875 L 178.203125 41.046875 Z M 181.855469 27.945312 " fill-opacity="1" fill-rule="evenodd"/></svg>