<svg xmlns="http://www.w3.org/2000/svg" xmlns:xlink="http://www.w3.org/1999/xlink" width="244" zoomAndPan="magnify" viewBox="0 0 183 62.999997" height="84" preserveAspectRatio="xMidYMid meet" version="1.0"><defs><g/><clipPath id="00c95d4cc1"><path d="M 0 0 L 182.5625 0 L 182.5625 62.398438 L 0 62.398438 Z M 0 0 " clip-rule="nonzero"/></clipPath><clipPath id="a58b33a1e6"><path d="M 31.199219 0 L 151.300781 0 C 168.53125 0 182.5 13.96875 182.5 31.199219 C 182.5 48.429688 168.53125 62.398438 151.300781 62.398438 L 31.199219 62.398438 C 13.96875 62.398438 0 48.429688 0 31.199219 C 0 13.96875 13.96875 0 31.199219 0 Z M 31.199219 0 " clip-rule="nonzero"/></clipPath><clipPath id="69984f3018"><path d="M 116.554688 1.300781 L 176.554688 1.300781 L 176.554688 61.300781 L 116.554688 61.300781 Z M 116.554688 1.300781 " clip-rule="nonzero"/></clipPath></defs><g clip-path="url(#00c95d4cc1)"><g clip-path="url(#a58b33a1e6)"><path fill="#5f259f" d="M 0 0 L 182.5625 0 L 182.5625 62.398438 L 0 62.398438 Z M 0 0 " fill-opacity="1" fill-rule="nonzero"/></g></g><g clip-path="url(#69984f3018)"><path fill="#5f259f" d="M 176.554688 31.300781 C 176.554688 32.28125 176.507812 33.261719 176.410156 34.242188 C 176.316406 35.21875 176.171875 36.191406 175.980469 37.152344 C 175.789062 38.117188 175.550781 39.070312 175.265625 40.007812 C 174.980469 40.949219 174.648438 41.875 174.273438 42.78125 C 173.898438 43.6875 173.476562 44.574219 173.015625 45.441406 C 172.550781 46.308594 172.046875 47.152344 171.5 47.96875 C 170.953125 48.785156 170.371094 49.574219 169.746094 50.332031 C 169.125 51.089844 168.464844 51.820312 167.769531 52.511719 C 167.074219 53.207031 166.347656 53.867188 165.589844 54.492188 C 164.828125 55.113281 164.039062 55.699219 163.222656 56.246094 C 162.40625 56.789062 161.566406 57.292969 160.699219 57.757812 C 159.832031 58.222656 158.945312 58.640625 158.035156 59.015625 C 157.128906 59.394531 156.207031 59.722656 155.265625 60.007812 C 154.324219 60.292969 153.371094 60.53125 152.410156 60.722656 C 151.445312 60.914062 150.476562 61.058594 149.496094 61.15625 C 148.519531 61.253906 147.539062 61.300781 146.554688 61.300781 C 145.574219 61.300781 144.59375 61.253906 143.617188 61.15625 C 142.636719 61.058594 141.667969 60.914062 140.703125 60.722656 C 139.738281 60.53125 138.789062 60.292969 137.847656 60.007812 C 136.90625 59.722656 135.984375 59.394531 135.074219 59.015625 C 134.167969 58.640625 133.28125 58.222656 132.414062 57.757812 C 131.546875 57.292969 130.707031 56.789062 129.890625 56.246094 C 129.074219 55.699219 128.285156 55.113281 127.523438 54.492188 C 126.765625 53.867188 126.039062 53.207031 125.34375 52.511719 C 124.648438 51.820312 123.988281 51.089844 123.367188 50.332031 C 122.742188 49.574219 122.15625 48.785156 121.613281 47.96875 C 121.066406 47.152344 120.5625 46.308594 120.097656 45.441406 C 119.636719 44.574219 119.214844 43.6875 118.839844 42.78125 C 118.464844 41.875 118.132812 40.949219 117.847656 40.007812 C 117.5625 39.070312 117.324219 38.117188 117.132812 37.152344 C 116.941406 36.191406 116.796875 35.21875 116.699219 34.242188 C 116.605469 33.261719 116.554688 32.28125 116.554688 31.300781 C 116.554688 30.316406 116.605469 29.335938 116.699219 28.359375 C 116.796875 27.382812 116.941406 26.410156 117.132812 25.449219 C 117.324219 24.484375 117.5625 23.53125 117.847656 22.59375 C 118.132812 21.652344 118.464844 20.726562 118.839844 19.820312 C 119.214844 18.914062 119.636719 18.023438 120.097656 17.160156 C 120.5625 16.292969 121.066406 15.449219 121.613281 14.632812 C 122.15625 13.816406 122.742188 13.027344 123.367188 12.269531 C 123.988281 11.507812 124.648438 10.78125 125.34375 10.085938 C 126.039062 9.390625 126.765625 8.734375 127.523438 8.109375 C 128.285156 7.488281 129.074219 6.902344 129.890625 6.355469 C 130.707031 5.808594 131.546875 5.304688 132.414062 4.84375 C 133.28125 4.378906 134.167969 3.960938 135.074219 3.585938 C 135.984375 3.207031 136.90625 2.878906 137.847656 2.59375 C 138.789062 2.308594 139.738281 2.070312 140.703125 1.875 C 141.667969 1.683594 142.636719 1.542969 143.617188 1.445312 C 144.59375 1.347656 145.574219 1.300781 146.554688 1.300781 C 147.539062 1.300781 148.519531 1.347656 149.496094 1.445312 C 150.476562 1.542969 151.445312 1.683594 152.410156 1.875 C 153.371094 2.070312 154.324219 2.308594 155.265625 2.59375 C 156.207031 2.878906 157.128906 3.207031 158.035156 3.585938 C 158.945312 3.960938 159.832031 4.378906 160.699219 4.84375 C 161.566406 5.304688 162.40625 5.808594 163.222656 6.355469 C 164.039062 6.902344 164.828125 7.488281 165.589844 8.109375 C 166.347656 8.734375 167.074219 9.390625 167.769531 10.085938 C 168.464844 10.78125 169.125 11.507812 169.746094 12.269531 C 170.371094 13.027344 170.953125 13.816406 171.5 14.632812 C 172.046875 15.449219 172.550781 16.292969 173.015625 17.160156 C 173.476562 18.023438 173.898438 18.914062 174.273438 19.820312 C 174.648438 20.726562 174.980469 21.652344 175.265625 22.59375 C 175.550781 23.53125 175.789062 24.484375 175.980469 25.449219 C 176.171875 26.410156 176.316406 27.382812 176.410156 28.359375 C 176.507812 29.335938 176.554688 30.316406 176.554688 31.300781 Z M 176.554688 31.300781 " fill-opacity="1" fill-rule="nonzero"/></g><path fill="#ffffff" d="M 160.179688 23.480469 C 160.179688 22.300781 159.195312 21.316406 158.015625 21.316406 L 153.984375 21.316406 L 144.738281 10.742188 C 143.902344 9.757812 142.574219 9.414062 141.195312 9.757812 L 138 10.742188 C 137.507812 10.890625 137.308594 11.578125 137.65625 11.921875 L 147.785156 21.464844 L 132.539062 21.464844 C 132.046875 21.464844 131.703125 21.808594 131.703125 22.300781 L 131.703125 23.972656 C 131.703125 25.152344 132.6875 26.136719 133.867188 26.136719 L 136.230469 26.136719 L 136.230469 34.203125 C 136.230469 40.25 139.425781 43.742188 144.785156 43.742188 C 146.457031 43.742188 147.785156 43.59375 149.457031 42.90625 L 149.457031 48.269531 C 149.457031 49.792969 150.636719 50.972656 152.164062 50.972656 L 154.523438 50.972656 C 155.015625 50.972656 155.507812 50.480469 155.507812 49.988281 L 155.507812 25.988281 L 159.34375 25.988281 C 159.835938 25.988281 160.179688 25.644531 160.179688 25.152344 C 160.179688 25.152344 160.179688 23.480469 160.179688 23.480469 Z M 149.457031 37.890625 C 148.472656 38.382812 147.097656 38.578125 146.113281 38.578125 C 143.410156 38.578125 142.082031 37.25 142.082031 34.203125 L 142.082031 26.136719 L 149.457031 26.136719 C 149.457031 26.136719 149.457031 37.890625 149.457031 37.890625 Z M 149.457031 37.890625 " fill-opacity="1" fill-rule="nonzero"/><g fill="#ffffff" fill-opacity="1"><g transform="translate(16.337211, 38.148761)"><g><path d="M 8.296875 -17.328125 C 10.828125 -17.328125 12.664062 -16.894531 13.8125 -16.03125 C 14.96875 -15.175781 15.546875 -13.789062 15.546875 -11.875 C 15.546875 -10.507812 15.21875 -9.328125 14.5625 -8.328125 C 13.90625 -7.328125 12.972656 -6.554688 11.765625 -6.015625 C 10.566406 -5.472656 9.132812 -5.203125 7.46875 -5.203125 L 6.546875 -5.203125 C 6.546875 -4.378906 6.550781 -3.566406 6.5625 -2.765625 C 6.570312 -1.972656 6.578125 -1.175781 6.578125 -0.375 C 6.578125 -0.125 6.453125 0 6.203125 0 L 2.25 0 C 2 0 1.875 -0.125 1.875 -0.375 C 1.875 -1.757812 1.878906 -3.140625 1.890625 -4.515625 C 1.910156 -5.898438 1.921875 -7.285156 1.921875 -8.671875 C 1.921875 -10.054688 1.910156 -11.441406 1.890625 -12.828125 C 1.878906 -14.210938 1.875 -15.585938 1.875 -16.953125 C 1.875 -17.203125 2 -17.328125 2.25 -17.328125 Z M 7.40625 -8.75 C 8.582031 -8.75 9.425781 -8.976562 9.9375 -9.4375 C 10.457031 -9.894531 10.71875 -10.640625 10.71875 -11.671875 C 10.71875 -12.453125 10.484375 -13.015625 10.015625 -13.359375 C 9.554688 -13.703125 8.8125 -13.875 7.78125 -13.875 L 6.578125 -13.875 C 6.554688 -13.207031 6.546875 -12.492188 6.546875 -11.734375 C 6.546875 -10.972656 6.546875 -9.976562 6.546875 -8.75 Z M 7.40625 -8.75 "/></g></g></g><g fill="#ffffff" fill-opacity="1"><g transform="translate(32.884588, 38.148761)"><g><path d="M 7.703125 -14.046875 C 11.421875 -14.046875 13.28125 -12.378906 13.28125 -9.046875 C 13.28125 -6.960938 13.289062 -5.238281 13.3125 -3.875 C 13.332031 -2.507812 13.382812 -1.332031 13.46875 -0.34375 C 13.488281 -0.28125 13.472656 -0.207031 13.421875 -0.125 C 13.367188 -0.0390625 13.296875 0 13.203125 0 L 9.5 0 C 9.46875 0 9.410156 -0.015625 9.328125 -0.046875 C 9.253906 -0.078125 9.195312 -0.195312 9.15625 -0.40625 C 9.113281 -0.53125 9.078125 -0.660156 9.046875 -0.796875 C 9.015625 -0.929688 8.988281 -1.066406 8.96875 -1.203125 C 8.46875 -0.710938 7.894531 -0.347656 7.25 -0.109375 C 6.601562 0.128906 5.925781 0.25 5.21875 0.25 C 4.40625 0.25 3.660156 0.117188 2.984375 -0.140625 C 2.304688 -0.410156 1.769531 -0.820312 1.375 -1.375 C 0.976562 -1.9375 0.78125 -2.65625 0.78125 -3.53125 C 0.78125 -5.09375 1.441406 -6.269531 2.765625 -7.0625 C 4.085938 -7.851562 6.15625 -8.207031 8.96875 -8.125 L 8.96875 -8.96875 C 8.96875 -9.882812 8.835938 -10.507812 8.578125 -10.84375 C 8.328125 -11.175781 7.925781 -11.34375 7.375 -11.34375 C 6.8125 -11.34375 6.359375 -11.1875 6.015625 -10.875 C 5.671875 -10.570312 5.53125 -10.046875 5.59375 -9.296875 C 5.632812 -9.066406 5.550781 -8.953125 5.34375 -8.953125 L 1.59375 -8.953125 C 1.445312 -8.953125 1.363281 -9.0625 1.34375 -9.28125 C 1.28125 -10.875 1.742188 -12.066406 2.734375 -12.859375 C 3.722656 -13.648438 5.378906 -14.046875 7.703125 -14.046875 Z M 6.546875 -2.578125 C 7.117188 -2.578125 7.601562 -2.6875 8 -2.90625 C 8.394531 -3.132812 8.738281 -3.457031 9.03125 -3.875 L 9.03125 -6.125 C 8.28125 -6.101562 7.578125 -6.039062 6.921875 -5.9375 C 6.273438 -5.84375 5.75 -5.660156 5.34375 -5.390625 C 4.945312 -5.128906 4.75 -4.734375 4.75 -4.203125 C 4.75 -3.734375 4.898438 -3.34375 5.203125 -3.03125 C 5.515625 -2.726562 5.960938 -2.578125 6.546875 -2.578125 Z M 6.546875 -2.578125 "/></g></g></g><g fill="#ffffff" fill-opacity="1"><g transform="translate(47.432282, 38.148761)"><g><path d="M 13.671875 -6.40625 C 13.671875 -5.863281 13.675781 -5.332031 13.6875 -4.8125 C 13.695312 -4.300781 13.703125 -3.78125 13.703125 -3.25 C 13.734375 -0.96875 13.410156 0.875 12.734375 2.28125 C 12.054688 3.695312 11.09375 4.71875 9.84375 5.34375 C 8.59375 5.976562 7.128906 6.296875 5.453125 6.296875 C 4.765625 6.296875 4.101562 6.234375 3.46875 6.109375 C 2.84375 5.984375 2.34375 5.820312 1.96875 5.625 L 2.28125 2.09375 C 2.3125 1.914062 2.398438 1.875 2.546875 1.96875 C 2.703125 2.050781 2.992188 2.15625 3.421875 2.28125 C 3.859375 2.40625 4.410156 2.46875 5.078125 2.46875 C 6.210938 2.46875 7.132812 2.3125 7.84375 2 C 8.550781 1.6875 9.070312 1.144531 9.40625 0.375 C 9.738281 -0.394531 9.90625 -1.445312 9.90625 -2.78125 L 9.796875 -2.828125 C 9.453125 -1.859375 8.910156 -1.097656 8.171875 -0.546875 C 7.441406 0.00390625 6.601562 0.28125 5.65625 0.28125 C 4.320312 0.28125 3.28125 -0.101562 2.53125 -0.875 C 1.789062 -1.644531 1.4375 -2.976562 1.46875 -4.875 C 1.507812 -6.320312 1.515625 -7.738281 1.484375 -9.125 C 1.460938 -10.519531 1.453125 -11.953125 1.453125 -13.421875 C 1.453125 -13.503906 1.484375 -13.59375 1.546875 -13.6875 C 1.617188 -13.78125 1.710938 -13.828125 1.828125 -13.828125 L 5.46875 -13.828125 C 5.59375 -13.828125 5.6875 -13.78125 5.75 -13.6875 C 5.8125 -13.59375 5.84375 -13.503906 5.84375 -13.421875 C 5.84375 -12.109375 5.832031 -10.820312 5.8125 -9.5625 C 5.800781 -8.300781 5.796875 -7.003906 5.796875 -5.671875 C 5.796875 -4.953125 5.953125 -4.414062 6.265625 -4.0625 C 6.585938 -3.707031 6.988281 -3.535156 7.46875 -3.546875 C 8.050781 -3.566406 8.507812 -3.8125 8.84375 -4.28125 C 9.175781 -4.757812 9.34375 -5.46875 9.34375 -6.40625 C 9.382812 -7.601562 9.390625 -8.769531 9.359375 -9.90625 C 9.335938 -11.050781 9.328125 -12.222656 9.328125 -13.421875 C 9.328125 -13.503906 9.363281 -13.59375 9.4375 -13.6875 C 9.507812 -13.78125 9.601562 -13.828125 9.71875 -13.828125 L 13.34375 -13.828125 C 13.46875 -13.828125 13.5625 -13.78125 13.625 -13.6875 C 13.6875 -13.59375 13.71875 -13.503906 13.71875 -13.421875 C 13.71875 -12.222656 13.707031 -11.050781 13.6875 -9.90625 C 13.675781 -8.769531 13.671875 -7.601562 13.671875 -6.40625 Z M 13.671875 -6.40625 "/></g></g></g><g fill="#ffffff" fill-opacity="1"><g transform="translate(62.60488, 38.148761)"><g/></g></g><g fill="#ffffff" fill-opacity="1"><g transform="translate(68.853892, 38.148761)"><g><path d="M 20.203125 -13.828125 C 20.378906 -13.828125 20.46875 -13.726562 20.46875 -13.53125 C 20.40625 -10.3125 20.171875 -7.6875 19.765625 -5.65625 C 19.367188 -3.632812 18.757812 -2.144531 17.9375 -1.1875 C 17.113281 -0.226562 16.023438 0.25 14.671875 0.25 C 13.535156 0.25 12.65625 -0.125 12.03125 -0.875 C 11.40625 -1.625 10.96875 -2.832031 10.71875 -4.5 C 10.40625 -2.882812 9.882812 -1.6875 9.15625 -0.90625 C 8.4375 -0.132812 7.535156 0.25 6.453125 0.25 C 5.546875 0.25 4.773438 0.0234375 4.140625 -0.421875 C 3.515625 -0.867188 3.003906 -1.472656 2.609375 -2.234375 C 2.222656 -2.992188 1.914062 -3.851562 1.6875 -4.8125 C 1.457031 -5.769531 1.289062 -6.765625 1.1875 -7.796875 C 1.09375 -8.828125 1.035156 -9.835938 1.015625 -10.828125 C 1.003906 -11.828125 1 -12.726562 1 -13.53125 L 1 -13.578125 C 1 -13.742188 1.09375 -13.828125 1.28125 -13.828125 L 5 -13.828125 C 5.1875 -13.828125 5.28125 -13.726562 5.28125 -13.53125 C 5.320312 -11.125 5.375 -9.1875 5.4375 -7.71875 C 5.507812 -6.257812 5.675781 -5.191406 5.9375 -4.515625 C 6.195312 -3.835938 6.644531 -3.5 7.28125 -3.5 C 7.757812 -3.5 8.140625 -3.753906 8.421875 -4.265625 C 8.703125 -4.773438 8.84375 -5.5625 8.84375 -6.625 L 8.84375 -13.53125 C 8.84375 -13.613281 8.851562 -13.679688 8.875 -13.734375 C 8.90625 -13.796875 8.90625 -13.828125 8.875 -13.828125 L 12.84375 -13.828125 C 13.03125 -13.828125 13.125 -13.726562 13.125 -13.53125 C 13.175781 -11.007812 13.242188 -9.019531 13.328125 -7.5625 C 13.410156 -6.101562 13.578125 -5.0625 13.828125 -4.4375 C 14.085938 -3.8125 14.507812 -3.5 15.09375 -3.5 C 15.613281 -3.5 15.984375 -3.816406 16.203125 -4.453125 C 16.421875 -5.085938 16.5625 -6.132812 16.625 -7.59375 C 16.6875 -9.050781 16.738281 -11.03125 16.78125 -13.53125 C 16.78125 -13.726562 16.863281 -13.828125 17.03125 -13.828125 Z M 20.203125 -13.828125 "/></g></g></g><g fill="#ffffff" fill-opacity="1"><g transform="translate(90.325489, 38.148761)"><g><path d="M 3.546875 -15.578125 C 2.628906 -15.578125 1.96875 -15.742188 1.5625 -16.078125 C 1.15625 -16.410156 0.953125 -16.953125 0.953125 -17.703125 C 0.953125 -18.453125 1.15625 -18.992188 1.5625 -19.328125 C 1.96875 -19.660156 2.628906 -19.828125 3.546875 -19.828125 C 4.484375 -19.828125 5.148438 -19.660156 5.546875 -19.328125 C 5.953125 -18.992188 6.15625 -18.453125 6.15625 -17.703125 C 6.15625 -16.953125 5.953125 -16.410156 5.546875 -16.078125 C 5.148438 -15.742188 4.484375 -15.578125 3.546875 -15.578125 Z M 1.453125 -13.421875 C 1.453125 -13.503906 1.484375 -13.59375 1.546875 -13.6875 C 1.617188 -13.78125 1.710938 -13.828125 1.828125 -13.828125 L 5.34375 -13.828125 C 5.46875 -13.828125 5.5625 -13.78125 5.625 -13.6875 C 5.6875 -13.59375 5.71875 -13.503906 5.71875 -13.421875 C 5.71875 -12.753906 5.71875 -12.003906 5.71875 -11.171875 C 5.71875 -10.335938 5.71875 -9.503906 5.71875 -8.671875 C 5.71875 -7.835938 5.710938 -7.082031 5.703125 -6.40625 C 5.679688 -5.382812 5.675781 -4.382812 5.6875 -3.40625 C 5.707031 -2.4375 5.71875 -1.4375 5.71875 -0.40625 C 5.71875 -0.320312 5.6875 -0.234375 5.625 -0.140625 C 5.5625 -0.046875 5.46875 0 5.34375 0 L 1.828125 0 C 1.710938 0 1.617188 -0.046875 1.546875 -0.140625 C 1.484375 -0.234375 1.453125 -0.320312 1.453125 -0.40625 C 1.453125 -1.4375 1.457031 -2.4375 1.46875 -3.40625 C 1.488281 -4.382812 1.5 -5.382812 1.5 -6.40625 C 1.5 -7.082031 1.492188 -7.835938 1.484375 -8.671875 C 1.472656 -9.503906 1.460938 -10.335938 1.453125 -11.171875 C 1.453125 -12.003906 1.453125 -12.753906 1.453125 -13.421875 Z M 1.453125 -13.421875 "/></g></g></g><g fill="#ffffff" fill-opacity="1"><g transform="translate(97.424362, 38.148761)"><g><path d="M 10.15625 -3.40625 L 10.453125 -0.375 C 10.046875 -0.175781 9.5625 -0.015625 9 0.109375 C 8.445312 0.234375 7.851562 0.296875 7.21875 0.296875 C 6.1875 0.296875 5.289062 0.140625 4.53125 -0.171875 C 3.78125 -0.492188 3.195312 -1.007812 2.78125 -1.71875 C 2.375 -2.4375 2.179688 -3.40625 2.203125 -4.625 C 2.210938 -5.351562 2.21875 -6.117188 2.21875 -6.921875 C 2.21875 -7.722656 2.21875 -8.523438 2.21875 -9.328125 L 2.21875 -10.625 L 0.453125 -10.625 C 0.203125 -10.625 0.078125 -10.75 0.078125 -11 L 0.078125 -13.453125 C 0.078125 -13.703125 0.203125 -13.828125 0.453125 -13.828125 L 2.203125 -13.828125 C 2.179688 -14.304688 2.171875 -14.78125 2.171875 -15.25 C 2.171875 -15.71875 2.171875 -16.1875 2.171875 -16.65625 C 2.171875 -16.882812 2.335938 -17.023438 2.671875 -17.078125 L 5.84375 -18.09375 C 6.113281 -18.09375 6.25 -17.953125 6.25 -17.671875 L 6.25 -13.828125 L 9.75 -13.828125 C 10 -13.828125 10.125 -13.703125 10.125 -13.453125 L 10.125 -11.046875 C 10.125 -10.960938 10.085938 -10.878906 10.015625 -10.796875 C 9.953125 -10.710938 9.863281 -10.671875 9.75 -10.671875 L 6.25 -10.65625 C 6.25 -10.4375 6.242188 -10.21875 6.234375 -10 C 6.222656 -9.78125 6.21875 -9.554688 6.21875 -9.328125 C 6.207031 -8.609375 6.203125 -7.890625 6.203125 -7.171875 C 6.203125 -6.453125 6.203125 -5.769531 6.203125 -5.125 C 6.203125 -3.726562 6.742188 -3.03125 7.828125 -3.03125 C 8.378906 -3.03125 8.820312 -3.097656 9.15625 -3.234375 C 9.5 -3.378906 9.726562 -3.484375 9.84375 -3.546875 C 9.914062 -3.578125 9.984375 -3.582031 10.046875 -3.5625 C 10.117188 -3.550781 10.15625 -3.5 10.15625 -3.40625 Z M 10.15625 -3.40625 "/></g></g></g><g fill="#ffffff" fill-opacity="1"><g transform="translate(108.172663, 38.148761)"><g><path d="M 13.75 -8.25 C 13.726562 -7.164062 13.726562 -5.957031 13.75 -4.625 C 13.769531 -3.289062 13.78125 -1.890625 13.78125 -0.421875 C 13.78125 -0.328125 13.738281 -0.234375 13.65625 -0.140625 C 13.582031 -0.046875 13.488281 0 13.375 0 L 9.84375 0 C 9.726562 0 9.632812 -0.046875 9.5625 -0.140625 C 9.488281 -0.234375 9.453125 -0.328125 9.453125 -0.421875 C 9.453125 -1.910156 9.457031 -3.328125 9.46875 -4.671875 C 9.488281 -6.023438 9.5 -7.234375 9.5 -8.296875 C 9.5 -9.117188 9.359375 -9.6875 9.078125 -10 C 8.796875 -10.3125 8.367188 -10.460938 7.796875 -10.453125 C 6.816406 -10.421875 6.117188 -9.921875 5.703125 -8.953125 C 5.679688 -7.503906 5.675781 -6.082031 5.6875 -4.6875 C 5.707031 -3.289062 5.71875 -1.867188 5.71875 -0.421875 C 5.71875 -0.328125 5.679688 -0.234375 5.609375 -0.140625 C 5.535156 -0.046875 5.441406 0 5.328125 0 L 1.703125 0 C 1.585938 0 1.488281 -0.046875 1.40625 -0.140625 C 1.332031 -0.234375 1.296875 -0.328125 1.296875 -0.421875 C 1.296875 -1.941406 1.304688 -3.425781 1.328125 -4.875 C 1.359375 -6.320312 1.375 -7.804688 1.375 -9.328125 C 1.375 -10.722656 1.359375 -12.09375 1.328125 -13.4375 C 1.304688 -14.789062 1.296875 -16.203125 1.296875 -17.671875 C 1.296875 -17.953125 1.429688 -18.09375 1.703125 -18.09375 L 5.328125 -18.09375 C 5.585938 -18.09375 5.71875 -17.953125 5.71875 -17.671875 C 5.707031 -17.109375 5.703125 -16.5625 5.703125 -16.03125 C 5.703125 -15.507812 5.703125 -15.082031 5.703125 -14.75 C 5.703125 -14.1875 5.691406 -13.632812 5.671875 -13.09375 C 5.660156 -12.5625 5.613281 -12.039062 5.53125 -11.53125 L 5.546875 -11.46875 C 6.035156 -12.351562 6.640625 -13.003906 7.359375 -13.421875 C 8.085938 -13.835938 8.9375 -14.046875 9.90625 -14.046875 C 11.21875 -14.046875 12.195312 -13.59375 12.84375 -12.6875 C 13.5 -11.789062 13.800781 -10.3125 13.75 -8.25 Z M 13.75 -8.25 "/></g></g></g></svg>