<svg xmlns="http://www.w3.org/2000/svg" xmlns:xlink="http://www.w3.org/1999/xlink" width="400" zoomAndPan="magnify" viewBox="0 0 300 62.999997" height="84" preserveAspectRatio="xMidYMid meet" version="1.0"><defs><g/><clipPath id="f3c93b22f7"><path d="M 0 0 L 300 0 L 300 62.398438 L 0 62.398438 Z M 0 0 " clip-rule="nonzero"/></clipPath><clipPath id="b65c5f478a"><path d="M 31.199219 0 L 268.613281 0 C 285.84375 0 299.8125 13.96875 299.8125 31.199219 C 299.8125 48.429688 285.84375 62.398438 268.613281 62.398438 L 31.199219 62.398438 C 13.96875 62.398438 0 48.429688 0 31.199219 C 0 13.96875 13.96875 0 31.199219 0 Z M 31.199219 0 " clip-rule="nonzero"/></clipPath><clipPath id="e9ffae6745"><path d="M 122.703125 1.300781 L 182.703125 1.300781 L 182.703125 61.300781 L 122.703125 61.300781 Z M 122.703125 1.300781 " clip-rule="nonzero"/></clipPath></defs><g clip-path="url(#f3c93b22f7)"><g clip-path="url(#b65c5f478a)"><path fill="#5f259f" d="M 0 0 L 299.800781 0 L 299.800781 62.398438 L 0 62.398438 Z M 0 0 " fill-opacity="1" fill-rule="nonzero"/></g></g><g clip-path="url(#e9ffae6745)"><path fill="#5f259f" d="M 182.703125 31.300781 C 182.703125 32.28125 182.65625 33.261719 182.558594 34.242188 C 182.464844 35.21875 182.320312 36.191406 182.128906 37.152344 C 181.9375 38.117188 181.699219 39.070312 181.414062 40.007812 C 181.128906 40.949219 180.796875 41.875 180.421875 42.78125 C 180.042969 43.6875 179.625 44.574219 179.160156 45.441406 C 178.699219 46.308594 178.195312 47.152344 177.648438 47.96875 C 177.101562 48.785156 176.519531 49.574219 175.894531 50.332031 C 175.269531 51.089844 174.613281 51.820312 173.917969 52.511719 C 173.222656 53.207031 172.496094 53.867188 171.734375 54.492188 C 170.976562 55.113281 170.1875 55.699219 169.371094 56.246094 C 168.554688 56.789062 167.710938 57.292969 166.847656 57.757812 C 165.980469 58.222656 165.09375 58.640625 164.183594 59.015625 C 163.277344 59.394531 162.351562 59.722656 161.414062 60.007812 C 160.472656 60.292969 159.519531 60.53125 158.558594 60.722656 C 157.59375 60.914062 156.621094 61.058594 155.644531 61.15625 C 154.667969 61.253906 153.6875 61.300781 152.703125 61.300781 C 151.722656 61.300781 150.742188 61.253906 149.761719 61.15625 C 148.785156 61.058594 147.816406 60.914062 146.851562 60.722656 C 145.886719 60.53125 144.9375 60.292969 143.996094 60.007812 C 143.054688 59.722656 142.132812 59.394531 141.222656 59.015625 C 140.316406 58.640625 139.429688 58.222656 138.5625 57.757812 C 137.695312 57.292969 136.855469 56.789062 136.035156 56.246094 C 135.21875 55.699219 134.433594 55.113281 133.671875 54.492188 C 132.914062 53.867188 132.183594 53.207031 131.492188 52.511719 C 130.796875 51.820312 130.136719 51.089844 129.511719 50.332031 C 128.890625 49.574219 128.304688 48.785156 127.761719 47.96875 C 127.214844 47.152344 126.710938 46.308594 126.246094 45.441406 C 125.78125 44.574219 125.363281 43.6875 124.988281 42.78125 C 124.613281 41.875 124.28125 40.949219 123.996094 40.007812 C 123.710938 39.070312 123.472656 38.117188 123.28125 37.152344 C 123.089844 36.191406 122.945312 35.21875 122.847656 34.242188 C 122.753906 33.261719 122.703125 32.28125 122.703125 31.300781 C 122.703125 30.316406 122.753906 29.335938 122.847656 28.359375 C 122.945312 27.382812 123.089844 26.410156 123.28125 25.449219 C 123.472656 24.484375 123.710938 23.53125 123.996094 22.59375 C 124.28125 21.652344 124.613281 20.726562 124.988281 19.820312 C 125.363281 18.914062 125.78125 18.023438 126.246094 17.160156 C 126.710938 16.292969 127.214844 15.449219 127.761719 14.632812 C 128.304688 13.816406 128.890625 13.027344 129.511719 12.269531 C 130.136719 11.507812 130.796875 10.78125 131.492188 10.085938 C 132.183594 9.390625 132.914062 8.734375 133.671875 8.109375 C 134.433594 7.488281 135.21875 6.902344 136.035156 6.355469 C 136.855469 5.808594 137.695312 5.304688 138.5625 4.84375 C 139.429688 4.378906 140.316406 3.960938 141.222656 3.585938 C 142.132812 3.207031 143.054688 2.878906 143.996094 2.59375 C 144.9375 2.308594 145.886719 2.070312 146.851562 1.875 C 147.816406 1.683594 148.785156 1.542969 149.761719 1.445312 C 150.742188 1.347656 151.722656 1.300781 152.703125 1.300781 C 153.6875 1.300781 154.667969 1.347656 155.644531 1.445312 C 156.621094 1.542969 157.59375 1.683594 158.558594 1.875 C 159.519531 2.070312 160.472656 2.308594 161.414062 2.59375 C 162.351562 2.878906 163.277344 3.207031 164.183594 3.585938 C 165.09375 3.960938 165.980469 4.378906 166.847656 4.84375 C 167.710938 5.304688 168.554688 5.808594 169.371094 6.355469 C 170.1875 6.902344 170.976562 7.488281 171.734375 8.109375 C 172.496094 8.734375 173.222656 9.390625 173.917969 10.085938 C 174.613281 10.78125 175.269531 11.507812 175.894531 12.269531 C 176.519531 13.027344 177.101562 13.816406 177.648438 14.632812 C 178.195312 15.449219 178.699219 16.292969 179.160156 17.160156 C 179.625 18.023438 180.042969 18.914062 180.421875 19.820312 C 180.796875 20.726562 181.128906 21.652344 181.414062 22.59375 C 181.699219 23.53125 181.9375 24.484375 182.128906 25.449219 C 182.320312 26.410156 182.464844 27.382812 182.558594 28.359375 C 182.65625 29.335938 182.703125 30.316406 182.703125 31.300781 Z M 182.703125 31.300781 " fill-opacity="1" fill-rule="nonzero"/></g><path fill="#ffffff" d="M 166.328125 23.480469 C 166.328125 22.300781 165.34375 21.316406 164.164062 21.316406 L 160.128906 21.316406 L 150.882812 10.742188 C 150.046875 9.757812 148.71875 9.414062 147.34375 9.757812 L 144.148438 10.742188 C 143.65625 10.890625 143.457031 11.578125 143.800781 11.921875 L 153.933594 21.464844 L 138.6875 21.464844 C 138.195312 21.464844 137.851562 21.808594 137.851562 22.300781 L 137.851562 23.972656 C 137.851562 25.152344 138.835938 26.136719 140.015625 26.136719 L 142.375 26.136719 L 142.375 34.203125 C 142.375 40.25 145.574219 43.742188 150.933594 43.742188 C 152.605469 43.742188 153.933594 43.59375 155.605469 42.90625 L 155.605469 48.269531 C 155.605469 49.792969 156.785156 50.972656 158.308594 50.972656 L 160.671875 50.972656 C 161.164062 50.972656 161.65625 50.480469 161.65625 49.988281 L 161.65625 25.988281 L 165.492188 25.988281 C 165.984375 25.988281 166.328125 25.644531 166.328125 25.152344 C 166.328125 25.152344 166.328125 23.480469 166.328125 23.480469 Z M 155.605469 37.890625 C 154.621094 38.382812 153.246094 38.578125 152.261719 38.578125 C 149.554688 38.578125 148.230469 37.25 148.230469 34.203125 L 148.230469 26.136719 L 155.605469 26.136719 C 155.605469 26.136719 155.605469 37.890625 155.605469 37.890625 Z M 155.605469 37.890625 " fill-opacity="1" fill-rule="nonzero"/><g fill="#ffffff" fill-opacity="1"><g transform="translate(12.071589, 40.198767)"><g><path d="M 8.96875 -18.71875 C 11.695312 -18.71875 13.679688 -18.253906 14.921875 -17.328125 C 16.171875 -16.398438 16.796875 -14.898438 16.796875 -12.828125 C 16.796875 -11.347656 16.4375 -10.066406 15.71875 -8.984375 C 15.007812 -7.910156 14.003906 -7.078125 12.703125 -6.484375 C 11.410156 -5.898438 9.867188 -5.609375 8.078125 -5.609375 L 7.078125 -5.609375 C 7.078125 -4.734375 7.078125 -3.863281 7.078125 -3 C 7.085938 -2.132812 7.09375 -1.269531 7.09375 -0.40625 C 7.09375 -0.132812 6.960938 0 6.703125 0 L 2.4375 0 C 2.164062 0 2.03125 -0.132812 2.03125 -0.40625 C 2.03125 -1.894531 2.035156 -3.382812 2.046875 -4.875 C 2.066406 -6.375 2.078125 -7.875 2.078125 -9.375 C 2.078125 -10.863281 2.066406 -12.351562 2.046875 -13.84375 C 2.035156 -15.34375 2.03125 -16.832031 2.03125 -18.3125 C 2.03125 -18.582031 2.164062 -18.71875 2.4375 -18.71875 Z M 7.984375 -9.453125 C 9.265625 -9.453125 10.179688 -9.695312 10.734375 -10.1875 C 11.296875 -10.6875 11.578125 -11.492188 11.578125 -12.609375 C 11.578125 -13.453125 11.328125 -14.054688 10.828125 -14.421875 C 10.328125 -14.796875 9.515625 -14.984375 8.390625 -14.984375 L 7.09375 -14.984375 C 7.082031 -14.265625 7.078125 -13.492188 7.078125 -12.671875 C 7.078125 -11.859375 7.078125 -10.785156 7.078125 -9.453125 Z M 7.984375 -9.453125 "/></g></g></g><g fill="#ffffff" fill-opacity="1"><g transform="translate(29.937783, 40.198767)"><g><path d="M 8.3125 -15.171875 C 12.332031 -15.171875 14.34375 -13.375 14.34375 -9.78125 C 14.34375 -7.53125 14.351562 -5.664062 14.375 -4.1875 C 14.40625 -2.707031 14.460938 -1.4375 14.546875 -0.375 C 14.566406 -0.300781 14.550781 -0.21875 14.5 -0.125 C 14.445312 -0.0390625 14.363281 0 14.25 0 L 10.265625 0 C 10.222656 0 10.160156 -0.015625 10.078125 -0.046875 C 10.003906 -0.0859375 9.9375 -0.21875 9.875 -0.4375 C 9.84375 -0.570312 9.804688 -0.710938 9.765625 -0.859375 C 9.734375 -1.003906 9.707031 -1.148438 9.6875 -1.296875 C 9.15625 -0.773438 8.535156 -0.382812 7.828125 -0.125 C 7.128906 0.132812 6.398438 0.265625 5.640625 0.265625 C 4.753906 0.265625 3.945312 0.125 3.21875 -0.15625 C 2.5 -0.445312 1.921875 -0.894531 1.484375 -1.5 C 1.054688 -2.101562 0.84375 -2.875 0.84375 -3.8125 C 0.84375 -5.5 1.554688 -6.769531 2.984375 -7.625 C 4.410156 -8.476562 6.644531 -8.863281 9.6875 -8.78125 L 9.6875 -9.6875 C 9.6875 -10.675781 9.546875 -11.351562 9.265625 -11.71875 C 8.992188 -12.082031 8.5625 -12.265625 7.96875 -12.265625 C 7.351562 -12.265625 6.859375 -12.097656 6.484375 -11.765625 C 6.117188 -11.429688 5.972656 -10.859375 6.046875 -10.046875 C 6.085938 -9.796875 6 -9.671875 5.78125 -9.671875 L 1.734375 -9.671875 C 1.566406 -9.671875 1.472656 -9.785156 1.453125 -10.015625 C 1.378906 -11.742188 1.878906 -13.035156 2.953125 -13.890625 C 4.023438 -14.742188 5.8125 -15.171875 8.3125 -15.171875 Z M 7.078125 -2.78125 C 7.679688 -2.78125 8.195312 -2.898438 8.625 -3.140625 C 9.0625 -3.390625 9.4375 -3.738281 9.75 -4.1875 L 9.75 -6.609375 C 8.9375 -6.597656 8.175781 -6.535156 7.46875 -6.421875 C 6.769531 -6.316406 6.203125 -6.117188 5.765625 -5.828125 C 5.335938 -5.546875 5.125 -5.113281 5.125 -4.53125 C 5.125 -4.03125 5.289062 -3.613281 5.625 -3.28125 C 5.957031 -2.945312 6.441406 -2.78125 7.078125 -2.78125 Z M 7.078125 -2.78125 "/></g></g></g><g fill="#ffffff" fill-opacity="1"><g transform="translate(45.644924, 40.198767)"><g><path d="M 14.765625 -6.90625 C 14.765625 -6.332031 14.769531 -5.765625 14.78125 -5.203125 C 14.789062 -4.648438 14.796875 -4.085938 14.796875 -3.515625 C 14.828125 -1.046875 14.476562 0.945312 13.75 2.46875 C 13.019531 3.988281 11.976562 5.085938 10.625 5.765625 C 9.28125 6.453125 7.703125 6.796875 5.890625 6.796875 C 5.148438 6.796875 4.4375 6.726562 3.75 6.59375 C 3.070312 6.46875 2.535156 6.296875 2.140625 6.078125 L 2.453125 2.265625 C 2.492188 2.066406 2.59375 2.023438 2.75 2.140625 C 2.914062 2.222656 3.234375 2.332031 3.703125 2.46875 C 4.171875 2.601562 4.765625 2.671875 5.484375 2.671875 C 6.703125 2.671875 7.691406 2.5 8.453125 2.15625 C 9.222656 1.8125 9.785156 1.222656 10.140625 0.390625 C 10.503906 -0.429688 10.6875 -1.5625 10.6875 -3 L 10.578125 -3.046875 C 10.203125 -2.003906 9.617188 -1.1875 8.828125 -0.59375 C 8.035156 0 7.128906 0.296875 6.109375 0.296875 C 4.660156 0.296875 3.535156 -0.113281 2.734375 -0.9375 C 1.929688 -1.769531 1.550781 -3.210938 1.59375 -5.265625 C 1.625 -6.828125 1.625 -8.359375 1.59375 -9.859375 C 1.570312 -11.367188 1.5625 -12.914062 1.5625 -14.5 C 1.5625 -14.59375 1.597656 -14.6875 1.671875 -14.78125 C 1.742188 -14.882812 1.84375 -14.9375 1.96875 -14.9375 L 5.90625 -14.9375 C 6.039062 -14.9375 6.140625 -14.882812 6.203125 -14.78125 C 6.273438 -14.6875 6.3125 -14.59375 6.3125 -14.5 C 6.3125 -13.070312 6.300781 -11.675781 6.28125 -10.3125 C 6.269531 -8.957031 6.265625 -7.5625 6.265625 -6.125 C 6.265625 -5.351562 6.4375 -4.773438 6.78125 -4.390625 C 7.125 -4.003906 7.554688 -3.816406 8.078125 -3.828125 C 8.703125 -3.847656 9.191406 -4.113281 9.546875 -4.625 C 9.910156 -5.144531 10.09375 -5.90625 10.09375 -6.90625 C 10.132812 -8.207031 10.140625 -9.472656 10.109375 -10.703125 C 10.085938 -11.941406 10.078125 -13.207031 10.078125 -14.5 C 10.078125 -14.59375 10.113281 -14.6875 10.1875 -14.78125 C 10.269531 -14.882812 10.375 -14.9375 10.5 -14.9375 L 14.421875 -14.9375 C 14.546875 -14.9375 14.644531 -14.882812 14.71875 -14.78125 C 14.789062 -14.6875 14.828125 -14.59375 14.828125 -14.5 C 14.828125 -13.207031 14.816406 -11.941406 14.796875 -10.703125 C 14.773438 -9.472656 14.765625 -8.207031 14.765625 -6.90625 Z M 14.765625 -6.90625 "/></g></g></g><g fill="#ffffff" fill-opacity="1"><g transform="translate(62.026762, 40.198767)"><g/></g></g><g fill="#ffffff" fill-opacity="1"><g transform="translate(68.773809, 40.198767)"><g><path d="M 21.8125 -14.9375 C 22.007812 -14.9375 22.109375 -14.828125 22.109375 -14.609375 C 22.035156 -11.128906 21.78125 -8.296875 21.34375 -6.109375 C 20.914062 -3.921875 20.253906 -2.3125 19.359375 -1.28125 C 18.472656 -0.25 17.300781 0.265625 15.84375 0.265625 C 14.625 0.265625 13.675781 -0.132812 13 -0.9375 C 12.320312 -1.75 11.847656 -3.054688 11.578125 -4.859375 C 11.234375 -3.109375 10.671875 -1.816406 9.890625 -0.984375 C 9.109375 -0.148438 8.132812 0.265625 6.96875 0.265625 C 6 0.265625 5.171875 0.0234375 4.484375 -0.453125 C 3.796875 -0.941406 3.238281 -1.59375 2.8125 -2.40625 C 2.394531 -3.226562 2.0625 -4.15625 1.8125 -5.1875 C 1.570312 -6.226562 1.398438 -7.304688 1.296875 -8.421875 C 1.191406 -9.535156 1.128906 -10.628906 1.109375 -11.703125 C 1.085938 -12.773438 1.078125 -13.742188 1.078125 -14.609375 L 1.078125 -14.65625 C 1.078125 -14.84375 1.175781 -14.9375 1.375 -14.9375 L 5.40625 -14.9375 C 5.601562 -14.9375 5.703125 -14.828125 5.703125 -14.609375 C 5.753906 -12.015625 5.816406 -9.925781 5.890625 -8.34375 C 5.960938 -6.757812 6.132812 -5.601562 6.40625 -4.875 C 6.6875 -4.144531 7.171875 -3.78125 7.859375 -3.78125 C 8.378906 -3.78125 8.789062 -4.050781 9.09375 -4.59375 C 9.40625 -5.144531 9.5625 -6 9.5625 -7.15625 L 9.5625 -14.609375 C 9.5625 -14.691406 9.570312 -14.765625 9.59375 -14.828125 C 9.625 -14.898438 9.617188 -14.9375 9.578125 -14.9375 L 13.875 -14.9375 C 14.070312 -14.9375 14.171875 -14.828125 14.171875 -14.609375 C 14.222656 -11.890625 14.296875 -9.742188 14.390625 -8.171875 C 14.484375 -6.597656 14.664062 -5.472656 14.9375 -4.796875 C 15.21875 -4.117188 15.675781 -3.78125 16.3125 -3.78125 C 16.863281 -3.78125 17.253906 -4.117188 17.484375 -4.796875 C 17.722656 -5.484375 17.878906 -6.613281 17.953125 -8.1875 C 18.023438 -9.769531 18.078125 -11.910156 18.109375 -14.609375 C 18.109375 -14.828125 18.203125 -14.9375 18.390625 -14.9375 Z M 21.8125 -14.9375 "/></g></g></g><g fill="#ffffff" fill-opacity="1"><g transform="translate(91.956676, 40.198767)"><g><path d="M 3.828125 -16.828125 C 2.835938 -16.828125 2.125 -17.003906 1.6875 -17.359375 C 1.25 -17.722656 1.03125 -18.304688 1.03125 -19.109375 C 1.03125 -19.921875 1.25 -20.503906 1.6875 -20.859375 C 2.125 -21.222656 2.835938 -21.40625 3.828125 -21.40625 C 4.835938 -21.40625 5.554688 -21.222656 5.984375 -20.859375 C 6.421875 -20.503906 6.640625 -19.921875 6.640625 -19.109375 C 6.640625 -18.304688 6.421875 -17.722656 5.984375 -17.359375 C 5.554688 -17.003906 4.835938 -16.828125 3.828125 -16.828125 Z M 1.5625 -14.5 C 1.5625 -14.59375 1.597656 -14.6875 1.671875 -14.78125 C 1.742188 -14.882812 1.84375 -14.9375 1.96875 -14.9375 L 5.78125 -14.9375 C 5.90625 -14.9375 6.003906 -14.882812 6.078125 -14.78125 C 6.148438 -14.6875 6.1875 -14.59375 6.1875 -14.5 C 6.1875 -13.78125 6.1875 -12.96875 6.1875 -12.0625 C 6.1875 -11.164062 6.1875 -10.265625 6.1875 -9.359375 C 6.1875 -8.460938 6.175781 -7.644531 6.15625 -6.90625 C 6.132812 -5.8125 6.132812 -4.738281 6.15625 -3.6875 C 6.175781 -2.632812 6.1875 -1.550781 6.1875 -0.4375 C 6.1875 -0.34375 6.148438 -0.242188 6.078125 -0.140625 C 6.003906 -0.046875 5.90625 0 5.78125 0 L 1.96875 0 C 1.84375 0 1.742188 -0.046875 1.671875 -0.140625 C 1.597656 -0.242188 1.5625 -0.34375 1.5625 -0.4375 C 1.5625 -1.550781 1.570312 -2.632812 1.59375 -3.6875 C 1.613281 -4.738281 1.625 -5.8125 1.625 -6.90625 C 1.625 -7.644531 1.617188 -8.460938 1.609375 -9.359375 C 1.597656 -10.265625 1.585938 -11.164062 1.578125 -12.0625 C 1.566406 -12.96875 1.5625 -13.78125 1.5625 -14.5 Z M 1.5625 -14.5 "/></g></g></g><g fill="#ffffff" fill-opacity="1"><g transform="translate(99.621321, 40.198767)"><g><path d="M 10.96875 -3.671875 L 11.28125 -0.40625 C 10.851562 -0.1875 10.335938 -0.0078125 9.734375 0.125 C 9.128906 0.257812 8.484375 0.328125 7.796875 0.328125 C 6.679688 0.328125 5.710938 0.15625 4.890625 -0.1875 C 4.078125 -0.53125 3.445312 -1.085938 3 -1.859375 C 2.5625 -2.640625 2.351562 -3.6875 2.375 -5 C 2.394531 -5.789062 2.40625 -6.617188 2.40625 -7.484375 C 2.40625 -8.347656 2.40625 -9.210938 2.40625 -10.078125 L 2.40625 -11.46875 L 0.484375 -11.46875 C 0.210938 -11.46875 0.078125 -11.601562 0.078125 -11.875 L 0.078125 -14.53125 C 0.078125 -14.800781 0.210938 -14.9375 0.484375 -14.9375 L 2.375 -14.9375 C 2.351562 -15.457031 2.34375 -15.96875 2.34375 -16.46875 C 2.34375 -16.96875 2.34375 -17.472656 2.34375 -17.984375 C 2.34375 -18.234375 2.523438 -18.382812 2.890625 -18.4375 L 6.3125 -19.546875 C 6.601562 -19.546875 6.75 -19.394531 6.75 -19.09375 L 6.75 -14.9375 L 10.53125 -14.9375 C 10.800781 -14.9375 10.9375 -14.800781 10.9375 -14.53125 L 10.9375 -11.9375 C 10.9375 -11.84375 10.898438 -11.75 10.828125 -11.65625 C 10.753906 -11.570312 10.65625 -11.53125 10.53125 -11.53125 L 6.75 -11.5 C 6.75 -11.269531 6.742188 -11.035156 6.734375 -10.796875 C 6.722656 -10.566406 6.71875 -10.328125 6.71875 -10.078125 C 6.707031 -9.296875 6.703125 -8.519531 6.703125 -7.75 C 6.703125 -6.976562 6.703125 -6.238281 6.703125 -5.53125 C 6.703125 -4.019531 7.285156 -3.265625 8.453125 -3.265625 C 9.046875 -3.265625 9.523438 -3.335938 9.890625 -3.484375 C 10.265625 -3.640625 10.515625 -3.753906 10.640625 -3.828125 C 10.710938 -3.867188 10.785156 -3.878906 10.859375 -3.859375 C 10.929688 -3.835938 10.96875 -3.773438 10.96875 -3.671875 Z M 10.96875 -3.671875 "/></g></g></g><g fill="#ffffff" fill-opacity="1"><g transform="translate(111.226247, 40.198767)"><g><path d="M 14.84375 -8.90625 C 14.832031 -7.738281 14.832031 -6.429688 14.84375 -4.984375 C 14.863281 -3.546875 14.875 -2.035156 14.875 -0.453125 C 14.875 -0.347656 14.832031 -0.242188 14.75 -0.140625 C 14.675781 -0.046875 14.570312 0 14.4375 0 L 10.640625 0 C 10.515625 0 10.410156 -0.046875 10.328125 -0.140625 C 10.242188 -0.242188 10.203125 -0.347656 10.203125 -0.453125 C 10.203125 -2.054688 10.210938 -3.585938 10.234375 -5.046875 C 10.253906 -6.503906 10.265625 -7.8125 10.265625 -8.96875 C 10.265625 -9.84375 10.109375 -10.453125 9.796875 -10.796875 C 9.492188 -11.140625 9.035156 -11.300781 8.421875 -11.28125 C 7.359375 -11.25 6.601562 -10.710938 6.15625 -9.671875 C 6.132812 -8.097656 6.132812 -6.5625 6.15625 -5.0625 C 6.175781 -3.5625 6.1875 -2.023438 6.1875 -0.453125 C 6.1875 -0.347656 6.144531 -0.242188 6.0625 -0.140625 C 5.976562 -0.046875 5.875 0 5.75 0 L 1.84375 0 C 1.707031 0 1.597656 -0.046875 1.515625 -0.140625 C 1.441406 -0.242188 1.40625 -0.347656 1.40625 -0.453125 C 1.40625 -2.097656 1.414062 -3.703125 1.4375 -5.265625 C 1.46875 -6.828125 1.484375 -8.429688 1.484375 -10.078125 C 1.484375 -11.585938 1.46875 -13.070312 1.4375 -14.53125 C 1.414062 -15.988281 1.40625 -17.507812 1.40625 -19.09375 C 1.40625 -19.394531 1.550781 -19.546875 1.84375 -19.546875 L 5.75 -19.546875 C 6.039062 -19.546875 6.1875 -19.394531 6.1875 -19.09375 C 6.164062 -18.476562 6.15625 -17.882812 6.15625 -17.3125 C 6.15625 -16.75 6.15625 -16.289062 6.15625 -15.9375 C 6.15625 -15.320312 6.144531 -14.722656 6.125 -14.140625 C 6.113281 -13.566406 6.0625 -13.003906 5.96875 -12.453125 L 6 -12.390625 C 6.519531 -13.347656 7.171875 -14.050781 7.953125 -14.5 C 8.734375 -14.945312 9.644531 -15.171875 10.6875 -15.171875 C 12.113281 -15.171875 13.175781 -14.6875 13.875 -13.71875 C 14.582031 -12.75 14.90625 -11.144531 14.84375 -8.90625 Z M 14.84375 -8.90625 "/></g></g></g><g fill="#ffffff" fill-opacity="1"><g transform="translate(173.457427, 40.198767)"><g><path d="M 8.96875 -18.71875 C 11.695312 -18.71875 13.679688 -18.253906 14.921875 -17.328125 C 16.171875 -16.398438 16.796875 -14.898438 16.796875 -12.828125 C 16.796875 -11.347656 16.4375 -10.066406 15.71875 -8.984375 C 15.007812 -7.910156 14.003906 -7.078125 12.703125 -6.484375 C 11.410156 -5.898438 9.867188 -5.609375 8.078125 -5.609375 L 7.078125 -5.609375 C 7.078125 -4.734375 7.078125 -3.863281 7.078125 -3 C 7.085938 -2.132812 7.09375 -1.269531 7.09375 -0.40625 C 7.09375 -0.132812 6.960938 0 6.703125 0 L 2.4375 0 C 2.164062 0 2.03125 -0.132812 2.03125 -0.40625 C 2.03125 -1.894531 2.035156 -3.382812 2.046875 -4.875 C 2.066406 -6.375 2.078125 -7.875 2.078125 -9.375 C 2.078125 -10.863281 2.066406 -12.351562 2.046875 -13.84375 C 2.035156 -15.34375 2.03125 -16.832031 2.03125 -18.3125 C 2.03125 -18.582031 2.164062 -18.71875 2.4375 -18.71875 Z M 7.984375 -9.453125 C 9.265625 -9.453125 10.179688 -9.695312 10.734375 -10.1875 C 11.296875 -10.6875 11.578125 -11.492188 11.578125 -12.609375 C 11.578125 -13.453125 11.328125 -14.054688 10.828125 -14.421875 C 10.328125 -14.796875 9.515625 -14.984375 8.390625 -14.984375 L 7.09375 -14.984375 C 7.082031 -14.265625 7.078125 -13.492188 7.078125 -12.671875 C 7.078125 -11.859375 7.078125 -10.785156 7.078125 -9.453125 Z M 7.984375 -9.453125 "/></g></g></g><g fill="#ffffff" fill-opacity="1"><g transform="translate(191.323621, 40.198767)"><g><path d="M 14.84375 -8.90625 C 14.832031 -7.738281 14.832031 -6.429688 14.84375 -4.984375 C 14.863281 -3.546875 14.875 -2.035156 14.875 -0.453125 C 14.875 -0.347656 14.832031 -0.242188 14.75 -0.140625 C 14.675781 -0.046875 14.570312 0 14.4375 0 L 10.640625 0 C 10.515625 0 10.410156 -0.046875 10.328125 -0.140625 C 10.242188 -0.242188 10.203125 -0.347656 10.203125 -0.453125 C 10.203125 -2.054688 10.210938 -3.585938 10.234375 -5.046875 C 10.253906 -6.503906 10.265625 -7.8125 10.265625 -8.96875 C 10.265625 -9.84375 10.109375 -10.453125 9.796875 -10.796875 C 9.492188 -11.140625 9.035156 -11.300781 8.421875 -11.28125 C 7.359375 -11.25 6.601562 -10.710938 6.15625 -9.671875 C 6.132812 -8.097656 6.132812 -6.5625 6.15625 -5.0625 C 6.175781 -3.5625 6.1875 -2.023438 6.1875 -0.453125 C 6.1875 -0.347656 6.144531 -0.242188 6.0625 -0.140625 C 5.976562 -0.046875 5.875 0 5.75 0 L 1.84375 0 C 1.707031 0 1.597656 -0.046875 1.515625 -0.140625 C 1.441406 -0.242188 1.40625 -0.347656 1.40625 -0.453125 C 1.40625 -2.097656 1.414062 -3.703125 1.4375 -5.265625 C 1.46875 -6.828125 1.484375 -8.429688 1.484375 -10.078125 C 1.484375 -11.585938 1.46875 -13.070312 1.4375 -14.53125 C 1.414062 -15.988281 1.40625 -17.507812 1.40625 -19.09375 C 1.40625 -19.394531 1.550781 -19.546875 1.84375 -19.546875 L 5.75 -19.546875 C 6.039062 -19.546875 6.1875 -19.394531 6.1875 -19.09375 C 6.164062 -18.476562 6.15625 -17.882812 6.15625 -17.3125 C 6.15625 -16.75 6.15625 -16.289062 6.15625 -15.9375 C 6.15625 -15.320312 6.144531 -14.722656 6.125 -14.140625 C 6.113281 -13.566406 6.0625 -13.003906 5.96875 -12.453125 L 6 -12.390625 C 6.519531 -13.347656 7.171875 -14.050781 7.953125 -14.5 C 8.734375 -14.945312 9.644531 -15.171875 10.6875 -15.171875 C 12.113281 -15.171875 13.175781 -14.6875 13.875 -13.71875 C 14.582031 -12.75 14.90625 -11.144531 14.84375 -8.90625 Z M 14.84375 -8.90625 "/></g></g></g><g fill="#ffffff" fill-opacity="1"><g transform="translate(207.759442, 40.198767)"><g><path d="M 7.90625 -15.171875 C 12.457031 -15.171875 14.734375 -12.585938 14.734375 -7.421875 C 14.734375 -2.253906 12.457031 0.328125 7.90625 0.328125 C 3.28125 0.328125 0.96875 -2.253906 0.96875 -7.421875 C 0.96875 -12.585938 3.28125 -15.171875 7.90625 -15.171875 Z M 7.90625 -2.96875 C 8.34375 -2.96875 8.726562 -3.085938 9.0625 -3.328125 C 9.394531 -3.578125 9.65625 -4.023438 9.84375 -4.671875 C 10.03125 -5.316406 10.125 -6.234375 10.125 -7.421875 C 10.125 -9.078125 9.953125 -10.234375 9.609375 -10.890625 C 9.265625 -11.546875 8.695312 -11.875 7.90625 -11.875 C 7.0625 -11.875 6.460938 -11.546875 6.109375 -10.890625 C 5.765625 -10.234375 5.59375 -9.078125 5.59375 -7.421875 C 5.59375 -6.234375 5.691406 -5.316406 5.890625 -4.671875 C 6.085938 -4.023438 6.359375 -3.578125 6.703125 -3.328125 C 7.054688 -3.085938 7.457031 -2.96875 7.90625 -2.96875 Z M 7.90625 -2.96875 "/></g></g></g><g fill="#ffffff" fill-opacity="1"><g transform="translate(223.466582, 40.198767)"><g><path d="M 14.984375 -8.90625 C 14.960938 -7.738281 14.960938 -6.429688 14.984375 -4.984375 C 15.003906 -3.546875 15.015625 -2.035156 15.015625 -0.453125 C 15.015625 -0.347656 14.972656 -0.242188 14.890625 -0.140625 C 14.804688 -0.046875 14.703125 0 14.578125 0 L 10.765625 0 C 10.640625 0 10.535156 -0.046875 10.453125 -0.140625 C 10.378906 -0.242188 10.34375 -0.347656 10.34375 -0.453125 C 10.34375 -2.054688 10.347656 -3.585938 10.359375 -5.046875 C 10.378906 -6.503906 10.390625 -7.8125 10.390625 -8.96875 C 10.390625 -9.84375 10.238281 -10.453125 9.9375 -10.796875 C 9.632812 -11.140625 9.175781 -11.300781 8.5625 -11.28125 C 7.519531 -11.25 6.769531 -10.726562 6.3125 -9.71875 C 6.3125 -9.363281 6.304688 -8.988281 6.296875 -8.59375 C 6.296875 -8.207031 6.296875 -7.828125 6.296875 -7.453125 C 6.273438 -6.265625 6.269531 -5.109375 6.28125 -3.984375 C 6.300781 -2.859375 6.3125 -1.691406 6.3125 -0.484375 C 6.3125 -0.378906 6.273438 -0.269531 6.203125 -0.15625 C 6.140625 -0.0507812 6.035156 0 5.890625 0 L 1.96875 0 C 1.84375 0 1.742188 -0.0507812 1.671875 -0.15625 C 1.597656 -0.269531 1.5625 -0.378906 1.5625 -0.484375 C 1.5625 -1.691406 1.570312 -2.859375 1.59375 -3.984375 C 1.613281 -5.109375 1.625 -6.265625 1.625 -7.453125 C 1.625 -8.660156 1.613281 -9.835938 1.59375 -10.984375 C 1.570312 -12.140625 1.5625 -13.3125 1.5625 -14.5 C 1.5625 -14.59375 1.597656 -14.691406 1.671875 -14.796875 C 1.742188 -14.898438 1.84375 -14.953125 1.96875 -14.953125 L 5.671875 -14.953125 C 5.816406 -14.953125 5.921875 -14.898438 5.984375 -14.796875 C 6.046875 -14.691406 6.078125 -14.59375 6.078125 -14.5 C 6.078125 -14.207031 6.066406 -13.90625 6.046875 -13.59375 C 6.023438 -13.28125 6.023438 -12.878906 6.046875 -12.390625 L 6.125 -12.390625 C 6.644531 -13.347656 7.296875 -14.050781 8.078125 -14.5 C 8.867188 -14.945312 9.785156 -15.171875 10.828125 -15.171875 C 12.242188 -15.171875 13.300781 -14.6875 14 -13.71875 C 14.707031 -12.75 15.035156 -11.144531 14.984375 -8.90625 Z M 14.984375 -8.90625 "/></g></g></g><g fill="#ffffff" fill-opacity="1"><g transform="translate(240.037339, 40.198767)"><g><path d="M 14.4375 -6.75 C 14.40625 -6.457031 14.273438 -6.3125 14.046875 -6.3125 L 5.421875 -6.3125 C 5.460938 -5.394531 5.59375 -4.679688 5.8125 -4.171875 C 6.039062 -3.671875 6.335938 -3.328125 6.703125 -3.140625 C 7.078125 -2.953125 7.5 -2.859375 7.96875 -2.859375 C 8.707031 -2.859375 9.273438 -2.988281 9.671875 -3.25 C 10.078125 -3.507812 10.28125 -3.863281 10.28125 -4.3125 C 10.28125 -4.53125 10.378906 -4.640625 10.578125 -4.640625 L 13.90625 -4.640625 C 14.082031 -4.640625 14.171875 -4.539062 14.171875 -4.34375 C 14.171875 -2.757812 13.648438 -1.59375 12.609375 -0.84375 C 11.566406 -0.101562 10.007812 0.265625 7.9375 0.265625 C 5.519531 0.265625 3.753906 -0.394531 2.640625 -1.71875 C 1.523438 -3.039062 0.96875 -5.03125 0.96875 -7.6875 C 0.96875 -12.675781 3.289062 -15.171875 7.9375 -15.171875 C 9.613281 -15.171875 10.957031 -14.816406 11.96875 -14.109375 C 12.988281 -13.410156 13.703125 -12.425781 14.109375 -11.15625 C 14.515625 -9.894531 14.625 -8.425781 14.4375 -6.75 Z M 7.71875 -12.09375 C 7.019531 -12.09375 6.460938 -11.828125 6.046875 -11.296875 C 5.628906 -10.765625 5.429688 -9.953125 5.453125 -8.859375 L 9.875 -8.859375 C 9.914062 -9.929688 9.765625 -10.738281 9.421875 -11.28125 C 9.078125 -11.820312 8.507812 -12.09375 7.71875 -12.09375 Z M 7.71875 -12.09375 "/></g></g></g><g fill="#ffffff" fill-opacity="1"><g transform="translate(255.636528, 40.198767)"><g><path d="M 8.96875 -18.71875 C 11.695312 -18.71875 13.679688 -18.253906 14.921875 -17.328125 C 16.171875 -16.398438 16.796875 -14.898438 16.796875 -12.828125 C 16.796875 -11.347656 16.4375 -10.066406 15.71875 -8.984375 C 15.007812 -7.910156 14.003906 -7.078125 12.703125 -6.484375 C 11.410156 -5.898438 9.867188 -5.609375 8.078125 -5.609375 L 7.078125 -5.609375 C 7.078125 -4.734375 7.078125 -3.863281 7.078125 -3 C 7.085938 -2.132812 7.09375 -1.269531 7.09375 -0.40625 C 7.09375 -0.132812 6.960938 0 6.703125 0 L 2.4375 0 C 2.164062 0 2.03125 -0.132812 2.03125 -0.40625 C 2.03125 -1.894531 2.035156 -3.382812 2.046875 -4.875 C 2.066406 -6.375 2.078125 -7.875 2.078125 -9.375 C 2.078125 -10.863281 2.066406 -12.351562 2.046875 -13.84375 C 2.035156 -15.34375 2.03125 -16.832031 2.03125 -18.3125 C 2.03125 -18.582031 2.164062 -18.71875 2.4375 -18.71875 Z M 7.984375 -9.453125 C 9.265625 -9.453125 10.179688 -9.695312 10.734375 -10.1875 C 11.296875 -10.6875 11.578125 -11.492188 11.578125 -12.609375 C 11.578125 -13.453125 11.328125 -14.054688 10.828125 -14.421875 C 10.328125 -14.796875 9.515625 -14.984375 8.390625 -14.984375 L 7.09375 -14.984375 C 7.082031 -14.265625 7.078125 -13.492188 7.078125 -12.671875 C 7.078125 -11.859375 7.078125 -10.785156 7.078125 -9.453125 Z M 7.984375 -9.453125 "/></g></g></g><g fill="#ffffff" fill-opacity="1"><g transform="translate(273.502722, 40.198767)"><g><path d="M 14.4375 -6.75 C 14.40625 -6.457031 14.273438 -6.3125 14.046875 -6.3125 L 5.421875 -6.3125 C 5.460938 -5.394531 5.59375 -4.679688 5.8125 -4.171875 C 6.039062 -3.671875 6.335938 -3.328125 6.703125 -3.140625 C 7.078125 -2.953125 7.5 -2.859375 7.96875 -2.859375 C 8.707031 -2.859375 9.273438 -2.988281 9.671875 -3.25 C 10.078125 -3.507812 10.28125 -3.863281 10.28125 -4.3125 C 10.28125 -4.53125 10.378906 -4.640625 10.578125 -4.640625 L 13.90625 -4.640625 C 14.082031 -4.640625 14.171875 -4.539062 14.171875 -4.34375 C 14.171875 -2.757812 13.648438 -1.59375 12.609375 -0.84375 C 11.566406 -0.101562 10.007812 0.265625 7.9375 0.265625 C 5.519531 0.265625 3.753906 -0.394531 2.640625 -1.71875 C 1.523438 -3.039062 0.96875 -5.03125 0.96875 -7.6875 C 0.96875 -12.675781 3.289062 -15.171875 7.9375 -15.171875 C 9.613281 -15.171875 10.957031 -14.816406 11.96875 -14.109375 C 12.988281 -13.410156 13.703125 -12.425781 14.109375 -11.15625 C 14.515625 -9.894531 14.625 -8.425781 14.4375 -6.75 Z M 7.71875 -12.09375 C 7.019531 -12.09375 6.460938 -11.828125 6.046875 -11.296875 C 5.628906 -10.765625 5.429688 -9.953125 5.453125 -8.859375 L 9.875 -8.859375 C 9.914062 -9.929688 9.765625 -10.738281 9.421875 -11.28125 C 9.078125 -11.820312 8.507812 -12.09375 7.71875 -12.09375 Z M 7.71875 -12.09375 "/></g></g></g></svg>