<svg xmlns="http://www.w3.org/2000/svg" xmlns:xlink="http://www.w3.org/1999/xlink" width="500" zoomAndPan="magnify" viewBox="0 0 375 112.499997" height="150" preserveAspectRatio="xMidYMid meet" version="1.0"><defs><clipPath id="ab93a91122"><path d="M 4.921875 1.457031 L 370.171875 1.457031 L 370.171875 109.933594 L 4.921875 109.933594 Z M 4.921875 1.457031 " clip-rule="nonzero"/></clipPath><clipPath id="b4f7ee6128"><path d="M 59.15625 1.457031 L 315.84375 1.457031 C 345.796875 1.457031 370.078125 25.742188 370.078125 55.695312 C 370.078125 85.648438 345.796875 109.933594 315.84375 109.933594 L 59.15625 109.933594 C 29.203125 109.933594 4.921875 85.648438 4.921875 55.695312 C 4.921875 25.742188 29.203125 1.457031 59.15625 1.457031 Z M 59.15625 1.457031 " clip-rule="nonzero"/></clipPath><clipPath id="f4ff112bfb"><path d="M 193.296875 35.039062 L 224 35.039062 L 224 70 L 193.296875 70 Z M 193.296875 35.039062 " clip-rule="nonzero"/></clipPath><clipPath id="1a6c9f0841"><path d="M 252 46 L 282 46 L 282 76.851562 L 252 76.851562 Z M 252 46 " clip-rule="nonzero"/></clipPath><clipPath id="4b7f8d9cdd"><path d="M 280 35.039062 L 311 35.039062 L 311 70 L 280 70 Z M 280 35.039062 " clip-rule="nonzero"/></clipPath><clipPath id="35d6bedcbf"><path d="M 338 35.039062 L 351 35.039062 L 351 70 L 338 70 Z M 338 35.039062 " clip-rule="nonzero"/></clipPath></defs><g clip-path="url(#ab93a91122)"><g clip-path="url(#b4f7ee6128)"><path fill="#f3c257" d="M 4.921875 1.457031 L 370.171875 1.457031 L 370.171875 109.933594 L 4.921875 109.933594 Z M 4.921875 1.457031 " fill-opacity="1" fill-rule="nonzero"/></g></g><path fill="#000000" d="M 43.417969 68.773438 L 43.417969 42.628906 L 53.730469 42.628906 C 55.710938 42.628906 57.402344 43.011719 58.796875 43.765625 C 60.148438 44.472656 61.257812 45.558594 61.988281 46.894531 C 62.726562 48.222656 63.097656 49.753906 63.097656 51.488281 C 63.097656 53.222656 62.722656 54.757812 61.976562 56.085938 C 61.226562 57.414062 60.140625 58.445312 58.722656 59.1875 C 57.308594 59.925781 55.597656 60.296875 53.589844 60.296875 L 47.015625 60.296875 L 47.015625 55.867188 L 52.695312 55.867188 C 53.761719 55.867188 54.636719 55.683594 55.324219 55.316406 C 56.023438 54.941406 56.542969 54.429688 56.882812 53.773438 C 57.230469 53.109375 57.40625 52.347656 57.40625 51.488281 C 57.40625 50.617188 57.230469 49.863281 56.882812 49.214844 C 56.535156 48.558594 55.992188 48.027344 55.324219 47.695312 C 54.625 47.332031 53.742188 47.148438 52.667969 47.148438 L 48.941406 47.148438 L 48.941406 68.773438 Z M 71.003906 69.144531 C 69.753906 69.144531 68.640625 68.925781 67.660156 68.492188 C 66.714844 68.078125 65.90625 67.398438 65.335938 66.539062 C 64.773438 65.667969 64.492188 64.589844 64.496094 63.296875 C 64.496094 62.207031 64.695312 61.292969 65.09375 60.550781 C 65.496094 59.8125 66.039062 59.214844 66.726562 58.765625 C 67.449219 58.300781 68.242188 57.957031 69.074219 57.746094 C 69.992188 57.511719 70.921875 57.351562 71.859375 57.257812 C 72.78125 57.167969 73.703125 57.054688 74.617188 56.925781 C 75.3125 56.816406 75.820312 56.65625 76.136719 56.441406 C 76.453125 56.230469 76.609375 55.914062 76.609375 55.5 L 76.609375 55.421875 C 76.609375 54.613281 76.351562 53.988281 75.84375 53.542969 C 75.339844 53.101562 74.625 52.882812 73.699219 52.882812 C 72.71875 52.882812 71.9375 53.097656 71.359375 53.53125 C 70.78125 53.957031 70.398438 54.496094 70.210938 55.140625 L 65.183594 54.730469 C 65.4375 53.539062 65.941406 52.511719 66.6875 51.644531 C 67.4375 50.765625 68.402344 50.09375 69.585938 49.625 C 70.777344 49.148438 72.15625 48.910156 73.722656 48.910156 C 74.8125 48.910156 75.855469 49.039062 76.847656 49.292969 C 77.804688 49.523438 78.707031 49.929688 79.519531 50.480469 C 80.300781 51.015625 80.917969 51.707031 81.371094 52.546875 C 81.820312 53.382812 82.046875 54.382812 82.046875 55.546875 L 82.046875 68.773438 L 76.886719 68.773438 L 76.886719 66.050781 L 76.734375 66.050781 C 76.417969 66.664062 76 67.203125 75.472656 67.671875 C 74.910156 68.148438 74.265625 68.519531 73.570312 68.757812 C 72.828125 69.015625 71.972656 69.140625 71.003906 69.140625 M 72.5625 65.386719 C 73.359375 65.386719 74.066406 65.230469 74.679688 64.914062 C 75.292969 64.59375 75.773438 64.160156 76.125 63.613281 C 76.472656 63.070312 76.644531 62.453125 76.644531 61.761719 L 76.644531 59.683594 C 76.476562 59.792969 76.242188 59.894531 75.945312 59.988281 C 75.65625 60.074219 75.328125 60.15625 74.960938 60.230469 C 74.597656 60.300781 74.230469 60.363281 73.863281 60.421875 L 72.867188 60.5625 C 72.230469 60.65625 71.671875 60.804688 71.195312 61.011719 C 70.71875 61.214844 70.347656 61.492188 70.085938 61.839844 C 69.8125 62.207031 69.675781 62.660156 69.6875 63.117188 C 69.6875 63.855469 69.957031 64.421875 70.492188 64.8125 C 71.039062 65.199219 71.726562 65.386719 72.5625 65.386719 M 88.273438 76.121094 C 87.621094 76.125 86.972656 76.070312 86.332031 75.957031 C 85.824219 75.878906 85.328125 75.746094 84.851562 75.5625 L 86.078125 71.503906 C 86.714844 71.699219 87.289062 71.804688 87.796875 71.820312 C 88.320312 71.835938 88.765625 71.71875 89.140625 71.464844 C 89.523438 71.207031 89.832031 70.773438 90.074219 70.160156 L 90.390625 69.332031 L 83.359375 49.164062 L 89.078125 49.164062 L 93.136719 63.5625 L 93.339844 63.5625 L 97.4375 49.164062 L 103.195312 49.164062 L 95.574219 70.890625 C 95.238281 71.886719 94.734375 72.820312 94.078125 73.648438 C 93.460938 74.4375 92.671875 75.046875 91.71875 75.472656 C 90.765625 75.90625 89.617188 76.121094 88.273438 76.121094 M 116.871094 68.769531 L 111.535156 49.164062 L 117.035156 49.164062 L 120.074219 62.339844 L 120.253906 62.339844 L 123.417969 49.164062 L 128.816406 49.164062 L 132.035156 62.261719 L 132.203125 62.261719 L 135.1875 49.164062 L 140.675781 49.164062 L 135.351562 68.773438 L 129.597656 68.773438 L 126.226562 56.441406 L 125.984375 56.441406 L 122.613281 68.773438 Z M 142.929688 68.769531 L 142.929688 49.167969 L 148.367188 49.167969 L 148.367188 68.773438 Z M 145.660156 46.636719 C 144.851562 46.636719 144.160156 46.367188 143.582031 45.832031 C 143.027344 45.332031 142.71875 44.621094 142.726562 43.878906 C 142.726562 43.128906 143.011719 42.488281 143.582031 41.953125 C 144.140625 41.414062 144.886719 41.121094 145.660156 41.136719 C 146.46875 41.136719 147.15625 41.410156 147.730469 41.949219 C 148.308594 42.488281 148.597656 43.128906 148.597656 43.878906 C 148.597656 44.636719 148.308594 45.289062 147.730469 45.832031 C 147.160156 46.367188 146.472656 46.636719 145.660156 46.636719 M 162.503906 49.164062 L 162.503906 53.25 L 150.699219 53.25 L 150.699219 49.164062 Z M 153.378906 44.46875 L 158.816406 44.46875 L 158.816406 62.746094 C 158.816406 63.246094 158.890625 63.640625 159.046875 63.917969 C 159.199219 64.191406 159.414062 64.382812 159.683594 64.492188 C 159.964844 64.605469 160.289062 64.660156 160.65625 64.660156 C 160.910156 64.660156 161.167969 64.640625 161.417969 64.597656 C 161.675781 64.546875 161.871094 64.507812 162.007812 64.484375 L 162.863281 68.527344 C 162.484375 68.640625 162.101562 68.738281 161.714844 68.820312 C 161.21875 68.941406 160.621094 69.015625 159.914062 69.039062 C 158.601562 69.089844 157.457031 68.914062 156.46875 68.515625 C 155.53125 68.148438 154.730469 67.496094 154.183594 66.652344 C 153.636719 65.808594 153.367188 64.746094 153.378906 63.460938 Z M 171.261719 57.433594 L 171.261719 68.769531 L 165.820312 68.769531 L 165.820312 42.628906 L 171.105469 42.628906 L 171.105469 52.625 L 171.335938 52.625 C 171.742188 51.511719 172.496094 50.5625 173.480469 49.90625 C 174.46875 49.242188 175.707031 48.910156 177.195312 48.910156 C 178.554688 48.910156 179.746094 49.210938 180.757812 49.804688 C 181.777344 50.390625 182.570312 51.238281 183.132812 52.34375 C 183.703125 53.441406 183.984375 54.757812 183.972656 56.289062 L 183.972656 68.773438 L 178.535156 68.773438 L 178.535156 57.257812 C 178.542969 56.050781 178.238281 55.109375 177.617188 54.4375 C 177.003906 53.765625 176.144531 53.429688 175.039062 53.429688 C 174.296875 53.429688 173.640625 53.585938 173.074219 53.902344 C 172.511719 54.214844 172.070312 54.675781 171.746094 55.28125 C 171.429688 55.875 171.269531 56.59375 171.261719 57.4375 " fill-opacity="1" fill-rule="nonzero"/><g clip-path="url(#f4ff112bfb)"><path fill="#002c8b" d="M 212.488281 35.039062 L 200.25 35.039062 C 199.414062 35.039062 198.703125 35.648438 198.570312 36.476562 L 193.621094 67.851562 C 193.523438 68.46875 194.003906 69.027344 194.632812 69.027344 L 200.472656 69.027344 C 201.308594 69.027344 202.023438 68.421875 202.152344 67.589844 L 203.488281 59.128906 C 203.617188 58.300781 204.332031 57.691406 205.164062 57.691406 L 209.039062 57.691406 C 217.097656 57.691406 221.75 53.792969 222.964844 46.0625 C 223.511719 42.683594 222.988281 40.027344 221.40625 38.164062 C 219.667969 36.121094 216.582031 35.042969 212.488281 35.042969 Z M 213.898438 46.5 C 213.230469 50.890625 209.875 50.890625 206.632812 50.890625 L 204.785156 50.890625 L 206.082031 42.691406 C 206.15625 42.195312 206.585938 41.832031 207.085938 41.832031 L 207.933594 41.832031 C 210.144531 41.832031 212.226562 41.832031 213.304688 43.089844 C 213.945312 43.839844 214.144531 44.957031 213.898438 46.5 " fill-opacity="1" fill-rule="nonzero"/></g><path fill="#002c8b" d="M 249.058594 46.359375 L 243.203125 46.359375 C 242.703125 46.359375 242.269531 46.722656 242.195312 47.21875 L 241.933594 48.859375 L 241.523438 48.265625 C 240.257812 46.421875 237.429688 45.808594 234.605469 45.808594 C 228.128906 45.808594 222.601562 50.710938 221.523438 57.589844 C 220.964844 61.023438 221.757812 64.304688 223.707031 66.589844 C 225.492188 68.695312 228.046875 69.570312 231.085938 69.570312 C 236.304688 69.570312 239.195312 66.21875 239.195312 66.21875 L 238.933594 67.84375 C 238.835938 68.46875 239.316406 69.027344 239.941406 69.027344 L 245.21875 69.027344 C 246.058594 69.027344 246.765625 68.417969 246.898438 67.589844 L 250.0625 47.535156 C 250.164062 46.917969 249.6875 46.359375 249.058594 46.359375 Z M 240.894531 57.761719 C 240.328125 61.109375 237.671875 63.355469 234.28125 63.355469 C 232.582031 63.355469 231.222656 62.8125 230.347656 61.777344 C 229.484375 60.75 229.152344 59.289062 229.429688 57.660156 C 229.957031 54.339844 232.660156 52.019531 235.996094 52.019531 C 237.660156 52.019531 239.011719 52.574219 239.902344 53.617188 C 240.796875 54.671875 241.148438 56.140625 240.894531 57.761719 " fill-opacity="1" fill-rule="nonzero"/><g clip-path="url(#1a6c9f0841)"><path fill="#002c8b" d="M 280.265625 46.359375 L 274.378906 46.359375 C 273.816406 46.359375 273.289062 46.636719 272.96875 47.105469 L 264.847656 59.066406 L 261.40625 47.570312 C 261.191406 46.851562 260.527344 46.359375 259.777344 46.359375 L 253.988281 46.359375 C 253.285156 46.359375 252.796875 47.046875 253.023438 47.707031 L 259.507812 66.738281 L 253.410156 75.347656 C 252.929688 76.023438 253.414062 76.957031 254.242188 76.957031 L 260.121094 76.957031 C 260.679688 76.957031 261.203125 76.683594 261.519531 76.226562 L 281.101562 47.960938 C 281.570312 47.285156 281.089844 46.359375 280.265625 46.359375 " fill-opacity="1" fill-rule="nonzero"/></g><g clip-path="url(#4b7f8d9cdd)"><path fill="#469bdb" d="M 299.757812 35.039062 L 287.523438 35.039062 C 286.6875 35.039062 285.972656 35.648438 285.84375 36.476562 L 280.894531 67.851562 C 280.796875 68.46875 281.277344 69.027344 281.902344 69.027344 L 288.179688 69.027344 C 288.761719 69.027344 289.261719 68.601562 289.355469 68.023438 L 290.757812 59.128906 C 290.886719 58.300781 291.601562 57.691406 292.4375 57.691406 L 296.308594 57.691406 C 304.371094 57.691406 309.019531 53.792969 310.234375 46.0625 C 310.785156 42.683594 310.257812 40.027344 308.675781 38.164062 C 306.9375 36.121094 303.855469 35.042969 299.757812 35.042969 Z M 301.171875 46.5 C 300.503906 50.890625 297.148438 50.890625 293.902344 50.890625 L 292.058594 50.890625 L 293.355469 42.691406 C 293.433594 42.195312 293.859375 41.832031 294.363281 41.832031 L 295.207031 41.832031 C 297.414062 41.832031 299.5 41.832031 300.578125 43.089844 C 301.222656 43.839844 301.414062 44.957031 301.171875 46.5 " fill-opacity="1" fill-rule="nonzero"/></g><path fill="#469bdb" d="M 336.332031 46.359375 L 330.476562 46.359375 C 329.972656 46.359375 329.546875 46.722656 329.46875 47.21875 L 329.210938 48.859375 L 328.800781 48.265625 C 327.53125 46.421875 324.703125 45.808594 321.882812 45.808594 C 315.40625 45.808594 309.878906 50.710938 308.800781 57.589844 C 308.242188 61.023438 309.035156 64.304688 310.980469 66.589844 C 312.769531 68.695312 315.324219 69.570312 318.363281 69.570312 C 323.578125 69.570312 326.472656 66.21875 326.472656 66.21875 L 326.210938 67.84375 C 326.113281 68.46875 326.589844 69.027344 327.21875 69.027344 L 332.496094 69.027344 C 333.332031 69.027344 334.042969 68.417969 334.175781 67.589844 L 337.34375 47.535156 C 337.4375 46.917969 336.960938 46.359375 336.332031 46.359375 Z M 328.164062 57.761719 C 327.601562 61.109375 324.941406 63.355469 321.554688 63.355469 C 319.855469 63.355469 318.492188 62.8125 317.621094 61.777344 C 316.753906 60.75 316.429688 59.289062 316.699219 57.660156 C 317.230469 54.339844 319.929688 52.019531 323.265625 52.019531 C 324.929688 52.019531 326.28125 52.574219 327.171875 53.617188 C 328.070312 54.671875 328.421875 56.140625 328.164062 57.761719 " fill-opacity="1" fill-rule="nonzero"/><g clip-path="url(#35d6bedcbf)"><path fill="#469bdb" d="M 343.238281 35.902344 L 338.21875 67.851562 C 338.117188 68.46875 338.597656 69.027344 339.222656 69.027344 L 344.269531 69.027344 C 345.109375 69.027344 345.824219 68.421875 345.953125 67.589844 L 350.902344 36.21875 C 351 35.597656 350.523438 35.039062 349.898438 35.039062 L 344.246094 35.039062 C 343.746094 35.042969 343.316406 35.40625 343.238281 35.902344 " fill-opacity="1" fill-rule="nonzero"/></g></svg>