<svg xmlns="http://www.w3.org/2000/svg" xmlns:xlink="http://www.w3.org/1999/xlink" width="500" zoomAndPan="magnify" viewBox="0 0 375 112.499997" height="150" preserveAspectRatio="xMidYMid meet" version="1.0"><defs><clipPath id="5cf7689ec2"><path d="M 4.921875 1.457031 L 370.171875 1.457031 L 370.171875 109.933594 L 4.921875 109.933594 Z M 4.921875 1.457031 " clip-rule="nonzero"/></clipPath><clipPath id="beb24edc89"><path d="M 59.15625 1.457031 L 315.84375 1.457031 C 345.796875 1.457031 370.078125 25.742188 370.078125 55.695312 C 370.078125 85.648438 345.796875 109.933594 315.84375 109.933594 L 59.15625 109.933594 C 29.203125 109.933594 4.921875 85.648438 4.921875 55.695312 C 4.921875 25.742188 29.203125 1.457031 59.15625 1.457031 Z M 59.15625 1.457031 " clip-rule="nonzero"/></clipPath><clipPath id="3175a58833"><path d="M 233.507812 21.785156 L 301.457031 21.785156 L 301.457031 89.730469 L 233.507812 89.730469 Z M 233.507812 21.785156 " clip-rule="nonzero"/></clipPath></defs><g clip-path="url(#5cf7689ec2)"><g clip-path="url(#beb24edc89)"><path fill="#5f259f" d="M 4.921875 1.457031 L 370.171875 1.457031 L 370.171875 109.933594 L 4.921875 109.933594 Z M 4.921875 1.457031 " fill-opacity="1" fill-rule="nonzero"/></g></g><path fill="#ffffff" d="M 69.226562 68.957031 L 69.226562 42.816406 L 79.539062 42.816406 C 81.523438 42.816406 83.210938 43.195312 84.605469 43.953125 C 85.957031 44.65625 87.066406 45.742188 87.796875 47.078125 C 88.539062 48.40625 88.910156 49.941406 88.910156 51.675781 C 88.910156 53.410156 88.535156 54.941406 87.785156 56.269531 C 87.035156 57.597656 85.953125 58.632812 84.53125 59.371094 C 83.117188 60.113281 81.40625 60.484375 79.398438 60.484375 L 72.828125 60.484375 L 72.828125 56.050781 L 78.503906 56.050781 C 79.570312 56.050781 80.445312 55.867188 81.136719 55.503906 C 81.832031 55.128906 82.351562 54.613281 82.691406 53.957031 C 83.042969 53.292969 83.214844 52.53125 83.214844 51.671875 C 83.214844 50.804688 83.042969 50.046875 82.691406 49.402344 C 82.347656 48.742188 81.800781 48.210938 81.136719 47.882812 C 80.4375 47.515625 79.550781 47.332031 78.480469 47.332031 L 74.753906 47.332031 L 74.753906 68.957031 Z M 96.8125 69.328125 C 95.5625 69.328125 94.449219 69.113281 93.46875 68.675781 C 92.523438 68.261719 91.71875 67.585938 91.148438 66.722656 C 90.585938 65.855469 90.304688 64.777344 90.304688 63.484375 C 90.304688 62.390625 90.503906 61.476562 90.90625 60.738281 C 91.304688 59.996094 91.847656 59.398438 92.539062 58.949219 C 93.261719 58.484375 94.054688 58.140625 94.886719 57.929688 C 95.800781 57.699219 96.730469 57.535156 97.667969 57.445312 C 98.589844 57.351562 99.511719 57.242188 100.429688 57.109375 C 101.125 57.003906 101.628906 56.839844 101.945312 56.628906 C 102.261719 56.414062 102.417969 56.101562 102.417969 55.683594 L 102.417969 55.605469 C 102.417969 54.796875 102.164062 54.171875 101.652344 53.730469 C 101.152344 53.289062 100.4375 53.066406 99.507812 53.066406 C 98.527344 53.066406 97.75 53.285156 97.171875 53.71875 C 96.59375 54.144531 96.210938 54.679688 96.023438 55.328125 L 90.992188 54.917969 C 91.25 53.726562 91.75 52.695312 92.5 51.828125 C 93.25 50.953125 94.214844 50.277344 95.398438 49.808594 C 96.589844 49.335938 97.96875 49.097656 99.535156 49.097656 C 100.621094 49.097656 101.664062 49.226562 102.660156 49.476562 C 103.613281 49.710938 104.515625 50.113281 105.328125 50.667969 C 106.113281 51.203125 106.726562 51.890625 107.179688 52.734375 C 107.628906 53.566406 107.855469 54.566406 107.855469 55.734375 L 107.855469 68.957031 L 102.699219 68.957031 L 102.699219 66.238281 L 102.546875 66.238281 C 102.230469 66.847656 101.808594 67.390625 101.28125 67.859375 C 100.722656 68.335938 100.078125 68.703125 99.378906 68.945312 C 98.640625 69.199219 97.785156 69.328125 96.8125 69.328125 M 98.371094 65.574219 C 99.171875 65.574219 99.878906 65.417969 100.492188 65.101562 C 101.101562 64.777344 101.582031 64.34375 101.933594 63.800781 C 102.28125 63.253906 102.457031 62.640625 102.457031 61.949219 L 102.457031 59.867188 C 102.285156 59.980469 102.050781 60.082031 101.753906 60.175781 C 101.464844 60.261719 101.136719 60.339844 100.773438 60.417969 C 100.40625 60.484375 100.039062 60.546875 99.671875 60.609375 L 98.679688 60.75 C 98.039062 60.839844 97.480469 60.992188 97.007812 61.195312 C 96.527344 61.398438 96.160156 61.675781 95.894531 62.027344 C 95.625 62.394531 95.484375 62.84375 95.5 63.300781 C 95.5 64.042969 95.769531 64.609375 96.304688 65 C 96.847656 65.382812 97.539062 65.574219 98.371094 65.574219 M 114.082031 76.308594 C 113.433594 76.308594 112.78125 76.253906 112.140625 76.140625 C 111.636719 76.0625 111.140625 75.933594 110.660156 75.746094 L 111.886719 71.6875 C 112.527344 71.882812 113.101562 71.988281 113.609375 72.007812 C 114.128906 72.023438 114.574219 71.90625 114.949219 71.648438 C 115.332031 71.394531 115.644531 70.960938 115.882812 70.347656 L 116.203125 69.519531 L 109.167969 49.351562 L 114.886719 49.351562 L 118.945312 63.746094 L 119.148438 63.746094 L 123.246094 49.351562 L 129.007812 49.351562 L 121.382812 71.074219 C 121.050781 72.074219 120.542969 73.007812 119.890625 73.832031 C 119.269531 74.625 118.484375 75.230469 117.527344 75.660156 C 116.574219 76.089844 115.425781 76.308594 114.082031 76.308594 M 142.679688 68.957031 L 137.34375 49.351562 L 142.847656 49.351562 L 145.882812 62.523438 L 146.0625 62.523438 L 149.230469 49.347656 L 154.628906 49.347656 L 157.84375 62.445312 L 158.011719 62.445312 L 161 49.347656 L 166.488281 49.347656 L 161.164062 68.957031 L 155.40625 68.957031 L 152.035156 56.625 L 151.796875 56.625 L 148.425781 68.957031 Z M 168.742188 68.957031 L 168.742188 49.351562 L 174.175781 49.351562 L 174.175781 68.957031 Z M 171.472656 46.824219 C 170.664062 46.824219 169.96875 46.554688 169.390625 46.019531 C 168.839844 45.519531 168.527344 44.808594 168.535156 44.066406 C 168.535156 43.316406 168.820312 42.671875 169.390625 42.136719 C 169.949219 41.601562 170.699219 41.308594 171.472656 41.320312 C 172.277344 41.320312 172.96875 41.59375 173.539062 42.136719 C 174.117188 42.671875 174.40625 43.316406 174.40625 44.066406 C 174.40625 44.824219 174.117188 45.472656 173.539062 46.019531 C 172.96875 46.554688 172.28125 46.824219 171.472656 46.824219 M 188.316406 49.347656 L 188.316406 53.433594 L 176.507812 53.433594 L 176.507812 49.347656 Z M 179.1875 44.652344 L 184.625 44.652344 L 184.625 62.929688 C 184.625 63.433594 184.703125 63.824219 184.855469 64.105469 C 185.011719 64.378906 185.222656 64.566406 185.496094 64.679688 C 185.773438 64.789062 186.097656 64.847656 186.464844 64.847656 C 186.722656 64.847656 186.976562 64.824219 187.230469 64.78125 C 187.484375 64.730469 187.683594 64.691406 187.816406 64.667969 L 188.671875 68.714844 C 188.292969 68.828125 187.910156 68.925781 187.523438 69.007812 C 187.03125 69.128906 186.429688 69.199219 185.726562 69.222656 C 184.414062 69.273438 183.265625 69.101562 182.277344 68.703125 C 181.339844 68.335938 180.542969 67.679688 179.992188 66.835938 C 179.449219 65.992188 179.179688 64.929688 179.1875 63.644531 Z M 197.070312 57.621094 L 197.070312 68.957031 L 191.632812 68.957031 L 191.632812 42.816406 L 196.917969 42.816406 L 196.917969 52.8125 L 197.144531 52.8125 C 197.554688 51.699219 198.304688 50.746094 199.292969 50.089844 C 200.277344 49.429688 201.515625 49.097656 203.003906 49.097656 C 204.367188 49.097656 205.554688 49.394531 206.566406 49.988281 C 207.589844 50.578125 208.378906 51.421875 208.941406 52.53125 C 209.515625 53.628906 209.792969 54.941406 209.78125 56.472656 L 209.78125 68.957031 L 204.34375 68.957031 L 204.34375 57.445312 C 204.355469 56.234375 204.046875 55.296875 203.425781 54.625 C 202.8125 53.949219 201.957031 53.613281 200.847656 53.617188 C 200.105469 53.617188 199.453125 53.773438 198.882812 54.085938 C 198.320312 54.402344 197.878906 54.863281 197.554688 55.464844 C 197.242188 56.0625 197.078125 56.78125 197.070312 57.621094 " fill-opacity="1" fill-rule="nonzero"/><g clip-path="url(#3175a58833)"><path fill="#ffffff" d="M 301.328125 55.695312 C 301.328125 56.804688 301.273438 57.914062 301.164062 59.019531 C 301.054688 60.125 300.894531 61.21875 300.675781 62.308594 C 300.460938 63.398438 300.191406 64.476562 299.867188 65.539062 C 299.546875 66.601562 299.171875 67.644531 298.746094 68.671875 C 298.324219 69.695312 297.847656 70.699219 297.324219 71.679688 C 296.800781 72.660156 296.230469 73.609375 295.613281 74.535156 C 294.996094 75.457031 294.335938 76.347656 293.632812 77.207031 C 292.925781 78.066406 292.183594 78.886719 291.398438 79.671875 C 290.613281 80.457031 289.789062 81.203125 288.929688 81.90625 C 288.074219 82.613281 287.179688 83.273438 286.257812 83.890625 C 285.335938 84.507812 284.382812 85.078125 283.402344 85.601562 C 282.425781 86.125 281.421875 86.597656 280.394531 87.023438 C 279.371094 87.449219 278.324219 87.820312 277.261719 88.144531 C 276.199219 88.464844 275.125 88.734375 274.035156 88.953125 C 272.945312 89.167969 271.847656 89.332031 270.742188 89.441406 C 269.636719 89.550781 268.53125 89.605469 267.417969 89.605469 C 266.308594 89.605469 265.199219 89.550781 264.09375 89.441406 C 262.988281 89.332031 261.890625 89.167969 260.804688 88.953125 C 259.714844 88.734375 258.636719 88.464844 257.574219 88.144531 C 256.511719 87.820312 255.46875 87.449219 254.441406 87.023438 C 253.414062 86.597656 252.414062 86.125 251.433594 85.601562 C 250.453125 85.078125 249.503906 84.507812 248.578125 83.890625 C 247.65625 83.273438 246.765625 82.613281 245.90625 81.90625 C 245.046875 81.203125 244.226562 80.457031 243.441406 79.671875 C 242.65625 78.886719 241.910156 78.066406 241.207031 77.207031 C 240.5 76.347656 239.839844 75.457031 239.222656 74.535156 C 238.605469 73.609375 238.035156 72.660156 237.511719 71.679688 C 236.988281 70.699219 236.515625 69.695312 236.089844 68.671875 C 235.664062 67.644531 235.292969 66.601562 234.96875 65.539062 C 234.648438 64.476562 234.378906 63.398438 234.160156 62.308594 C 233.945312 61.21875 233.78125 60.125 233.671875 59.019531 C 233.5625 57.914062 233.507812 56.804688 233.507812 55.695312 C 233.507812 54.582031 233.5625 53.476562 233.671875 52.371094 C 233.78125 51.265625 233.945312 50.167969 234.160156 49.078125 C 234.378906 47.988281 234.648438 46.914062 234.96875 45.851562 C 235.292969 44.789062 235.664062 43.742188 236.089844 42.71875 C 236.515625 41.691406 236.988281 40.6875 237.511719 39.710938 C 238.035156 38.730469 238.605469 37.777344 239.222656 36.855469 C 239.839844 35.929688 240.5 35.039062 241.207031 34.183594 C 241.910156 33.324219 242.65625 32.5 243.441406 31.714844 C 244.226562 30.929688 245.046875 30.1875 245.90625 29.480469 C 246.765625 28.777344 247.65625 28.117188 248.578125 27.5 C 249.503906 26.882812 250.453125 26.3125 251.433594 25.789062 C 252.414062 25.265625 253.414062 24.789062 254.441406 24.367188 C 255.46875 23.941406 256.511719 23.566406 257.574219 23.246094 C 258.636719 22.921875 259.714844 22.652344 260.804688 22.4375 C 261.890625 22.21875 262.988281 22.054688 264.09375 21.949219 C 265.199219 21.839844 266.308594 21.785156 267.417969 21.785156 C 268.53125 21.785156 269.636719 21.839844 270.742188 21.949219 C 271.847656 22.054688 272.945312 22.21875 274.035156 22.4375 C 275.125 22.652344 276.199219 22.921875 277.261719 23.246094 C 278.324219 23.566406 279.371094 23.941406 280.394531 24.367188 C 281.421875 24.789062 282.425781 25.265625 283.402344 25.789062 C 284.382812 26.3125 285.335938 26.882812 286.257812 27.5 C 287.179688 28.117188 288.074219 28.777344 288.929688 29.480469 C 289.789062 30.1875 290.613281 30.929688 291.398438 31.714844 C 292.183594 32.5 292.925781 33.324219 293.632812 34.183594 C 294.335938 35.039062 294.996094 35.929688 295.613281 36.855469 C 296.230469 37.777344 296.800781 38.730469 297.324219 39.710938 C 297.847656 40.6875 298.324219 41.691406 298.746094 42.71875 C 299.171875 43.742188 299.546875 44.789062 299.867188 45.851562 C 300.191406 46.914062 300.460938 47.988281 300.675781 49.078125 C 300.894531 50.167969 301.054688 51.265625 301.164062 52.371094 C 301.273438 53.476562 301.328125 54.582031 301.328125 55.695312 Z M 301.328125 55.695312 " fill-opacity="1" fill-rule="nonzero"/></g><path fill="#5f259f" d="M 282.816406 46.855469 C 282.816406 45.519531 281.707031 44.410156 280.371094 44.410156 L 275.8125 44.410156 L 265.363281 32.457031 C 264.417969 31.347656 262.914062 30.957031 261.359375 31.347656 L 257.746094 32.457031 C 257.191406 32.625 256.96875 33.402344 257.355469 33.792969 L 268.808594 44.578125 L 251.574219 44.578125 C 251.019531 44.578125 250.628906 44.964844 250.628906 45.519531 L 250.628906 47.410156 C 250.628906 48.746094 251.742188 49.855469 253.078125 49.855469 L 255.746094 49.855469 L 255.746094 58.972656 C 255.746094 65.8125 259.359375 69.757812 265.417969 69.757812 C 267.308594 69.757812 268.808594 69.589844 270.699219 68.8125 L 270.699219 74.871094 C 270.699219 76.597656 272.03125 77.929688 273.757812 77.929688 L 276.425781 77.929688 C 276.980469 77.929688 277.535156 77.375 277.535156 76.820312 L 277.535156 49.691406 L 281.871094 49.691406 C 282.429688 49.691406 282.816406 49.300781 282.816406 48.746094 C 282.816406 48.746094 282.816406 46.855469 282.816406 46.855469 Z M 270.699219 63.144531 C 269.585938 63.699219 268.03125 63.921875 266.917969 63.921875 C 263.859375 63.921875 262.359375 62.421875 262.359375 58.972656 L 262.359375 49.855469 L 270.699219 49.855469 C 270.699219 49.855469 270.699219 63.144531 270.699219 63.144531 Z M 270.699219 63.144531 " fill-opacity="1" fill-rule="nonzero"/></svg>