<svg xmlns="http://www.w3.org/2000/svg" xmlns:xlink="http://www.w3.org/1999/xlink" width="500" zoomAndPan="magnify" viewBox="0 0 375 112.499997" height="150" preserveAspectRatio="xMidYMid meet" version="1.0"><defs><clipPath id="616850e3ff"><path d="M 4.425781 0.722656 L 370.566406 0.722656 L 370.566406 110.886719 L 4.425781 110.886719 Z M 4.425781 0.722656 " clip-rule="nonzero"/></clipPath><clipPath id="d47704e6f1"><path d="M 4.425781 55.804688 C 4.425781 25.382812 29.085938 0.722656 59.507812 0.722656 L 315.484375 0.722656 C 345.90625 0.722656 370.566406 25.382812 370.566406 55.804688 C 370.566406 86.230469 345.90625 110.886719 315.484375 110.886719 L 59.507812 110.886719 C 29.085938 110.886719 4.425781 86.230469 4.425781 55.804688 " clip-rule="nonzero"/></clipPath><linearGradient x1="10.611395" gradientTransform="matrix(1.836102, 0, 0, 1.836102, 3.88535, -0.746681)" y1="-17.279968" x2="186.866095" gradientUnits="userSpaceOnUse" y2="83.300375" id="e6e5c860cd"><stop stop-opacity="1" stop-color="rgb(62.399292%, 90.99884%, 43.899536%)" offset="0"/><stop stop-opacity="1" stop-color="rgb(62.446594%, 91.000366%, 43.97583%)" offset="0.125"/><stop stop-opacity="1" stop-color="rgb(62.576294%, 91.007996%, 44.180298%)" offset="0.140625"/><stop stop-opacity="1" stop-color="rgb(62.738037%, 91.015625%, 44.436646%)" offset="0.14654"/><stop stop-opacity="1" stop-color="rgb(62.818909%, 91.020203%, 44.564819%)" offset="0.15625"/><stop stop-opacity="1" stop-color="rgb(62.89978%, 91.023254%, 44.692993%)" offset="0.171875"/><stop stop-opacity="1" stop-color="rgb(63.061523%, 91.030884%, 44.950867%)" offset="0.1875"/><stop stop-opacity="1" stop-color="rgb(63.224792%, 91.038513%, 45.207214%)" offset="0.203125"/><stop stop-opacity="1" stop-color="rgb(63.386536%, 91.046143%, 45.463562%)" offset="0.21875"/><stop stop-opacity="1" stop-color="rgb(63.548279%, 91.055298%, 45.71991%)" offset="0.234375"/><stop stop-opacity="1" stop-color="rgb(63.710022%, 91.062927%, 45.976257%)" offset="0.25"/><stop stop-opacity="1" stop-color="rgb(63.871765%, 91.070557%, 46.232605%)" offset="0.265625"/><stop stop-opacity="1" stop-color="rgb(64.033508%, 91.078186%, 46.490479%)" offset="0.28125"/><stop stop-opacity="1" stop-color="rgb(64.195251%, 91.085815%, 46.746826%)" offset="0.296875"/><stop stop-opacity="1" stop-color="rgb(64.356995%, 91.093445%, 47.003174%)" offset="0.3125"/><stop stop-opacity="1" stop-color="rgb(64.518738%, 91.1026%, 47.259521%)" offset="0.328125"/><stop stop-opacity="1" stop-color="rgb(64.680481%, 91.110229%, 47.515869%)" offset="0.34375"/><stop stop-opacity="1" stop-color="rgb(64.842224%, 91.117859%, 47.773743%)" offset="0.359375"/><stop stop-opacity="1" stop-color="rgb(65.003967%, 91.125488%, 48.03009%)" offset="0.375"/><stop stop-opacity="1" stop-color="rgb(65.167236%, 91.133118%, 48.286438%)" offset="0.390625"/><stop stop-opacity="1" stop-color="rgb(65.328979%, 91.140747%, 48.542786%)" offset="0.40625"/><stop stop-opacity="1" stop-color="rgb(65.490723%, 91.149902%, 48.799133%)" offset="0.421875"/><stop stop-opacity="1" stop-color="rgb(65.652466%, 91.157532%, 49.055481%)" offset="0.4375"/><stop stop-opacity="1" stop-color="rgb(65.814209%, 91.165161%, 49.313354%)" offset="0.453125"/><stop stop-opacity="1" stop-color="rgb(65.975952%, 91.172791%, 49.569702%)" offset="0.46875"/><stop stop-opacity="1" stop-color="rgb(66.137695%, 91.18042%, 49.82605%)" offset="0.484375"/><stop stop-opacity="1" stop-color="rgb(66.299438%, 91.189575%, 50.082397%)" offset="0.5"/><stop stop-opacity="1" stop-color="rgb(66.461182%, 91.197205%, 50.338745%)" offset="0.515625"/><stop stop-opacity="1" stop-color="rgb(66.622925%, 91.204834%, 50.596619%)" offset="0.53125"/><stop stop-opacity="1" stop-color="rgb(66.784668%, 91.212463%, 50.852966%)" offset="0.546875"/><stop stop-opacity="1" stop-color="rgb(66.946411%, 91.220093%, 51.109314%)" offset="0.5625"/><stop stop-opacity="1" stop-color="rgb(67.108154%, 91.227722%, 51.365662%)" offset="0.578125"/><stop stop-opacity="1" stop-color="rgb(67.271423%, 91.236877%, 51.622009%)" offset="0.59375"/><stop stop-opacity="1" stop-color="rgb(67.433167%, 91.244507%, 51.878357%)" offset="0.609375"/><stop stop-opacity="1" stop-color="rgb(67.59491%, 91.252136%, 52.13623%)" offset="0.625"/><stop stop-opacity="1" stop-color="rgb(67.756653%, 91.259766%, 52.392578%)" offset="0.640625"/><stop stop-opacity="1" stop-color="rgb(67.918396%, 91.267395%, 52.648926%)" offset="0.65625"/><stop stop-opacity="1" stop-color="rgb(68.080139%, 91.275024%, 52.905273%)" offset="0.671875"/><stop stop-opacity="1" stop-color="rgb(68.241882%, 91.28418%, 53.161621%)" offset="0.6875"/><stop stop-opacity="1" stop-color="rgb(68.403625%, 91.291809%, 53.417969%)" offset="0.703125"/><stop stop-opacity="1" stop-color="rgb(68.565369%, 91.299438%, 53.675842%)" offset="0.71875"/><stop stop-opacity="1" stop-color="rgb(68.727112%, 91.307068%, 53.93219%)" offset="0.734375"/><stop stop-opacity="1" stop-color="rgb(68.888855%, 91.314697%, 54.188538%)" offset="0.75"/><stop stop-opacity="1" stop-color="rgb(69.050598%, 91.323853%, 54.444885%)" offset="0.765625"/><stop stop-opacity="1" stop-color="rgb(69.213867%, 91.331482%, 54.701233%)" offset="0.78125"/><stop stop-opacity="1" stop-color="rgb(69.37561%, 91.339111%, 54.959106%)" offset="0.796875"/><stop stop-opacity="1" stop-color="rgb(69.537354%, 91.346741%, 55.215454%)" offset="0.8125"/><stop stop-opacity="1" stop-color="rgb(69.699097%, 91.35437%, 55.471802%)" offset="0.828125"/><stop stop-opacity="1" stop-color="rgb(69.86084%, 91.362%, 55.728149%)" offset="0.84375"/><stop stop-opacity="1" stop-color="rgb(70.022583%, 91.371155%, 55.984497%)" offset="0.85346"/><stop stop-opacity="1" stop-color="rgb(70.103455%, 91.375732%, 56.112671%)" offset="0.859375"/><stop stop-opacity="1" stop-color="rgb(70.184326%, 91.378784%, 56.240845%)" offset="0.875"/><stop stop-opacity="1" stop-color="rgb(70.346069%, 91.386414%, 56.498718%)" offset="0.890625"/><stop stop-opacity="1" stop-color="rgb(70.507812%, 91.394043%, 56.755066%)" offset="0.90625"/><stop stop-opacity="1" stop-color="rgb(70.593262%, 91.398621%, 56.890869%)" offset="0.9375"/><stop stop-opacity="1" stop-color="rgb(70.599365%, 91.398621%, 56.898499%)" offset="1"/></linearGradient></defs><g clip-path="url(#616850e3ff)"><g clip-path="url(#d47704e6f1)"><path fill="url(#e6e5c860cd)" d="M 4.425781 0.722656 L 4.425781 110.886719 L 370.566406 110.886719 L 370.566406 0.722656 Z M 4.425781 0.722656 " fill-rule="nonzero"/></g></g><path fill="#163300" d="M 44.621094 68.769531 L 44.621094 42.847656 L 54.847656 42.847656 C 56.8125 42.847656 58.488281 43.222656 59.871094 43.972656 C 61.238281 44.6875 62.292969 45.71875 63.035156 47.074219 C 63.769531 48.390625 64.136719 49.910156 64.136719 51.628906 C 64.136719 53.351562 63.765625 54.871094 63.023438 56.1875 C 62.28125 57.503906 61.207031 58.527344 59.796875 59.261719 C 58.394531 59.996094 56.699219 60.363281 54.707031 60.363281 L 48.191406 60.363281 L 48.191406 55.96875 L 53.820312 55.96875 C 54.875 55.96875 55.746094 55.789062 56.429688 55.425781 C 57.121094 55.054688 57.636719 54.542969 57.972656 53.894531 C 58.320312 53.234375 58.492188 52.480469 58.492188 51.628906 C 58.492188 50.769531 58.320312 50.015625 57.972656 49.375 C 57.621094 48.707031 57.105469 48.203125 56.429688 47.871094 C 55.734375 47.507812 54.859375 47.324219 53.796875 47.324219 L 50.101562 47.324219 L 50.101562 68.769531 Z M 71.976562 69.136719 C 70.734375 69.136719 69.628906 68.917969 68.660156 68.488281 C 67.703125 68.070312 66.933594 67.421875 66.355469 66.550781 C 65.796875 65.691406 65.519531 64.621094 65.519531 63.339844 C 65.519531 62.257812 65.71875 61.351562 66.117188 60.617188 C 66.511719 59.882812 67.054688 59.289062 67.734375 58.84375 C 68.457031 58.378906 69.234375 58.042969 70.0625 57.832031 C 70.972656 57.601562 71.890625 57.441406 72.824219 57.351562 C 73.738281 57.257812 74.648438 57.148438 75.558594 57.019531 C 76.25 56.914062 76.75 56.753906 77.066406 56.542969 C 77.378906 56.332031 77.535156 56.019531 77.535156 55.605469 L 77.535156 55.527344 C 77.535156 54.726562 77.28125 54.109375 76.773438 53.667969 C 76.273438 53.230469 75.566406 53.011719 74.648438 53.011719 C 73.675781 53.011719 72.902344 53.226562 72.328125 53.65625 C 71.757812 54.078125 71.378906 54.609375 71.191406 55.25 L 66.203125 54.84375 C 66.457031 53.664062 66.957031 52.644531 67.695312 51.78125 C 68.441406 50.914062 69.398438 50.246094 70.570312 49.78125 C 71.75 49.308594 73.121094 49.074219 74.671875 49.074219 C 75.753906 49.074219 76.785156 49.199219 77.773438 49.453125 C 78.726562 49.683594 79.605469 50.078125 80.417969 50.632812 C 81.195312 51.164062 81.804688 51.84375 82.253906 52.679688 C 82.699219 53.507812 82.925781 54.496094 82.925781 55.65625 L 82.925781 68.769531 L 77.808594 68.769531 L 77.808594 66.070312 L 77.65625 66.070312 C 77.347656 66.675781 76.929688 67.214844 76.40625 67.675781 C 75.84375 68.152344 75.214844 68.511719 74.519531 68.753906 C 73.785156 69.007812 72.9375 69.132812 71.976562 69.132812 M 73.519531 65.410156 C 74.3125 65.410156 75.011719 65.253906 75.621094 64.945312 C 76.226562 64.621094 76.703125 64.191406 77.050781 63.652344 C 77.398438 63.113281 77.570312 62.5 77.570312 61.816406 L 77.570312 59.753906 C 77.402344 59.863281 77.167969 59.964844 76.875 60.058594 C 76.585938 60.144531 76.261719 60.222656 75.902344 60.296875 C 75.539062 60.367188 75.175781 60.429688 74.808594 60.488281 L 73.824219 60.625 C 73.191406 60.71875 72.640625 60.867188 72.167969 61.070312 C 71.691406 61.273438 71.324219 61.546875 71.066406 61.894531 C 70.789062 62.269531 70.65625 62.691406 70.671875 63.160156 C 70.671875 63.894531 70.9375 64.453125 71.46875 64.84375 C 72.007812 65.222656 72.691406 65.410156 73.519531 65.410156 M 89.097656 76.054688 C 88.453125 76.058594 87.8125 76 87.175781 75.890625 C 86.671875 75.8125 86.179688 75.683594 85.707031 75.5 L 86.921875 71.472656 C 87.554688 71.667969 88.125 71.773438 88.628906 71.789062 C 89.144531 71.808594 89.585938 71.6875 89.957031 71.4375 C 90.335938 71.183594 90.644531 70.753906 90.882812 70.144531 L 91.199219 69.324219 L 84.226562 49.324219 L 89.894531 49.324219 L 93.921875 63.601562 L 94.121094 63.601562 L 98.1875 49.324219 L 103.894531 49.324219 L 96.339844 70.867188 C 96.003906 71.863281 95.511719 72.777344 94.855469 73.601562 C 94.242188 74.382812 93.460938 74.988281 92.515625 75.410156 C 91.570312 75.839844 90.433594 76.054688 89.097656 76.054688 M 117.457031 68.765625 L 112.164062 49.324219 L 117.617188 49.324219 L 120.628906 62.386719 L 120.808594 62.386719 L 123.949219 49.324219 L 129.300781 49.324219 L 132.492188 62.3125 L 132.65625 62.3125 L 135.617188 49.324219 L 141.058594 49.324219 L 135.78125 68.769531 L 130.074219 68.769531 L 126.730469 56.539062 L 126.492188 56.539062 L 123.152344 68.769531 Z M 143.296875 68.765625 L 143.296875 49.328125 L 148.6875 49.328125 L 148.6875 68.769531 Z M 146.003906 46.820312 C 145.203125 46.820312 144.511719 46.554688 143.941406 46.019531 C 143.367188 45.503906 143.082031 44.859375 143.089844 44.085938 C 143.089844 43.34375 143.375 42.707031 143.941406 42.175781 C 144.515625 41.621094 145.203125 41.351562 146.003906 41.363281 C 146.804688 41.363281 147.488281 41.632812 148.054688 42.171875 C 148.628906 42.703125 148.914062 43.34375 148.914062 44.085938 C 148.914062 44.835938 148.628906 45.480469 148.054688 46.019531 C 147.488281 46.554688 146.804688 46.820312 146.003906 46.820312 M 162.703125 49.324219 L 162.703125 53.375 L 150.996094 53.375 L 150.996094 49.324219 Z M 153.65625 44.667969 L 159.046875 44.667969 L 159.046875 62.792969 C 159.046875 63.289062 159.121094 63.679688 159.273438 63.957031 C 159.425781 64.226562 159.636719 64.414062 159.90625 64.523438 C 160.1875 64.636719 160.507812 64.691406 160.871094 64.691406 C 161.125 64.691406 161.375 64.667969 161.628906 64.628906 C 161.882812 64.578125 162.074219 64.539062 162.210938 64.515625 L 163.058594 68.527344 C 162.683594 68.636719 162.304688 68.734375 161.921875 68.816406 C 161.429688 68.933594 160.835938 69.007812 160.136719 69.03125 C 158.835938 69.082031 157.695312 68.910156 156.71875 68.511719 C 155.765625 68.140625 155.011719 67.523438 154.453125 66.664062 C 153.910156 65.828125 153.644531 64.773438 153.65625 63.5 Z M 171.386719 57.527344 L 171.386719 68.765625 L 165.992188 68.765625 L 165.992188 42.847656 L 171.234375 42.847656 L 171.234375 52.757812 L 171.460938 52.757812 C 171.875 51.625 172.585938 50.726562 173.589844 50.058594 C 174.566406 49.402344 175.792969 49.074219 177.269531 49.074219 C 178.621094 49.074219 179.796875 49.367188 180.804688 49.960938 C 181.8125 50.539062 182.597656 51.378906 183.15625 52.476562 C 183.722656 53.566406 184 54.871094 183.992188 56.390625 L 183.992188 68.769531 L 178.601562 68.769531 L 178.601562 57.351562 C 178.609375 56.152344 178.304688 55.222656 177.6875 54.554688 C 177.082031 53.886719 176.230469 53.554688 175.132812 53.554688 C 174.398438 53.554688 173.746094 53.710938 173.183594 54.023438 C 172.625 54.335938 172.1875 54.789062 171.867188 55.386719 C 171.554688 55.980469 171.394531 56.691406 171.386719 57.527344 M 270.808594 40.34375 L 279.4375 40.34375 L 275.097656 71.320312 L 266.464844 71.320312 Z M 259.925781 40.34375 L 254.101562 58.1875 L 251.5625 40.347656 L 245.527344 40.347656 L 237.898438 58.136719 L 236.949219 40.347656 L 228.582031 40.347656 L 231.496094 71.320312 L 238.429688 71.320312 L 247.007812 51.730469 L 250.027344 71.320312 L 256.855469 71.320312 L 268.132812 40.34375 Z M 332.382812 58.347656 L 311.890625 58.347656 C 312 62.371094 314.410156 65.019531 317.953125 65.019531 C 320.628906 65.019531 322.746094 63.589844 324.386719 60.863281 L 331.304688 64.007812 C 328.925781 68.6875 323.917969 71.742188 317.742188 71.742188 C 309.324219 71.742188 303.738281 66.078125 303.738281 56.972656 C 303.738281 46.964844 310.304688 39.871094 319.570312 39.871094 C 327.722656 39.871094 332.859375 45.375 332.859375 53.953125 C 332.859375 55.382812 332.699219 56.8125 332.382812 58.347656 M 324.707031 52.417969 C 324.707031 48.820312 322.691406 46.542969 319.464844 46.542969 C 316.234375 46.542969 313.375 48.921875 312.636719 52.417969 Z M 201.609375 49.683594 L 192.800781 59.976562 L 208.53125 59.976562 L 210.296875 55.121094 L 203.558594 55.121094 L 207.675781 50.359375 L 207.691406 50.230469 L 205.011719 45.621094 L 217.058594 45.621094 L 207.71875 71.320312 L 214.109375 71.320312 L 225.386719 40.34375 L 196.25 40.34375 Z M 293.464844 46.542969 C 296.511719 46.542969 299.179688 48.175781 301.511719 50.984375 L 302.734375 42.253906 C 300.5625 40.785156 297.625 39.871094 293.730469 39.871094 C 286.003906 39.871094 281.660156 44.398438 281.660156 50.140625 C 281.660156 54.125 283.882812 56.5625 287.539062 58.136719 L 289.285156 58.929688 C 292.542969 60.320312 293.414062 61.007812 293.414062 62.476562 C 293.414062 63.945312 291.945312 64.964844 289.707031 64.964844 C 286.015625 64.980469 283.023438 63.085938 280.773438 59.859375 L 279.527344 68.753906 C 282.089844 70.707031 285.375 71.742188 289.707031 71.742188 C 297.054688 71.742188 301.570312 67.507812 301.570312 61.632812 C 301.570312 57.632812 299.796875 55.066406 295.320312 53.054688 L 293.414062 52.152344 C 290.765625 50.972656 289.867188 50.328125 289.867188 49.03125 C 289.867188 47.628906 291.097656 46.539062 293.464844 46.539062 " fill-opacity="1" fill-rule="nonzero"/></svg>