<svg xmlns="http://www.w3.org/2000/svg" xmlns:xlink="http://www.w3.org/1999/xlink" width="500" zoomAndPan="magnify" viewBox="0 0 375 112.499997" height="150" preserveAspectRatio="xMidYMid meet" version="1.0"><defs><clipPath id="47e1b3a63d"><path d="M 3.425781 1.457031 L 368.679688 1.457031 L 368.679688 109.933594 L 3.425781 109.933594 Z M 3.425781 1.457031 " clip-rule="nonzero"/></clipPath><clipPath id="4767af4c57"><path d="M 57.664062 1.457031 L 314.347656 1.457031 C 344.304688 1.457031 368.585938 25.742188 368.585938 55.695312 C 368.585938 85.648438 344.304688 109.933594 314.347656 109.933594 L 57.664062 109.933594 C 27.710938 109.933594 3.425781 85.648438 3.425781 55.695312 C 3.425781 25.742188 27.710938 1.457031 57.664062 1.457031 Z M 57.664062 1.457031 " clip-rule="nonzero"/></clipPath><clipPath id="bf47aa4d76"><path d="M 301 41 L 326.976562 41 L 326.976562 73 L 301 73 Z M 301 41 " clip-rule="nonzero"/></clipPath><clipPath id="7eed8110b3"><path d="M 273 41 L 300 41 L 300 81.886719 L 273 81.886719 Z M 273 41 " clip-rule="nonzero"/></clipPath><clipPath id="1b967e4bd4"><path d="M 261 30.367188 L 271 30.367188 L 271 40 L 261 40 Z M 261 30.367188 " clip-rule="nonzero"/></clipPath><clipPath id="e0d515de80"><path d="M 203.773438 41 L 226 41 L 226 73 L 203.773438 73 Z M 203.773438 41 " clip-rule="nonzero"/></clipPath></defs><g clip-path="url(#47e1b3a63d)"><g clip-path="url(#4767af4c57)"><path fill="#635bff" d="M 3.425781 1.457031 L 368.679688 1.457031 L 368.679688 109.933594 L 3.425781 109.933594 Z M 3.425781 1.457031 " fill-opacity="1" fill-rule="nonzero"/></g></g><path fill="#ffffff" d="M 43.417969 68.773438 L 43.417969 42.628906 L 53.730469 42.628906 C 55.710938 42.628906 57.402344 43.011719 58.796875 43.765625 C 60.148438 44.472656 61.257812 45.558594 61.988281 46.894531 C 62.726562 48.222656 63.097656 49.753906 63.097656 51.488281 C 63.097656 53.222656 62.722656 54.757812 61.976562 56.085938 C 61.226562 57.414062 60.140625 58.445312 58.722656 59.1875 C 57.308594 59.925781 55.597656 60.296875 53.589844 60.296875 L 47.015625 60.296875 L 47.015625 55.867188 L 52.695312 55.867188 C 53.761719 55.867188 54.636719 55.683594 55.324219 55.316406 C 56.023438 54.941406 56.542969 54.429688 56.882812 53.773438 C 57.230469 53.109375 57.40625 52.347656 57.40625 51.488281 C 57.40625 50.617188 57.230469 49.863281 56.882812 49.214844 C 56.535156 48.558594 55.992188 48.027344 55.324219 47.695312 C 54.625 47.332031 53.742188 47.148438 52.667969 47.148438 L 48.941406 47.148438 L 48.941406 68.773438 Z M 71.003906 69.144531 C 69.753906 69.144531 68.640625 68.925781 67.660156 68.492188 C 66.714844 68.078125 65.90625 67.398438 65.335938 66.539062 C 64.773438 65.667969 64.492188 64.589844 64.496094 63.296875 C 64.496094 62.207031 64.695312 61.292969 65.09375 60.550781 C 65.496094 59.8125 66.039062 59.214844 66.726562 58.765625 C 67.449219 58.300781 68.242188 57.957031 69.074219 57.746094 C 69.992188 57.511719 70.921875 57.351562 71.859375 57.257812 C 72.78125 57.167969 73.703125 57.054688 74.617188 56.925781 C 75.3125 56.816406 75.820312 56.65625 76.136719 56.441406 C 76.453125 56.230469 76.609375 55.914062 76.609375 55.5 L 76.609375 55.421875 C 76.609375 54.613281 76.351562 53.988281 75.84375 53.542969 C 75.339844 53.101562 74.625 52.882812 73.699219 52.882812 C 72.71875 52.882812 71.9375 53.097656 71.359375 53.53125 C 70.78125 53.957031 70.398438 54.496094 70.210938 55.140625 L 65.183594 54.730469 C 65.4375 53.539062 65.941406 52.511719 66.6875 51.644531 C 67.4375 50.765625 68.402344 50.09375 69.585938 49.625 C 70.777344 49.148438 72.15625 48.910156 73.722656 48.910156 C 74.8125 48.910156 75.855469 49.039062 76.847656 49.292969 C 77.804688 49.523438 78.707031 49.929688 79.519531 50.480469 C 80.300781 51.015625 80.917969 51.707031 81.371094 52.546875 C 81.820312 53.382812 82.046875 54.382812 82.046875 55.546875 L 82.046875 68.773438 L 76.886719 68.773438 L 76.886719 66.050781 L 76.734375 66.050781 C 76.417969 66.664062 76 67.203125 75.472656 67.671875 C 74.910156 68.148438 74.265625 68.519531 73.570312 68.757812 C 72.828125 69.015625 71.972656 69.140625 71.003906 69.140625 M 72.5625 65.386719 C 73.359375 65.386719 74.066406 65.230469 74.679688 64.914062 C 75.292969 64.59375 75.773438 64.160156 76.125 63.613281 C 76.472656 63.070312 76.644531 62.453125 76.644531 61.761719 L 76.644531 59.683594 C 76.476562 59.792969 76.242188 59.894531 75.945312 59.988281 C 75.65625 60.074219 75.328125 60.15625 74.960938 60.230469 C 74.597656 60.300781 74.230469 60.363281 73.863281 60.421875 L 72.867188 60.5625 C 72.230469 60.65625 71.671875 60.804688 71.195312 61.011719 C 70.71875 61.214844 70.347656 61.492188 70.085938 61.839844 C 69.8125 62.207031 69.675781 62.660156 69.6875 63.117188 C 69.6875 63.855469 69.957031 64.421875 70.492188 64.8125 C 71.039062 65.199219 71.726562 65.386719 72.5625 65.386719 M 88.273438 76.121094 C 87.621094 76.125 86.972656 76.070312 86.332031 75.957031 C 85.824219 75.878906 85.328125 75.746094 84.851562 75.5625 L 86.078125 71.503906 C 86.714844 71.699219 87.289062 71.804688 87.796875 71.820312 C 88.320312 71.835938 88.765625 71.71875 89.140625 71.464844 C 89.523438 71.207031 89.832031 70.773438 90.074219 70.160156 L 90.390625 69.332031 L 83.359375 49.164062 L 89.078125 49.164062 L 93.136719 63.5625 L 93.339844 63.5625 L 97.4375 49.164062 L 103.195312 49.164062 L 95.574219 70.890625 C 95.238281 71.886719 94.734375 72.820312 94.078125 73.648438 C 93.460938 74.4375 92.671875 75.046875 91.71875 75.472656 C 90.765625 75.90625 89.617188 76.121094 88.273438 76.121094 M 116.871094 68.769531 L 111.535156 49.164062 L 117.035156 49.164062 L 120.074219 62.339844 L 120.253906 62.339844 L 123.417969 49.164062 L 128.816406 49.164062 L 132.035156 62.261719 L 132.203125 62.261719 L 135.1875 49.164062 L 140.675781 49.164062 L 135.351562 68.773438 L 129.597656 68.773438 L 126.226562 56.441406 L 125.984375 56.441406 L 122.613281 68.773438 Z M 142.929688 68.769531 L 142.929688 49.167969 L 148.367188 49.167969 L 148.367188 68.773438 Z M 145.660156 46.636719 C 144.851562 46.636719 144.160156 46.367188 143.582031 45.832031 C 143.027344 45.332031 142.71875 44.621094 142.726562 43.878906 C 142.726562 43.128906 143.011719 42.488281 143.582031 41.953125 C 144.140625 41.414062 144.886719 41.121094 145.660156 41.136719 C 146.46875 41.136719 147.15625 41.410156 147.730469 41.949219 C 148.308594 42.488281 148.597656 43.128906 148.597656 43.878906 C 148.597656 44.636719 148.308594 45.289062 147.730469 45.832031 C 147.160156 46.367188 146.472656 46.636719 145.660156 46.636719 M 162.503906 49.164062 L 162.503906 53.25 L 150.699219 53.25 L 150.699219 49.164062 Z M 153.378906 44.46875 L 158.816406 44.46875 L 158.816406 62.746094 C 158.816406 63.246094 158.890625 63.640625 159.046875 63.917969 C 159.199219 64.191406 159.414062 64.382812 159.683594 64.492188 C 159.964844 64.605469 160.289062 64.660156 160.65625 64.660156 C 160.910156 64.660156 161.167969 64.640625 161.417969 64.597656 C 161.675781 64.546875 161.871094 64.507812 162.007812 64.484375 L 162.863281 68.527344 C 162.484375 68.640625 162.101562 68.738281 161.714844 68.820312 C 161.21875 68.941406 160.621094 69.015625 159.914062 69.039062 C 158.601562 69.089844 157.457031 68.914062 156.46875 68.515625 C 155.53125 68.148438 154.730469 67.496094 154.183594 66.652344 C 153.636719 65.808594 153.367188 64.746094 153.378906 63.460938 Z M 171.261719 57.433594 L 171.261719 68.769531 L 165.820312 68.769531 L 165.820312 42.628906 L 171.105469 42.628906 L 171.105469 52.625 L 171.335938 52.625 C 171.742188 51.511719 172.496094 50.5625 173.480469 49.90625 C 174.46875 49.242188 175.707031 48.910156 177.195312 48.910156 C 178.554688 48.910156 179.746094 49.210938 180.757812 49.804688 C 181.777344 50.390625 182.570312 51.238281 183.132812 52.34375 C 183.703125 53.441406 183.984375 54.757812 183.972656 56.289062 L 183.972656 68.773438 L 178.535156 68.773438 L 178.535156 57.257812 C 178.542969 56.050781 178.238281 55.109375 177.617188 54.4375 C 177.003906 53.765625 176.144531 53.429688 175.039062 53.429688 C 174.296875 53.429688 173.640625 53.585938 173.074219 53.902344 C 172.511719 54.214844 172.070312 54.675781 171.746094 55.28125 C 171.429688 55.875 171.269531 56.59375 171.261719 57.4375 " fill-opacity="1" fill-rule="nonzero"/><g clip-path="url(#bf47aa4d76)"><path fill="#ffffff" d="M 326.890625 56.847656 C 326.890625 48.09375 322.648438 41.183594 314.542969 41.183594 C 306.402344 41.183594 301.480469 48.09375 301.480469 56.777344 C 301.480469 67.074219 307.292969 72.269531 315.636719 72.269531 C 319.707031 72.269531 322.785156 71.347656 325.109375 70.046875 L 325.109375 63.207031 C 322.785156 64.371094 320.117188 65.089844 316.730469 65.089844 C 313.414062 65.089844 310.472656 63.925781 310.097656 59.890625 L 326.820312 59.890625 C 326.820312 59.445312 326.890625 57.667969 326.890625 56.847656 Z M 309.996094 53.597656 C 309.996094 49.734375 312.355469 48.128906 314.507812 48.128906 C 316.59375 48.128906 318.816406 49.734375 318.816406 53.597656 Z M 309.996094 53.597656 " fill-opacity="1" fill-rule="evenodd"/></g><g clip-path="url(#7eed8110b3)"><path fill="#ffffff" d="M 288.277344 41.183594 C 284.925781 41.183594 282.773438 42.757812 281.574219 43.851562 L 281.132812 41.730469 L 273.609375 41.730469 L 273.609375 81.605469 L 282.15625 79.792969 L 282.191406 70.117188 C 283.421875 71.003906 285.234375 72.269531 288.246094 72.269531 C 294.367188 72.269531 299.941406 67.347656 299.941406 56.503906 C 299.90625 46.589844 294.261719 41.183594 288.277344 41.183594 Z M 286.226562 64.746094 C 284.210938 64.746094 283.011719 64.027344 282.191406 63.140625 L 282.15625 50.453125 C 283.046875 49.460938 284.277344 48.777344 286.226562 48.777344 C 289.339844 48.777344 291.492188 52.265625 291.492188 56.746094 C 291.492188 61.328125 289.375 64.746094 286.226562 64.746094 Z M 286.226562 64.746094 " fill-opacity="1" fill-rule="evenodd"/></g><g clip-path="url(#1b967e4bd4)"><path fill="#ffffff" d="M 261.84375 39.167969 L 270.425781 37.320312 L 270.425781 30.378906 L 261.84375 32.191406 Z M 261.84375 39.167969 " fill-opacity="1" fill-rule="evenodd"/></g><path fill="#ffffff" d="M 261.84375 41.765625 L 270.425781 41.765625 L 270.425781 71.691406 L 261.84375 71.691406 Z M 261.84375 41.765625 " fill-opacity="1" fill-rule="evenodd"/><path fill="#ffffff" d="M 252.644531 44.296875 L 252.097656 41.765625 L 244.710938 41.765625 L 244.710938 71.691406 L 253.257812 71.691406 L 253.257812 51.410156 C 255.277344 48.777344 258.699219 49.253906 259.757812 49.632812 L 259.757812 41.765625 C 258.664062 41.355469 254.660156 40.601562 252.644531 44.296875 Z M 252.644531 44.296875 " fill-opacity="1" fill-rule="evenodd"/><path fill="#ffffff" d="M 235.546875 34.34375 L 227.199219 36.125 L 227.167969 63.515625 C 227.167969 68.578125 230.960938 72.304688 236.023438 72.304688 C 238.828125 72.304688 240.878906 71.792969 242.007812 71.175781 L 242.007812 64.234375 C 240.914062 64.679688 235.511719 66.253906 235.511719 61.191406 L 235.511719 49.050781 L 242.007812 49.050781 L 242.007812 41.765625 L 235.511719 41.765625 Z M 235.546875 34.34375 " fill-opacity="1" fill-rule="evenodd"/><g clip-path="url(#e0d515de80)"><path fill="#ffffff" d="M 212.425781 50.453125 C 212.425781 49.117188 213.519531 48.605469 215.332031 48.605469 C 217.933594 48.605469 221.214844 49.390625 223.816406 50.792969 L 223.816406 42.757812 C 220.976562 41.628906 218.171875 41.183594 215.332031 41.183594 C 208.390625 41.183594 203.773438 44.808594 203.773438 50.863281 C 203.773438 60.300781 216.769531 58.796875 216.769531 62.867188 C 216.769531 64.441406 215.402344 64.953125 213.488281 64.953125 C 210.648438 64.953125 207.023438 63.789062 204.152344 62.214844 L 204.152344 70.355469 C 207.332031 71.722656 210.546875 72.304688 213.488281 72.304688 C 220.601562 72.304688 225.492188 68.78125 225.492188 62.660156 C 225.457031 52.46875 212.425781 54.28125 212.425781 50.453125 Z M 212.425781 50.453125 " fill-opacity="1" fill-rule="evenodd"/></g></svg>